<svg width="59" height="67" viewBox="0 0 59 67" fill="none" xmlns="http://www.w3.org/2000/svg">
<path d="M44.4833 33.3333C43.1958 33.3333 42.0979 32.8819 41.1896 31.9792C40.2812 31.0778 39.8271 29.9833 39.8271 28.6958C39.8271 27.4083 40.2785 26.3097 41.1812 25.4C42.084 24.4903 43.1785 24.0368 44.4646 24.0396C45.7507 24.0424 46.8486 24.4931 47.7583 25.3917C48.6681 26.2931 49.1229 27.3882 49.1229 28.6771C49.1229 29.966 48.6715 31.0639 47.7687 31.9708C46.866 32.8792 45.7708 33.3333 44.4833 33.3333ZM44.475 31.25C45.1722 31.25 45.7736 30.9965 46.2792 30.4896C46.7861 29.984 47.0396 29.3826 47.0396 28.6854C47.0396 27.9882 46.7861 27.3868 46.2792 26.8812C45.7722 26.3757 45.1708 26.1222 44.475 26.1208C43.7778 26.1208 43.1757 26.3743 42.6687 26.8812C42.1632 27.3868 41.9104 27.9882 41.9104 28.6854C41.9104 29.3826 42.1632 29.9847 42.6687 30.4917C43.1743 30.9986 43.7764 31.2514 44.475 31.25ZM49.0417 18.75C46.4083 18.75 44.1875 17.8458 42.3792 16.0375C40.5708 14.2292 39.6667 12.0083 39.6667 9.375C39.6667 6.74167 40.5708 4.52083 42.3792 2.7125C44.1875 0.904167 46.4083 0 49.0417 0C51.675 0 53.8958 0.904167 55.7042 2.7125C57.5125 4.52083 58.4167 6.74167 58.4167 9.375C58.4167 12.0083 57.5125 14.2292 55.7042 16.0375C53.8958 17.8458 51.675 18.75 49.0417 18.75ZM49.0417 16.6667C51.0903 16.6667 52.8181 15.9639 54.225 14.5583C55.6319 13.1528 56.3347 11.425 56.3333 9.375C56.3319 7.325 55.6292 5.59722 54.225 4.19167C52.8208 2.78611 51.0931 2.08333 49.0417 2.08333C46.9903 2.08333 45.2625 2.78681 43.8583 4.19375C42.4542 5.60069 41.7514 7.32778 41.75 9.375C41.7486 11.4222 42.4521 13.15 43.8604 14.5583C45.2687 15.9667 46.9958 16.6694 49.0417 16.6667ZM29.7292 27.5625C27.8792 27.5625 26.2951 26.9042 24.9771 25.5875C23.659 24.2708 23 22.6861 23 20.8333C23 18.9806 23.659 17.3958 24.9771 16.0792C26.2951 14.7625 27.8799 14.1035 29.7312 14.1021C31.5826 14.1007 33.1674 14.7604 34.4854 16.0812C35.8035 17.4021 36.4625 18.9861 36.4625 20.8333C36.4625 22.6806 35.8028 24.2653 34.4833 25.5875C33.1639 26.9097 31.5799 27.5688 29.7312 27.5646M29.7312 25.4813C31.0104 25.4813 32.1049 25.0257 33.0146 24.1146C33.9243 23.2035 34.3792 22.1097 34.3792 20.8333C34.3792 19.5569 33.9236 18.4632 33.0125 17.5521C32.1014 16.641 31.0069 16.1861 29.7292 16.1875C28.4514 16.1889 27.3576 16.6444 26.4479 17.5542C25.5382 18.4639 25.0833 19.5569 25.0833 20.8333C25.0833 22.1097 25.5389 23.2035 26.45 24.1146C27.3611 25.0257 28.4556 25.4806 29.7333 25.4792" fill="#FE2260"/>
<path d="M21.4833 66.3333C20.1958 66.3333 19.0979 65.8819 18.1896 64.9792C17.2812 64.0778 16.8271 62.9833 16.8271 61.6958C16.8271 60.4083 17.2785 59.3097 18.1812 58.4C19.084 57.4903 20.1785 57.0368 21.4646 57.0396C22.7507 57.0424 23.8486 57.4931 24.7583 58.3917C25.6681 59.2931 26.1229 60.3882 26.1229 61.6771C26.1229 62.966 25.6715 64.0639 24.7687 64.9708C23.866 65.8792 22.7708 66.3333 21.4833 66.3333ZM26.0417 51.75C23.4083 51.75 21.1875 50.8458 19.3792 49.0375C17.5708 47.2292 16.6667 45.0083 16.6667 42.375C16.6667 39.7417 17.5708 37.5208 19.3792 35.7125C21.1875 33.9042 23.4083 33 26.0417 33C28.675 33 30.8958 33.9042 32.7042 35.7125C34.5125 37.5208 35.4167 39.7417 35.4167 42.375C35.4167 45.0083 34.5125 47.2292 32.7042 49.0375C30.8958 50.8458 28.675 51.75 26.0417 51.75ZM6.72917 60.5625C4.87917 60.5625 3.29514 59.9042 1.97708 58.5875C0.659027 57.2708 0 55.6861 0 53.8333C0 51.9806 0.659027 50.3958 1.97708 49.0792C3.29514 47.7625 4.87986 47.1035 6.73125 47.1021C8.58264 47.1007 10.1674 47.7604 11.4854 49.0812C12.8035 50.4021 13.4625 51.9861 13.4625 53.8333C13.4625 55.6806 12.8028 57.2653 11.4833 58.5875C10.1639 59.9097 8.57986 60.5688 6.73125 60.5646" fill="#FE2260"/>
</svg>
