<svg width="104" height="92" viewBox="0 0 104 92" fill="none" xmlns="http://www.w3.org/2000/svg">
<path d="M86.6667 65.1667C88.9652 65.1667 91.1696 64.359 92.7949 62.9212C94.4202 61.4834 95.3333 59.5334 95.3333 57.5001V15.3334C95.3333 13.3001 94.4202 11.35 92.7949 9.91226C91.1696 8.47448 88.9652 7.66675 86.6667 7.66675H40.9933C42.51 10.0051 43.3333 12.6501 43.3333 15.3334H86.6667V57.5001H47.6667V65.1667M65 26.8334V34.5001H39V84.3334H30.3333V61.3334H21.6667V84.3334H13V53.6667H6.5V34.5001C6.5 32.4668 7.41309 30.5167 9.03841 29.0789C10.6637 27.6411 12.8681 26.8334 15.1667 26.8334H65ZM34.6667 15.3334C34.6667 17.3667 33.7536 19.3168 32.1283 20.7546C30.5029 22.1923 28.2985 23.0001 26 23.0001C23.7015 23.0001 21.4971 22.1923 19.8717 20.7546C18.2464 19.3168 17.3333 17.3667 17.3333 15.3334C17.3333 13.3001 18.2464 11.35 19.8717 9.91226C21.4971 8.47448 23.7015 7.66675 26 7.66675C28.2985 7.66675 30.5029 8.47448 32.1283 9.91226C33.7536 11.35 34.6667 13.3001 34.6667 15.3334Z" fill="white"/>
</svg>
