<svg width="122" height="92" viewBox="0 0 122 92" fill="none" xmlns="http://www.w3.org/2000/svg">
<path d="M40.26 13.1429C40.26 9.65715 38.9746 6.31422 36.6867 3.84945C34.3988 1.38469 31.2956 0 28.06 0C24.8244 0 21.7212 1.38469 19.4333 3.84945C17.1454 6.31422 15.86 9.65715 15.86 13.1429C15.86 16.6286 17.1454 19.9715 19.4333 22.4363C21.7212 24.901 24.8244 26.2857 28.06 26.2857C31.2956 26.2857 34.3988 24.901 36.6867 22.4363C38.9746 19.9715 40.26 16.6286 40.26 13.1429ZM6.1 46C6.1 49.6348 8.82594 52.5714 12.2 52.5714H28.5175C30.4428 44.4804 35.8756 37.8884 42.9669 34.7875C41.1178 33.5554 38.9256 32.8571 36.6 32.8571H18.3C11.5709 32.8571 6.1 38.7509 6.1 46ZM94.0925 52.5714H109.8C113.174 52.5714 115.9 49.6348 115.9 46C115.9 38.7509 110.429 32.8571 103.7 32.8571H85.4C83.1697 32.8571 81.0728 33.4938 79.2809 34.6232C86.5437 37.6625 92.1291 44.3366 94.0925 52.5714ZM74.5725 39.9214C73.2572 39.5929 71.8656 39.4286 70.455 39.4286H52.155C50.5347 39.4286 48.9716 39.6545 47.4847 40.0652C41.6134 41.7286 36.8859 46.4518 34.8844 52.5714C34.2172 54.625 33.8359 56.8429 33.8359 59.1429C33.8359 62.7777 36.5619 65.7143 39.9359 65.7143H82.6359C86.01 65.7143 88.7359 62.7777 88.7359 59.1429C88.7359 56.8429 88.3737 54.625 87.6875 52.5714C85.6288 46.267 80.6725 41.4411 74.5534 39.9214H74.5725ZM107.36 13.1429C107.36 9.65715 106.075 6.31422 103.787 3.84945C101.499 1.38469 98.3956 0 95.16 0C91.9244 0 88.8212 1.38469 86.5333 3.84945C84.2454 6.31422 82.96 9.65715 82.96 13.1429C82.96 16.6286 84.2454 19.9715 86.5333 22.4363C88.8212 24.901 91.9244 26.2857 95.16 26.2857C98.3956 26.2857 101.499 24.901 103.787 22.4363C106.075 19.9715 107.36 16.6286 107.36 13.1429ZM61.305 32.8571C65.3496 32.8571 69.2284 31.1263 72.0884 28.0453C74.9483 24.9644 76.555 20.7857 76.555 16.4286C76.555 12.0714 74.9483 7.89277 72.0884 4.81182C69.2284 1.73086 65.3496 0 61.305 0C57.2604 0 53.3816 1.73086 50.5216 4.81182C47.6617 7.89277 46.055 12.0714 46.055 16.4286C46.055 20.7857 47.6617 24.9644 50.5216 28.0453C53.3816 31.1263 57.2604 32.8571 61.305 32.8571ZM6.1 78.8571C2.72594 78.8571 0 81.7938 0 85.4286C0 89.0634 2.72594 92 6.1 92H115.9C119.274 92 122 89.0634 122 85.4286C122 81.7938 119.274 78.8571 115.9 78.8571H6.1Z" fill="white"/>
</svg>
