<svg width="92" height="92" viewBox="0 0 92 92" fill="none" xmlns="http://www.w3.org/2000/svg">
<g clip-path="url(#clip0_1_4021)">
<path d="M45.8141 21.7046C38.6069 21.7055 31.4658 24.8032 32.2165 30.9929L34.0565 44.447C34.3795 46.8142 35.9793 50.6 38.3686 50.6H38.5388L40.4956 73.1685C40.5803 74.1842 41.3163 75.0085 42.3356 75.0085H49.6956C50.715 75.0085 51.451 74.1842 51.5356 73.1685L53.4925 50.6H53.6636C56.0528 50.6 57.6518 46.8142 57.9756 44.4479L59.8156 30.992C60.2977 24.7976 53.0223 21.7028 45.8141 21.7046Z" fill="white"/>
<path d="M46.0221 46.8354L45.9779 46.9514C45.9926 46.9164 46.0027 46.8805 46.0175 46.8456L46.0221 46.8354Z" fill="white"/>
<path d="M46 19.32C51.335 19.32 55.66 14.9951 55.66 9.66C55.66 4.32493 51.335 0 46 0C40.6649 0 36.34 4.32493 36.34 9.66C36.34 14.9951 40.6649 19.32 46 19.32Z" fill="white"/>
<path d="M56.0482 63.5647C55.97 64.4589 55.8872 65.3513 55.809 66.2456C64.0449 67.4085 70.15 70.047 70.84 73.3112C71.8676 78.1651 55.9894 80.3492 45.7608 80.2471C35.5322 80.144 19.9465 78.1651 21.309 73.3103C22.2033 70.1243 28.2201 67.5382 36.2406 66.3339C36.1606 65.4369 36.0695 64.5399 35.9922 63.6438C25.6827 64.7809 17.0936 67.5805 13.662 71.2301H2.05068L0 75.4833H12.1127C13.0539 80.4881 23.5456 84.8084 38.548 85.8995L38.0346 92.0001H52.8834L52.7344 85.9005C67.8132 84.8084 78.602 80.4881 79.8873 75.4833H92L90.2428 71.2301H78.6315C75.3719 67.4885 66.6273 64.6429 56.0482 63.5647Z" fill="white"/>
</g>
<defs>
<clipPath id="clip0_1_4021">
<rect width="92" height="92" fill="white"/>
</clipPath>
</defs>
</svg>
