<svg width="35" height="35" viewBox="0 0 35 35" fill="none" xmlns="http://www.w3.org/2000/svg">
<path d="M32.5 27.5H18.75V22.5H26.25C26.9127 22.499 27.548 22.2353 28.0167 21.7667C28.4853 21.298 28.749 20.6627 28.75 20V2.5C28.75 1.83696 28.4866 1.20107 28.0178 0.732233C27.5489 0.263392 26.913 0 26.25 0H8.75C8.08696 0 7.45107 0.263392 6.98223 0.732233C6.51339 1.20107 6.25 1.83696 6.25 2.5V20C6.25 20.663 6.51339 21.2989 6.98223 21.7678C7.45107 22.2366 8.08696 22.5 8.75 22.5H16.25V27.5H2.5C1.83696 27.5 1.20107 27.7634 0.732233 28.2322C0.263392 28.7011 0 29.337 0 30V35H2.5V30H16.25V35H18.75V30H32.5V35H35V30C35 29.337 34.7366 28.7011 34.2678 28.2322C33.7989 27.7634 33.163 27.5 32.5 27.5ZM8.75 2.5H26.25L26.2525 20H8.75V2.5Z" fill="#DEDEDE"/>
</svg>
