<svg width="497" height="572" viewBox="0 0 497 572" fill="none" xmlns="http://www.w3.org/2000/svg">
<path d="M313.258 572C414.586 572 496.728 514.327 496.728 443.184C496.728 372.04 414.586 314.367 313.258 314.367C211.93 314.367 129.788 372.04 129.788 443.184C129.788 514.327 211.93 572 313.258 572Z" fill="#400E54"/>
<path d="M347.523 524.405L156.767 426.67C155.089 425.812 153.695 424.577 152.726 423.089C151.757 421.601 151.247 419.913 151.247 418.195C151.247 416.476 151.757 414.788 152.726 413.3C153.695 411.812 155.089 410.577 156.767 409.719L175.584 399.19C178.833 397.53 182.515 396.656 186.264 396.656C190.013 396.656 193.695 397.53 196.944 399.19L387.726 496.936C389.404 497.794 390.798 499.029 391.767 500.517C392.736 502.005 393.246 503.693 393.246 505.411C393.246 507.13 392.736 508.818 391.767 510.306C390.798 511.794 389.404 513.029 387.726 513.887L368.909 524.405C365.659 526.073 361.971 526.952 358.216 526.952C354.461 526.952 350.773 526.073 347.523 524.405Z" fill="#E0E0E0"/>
<path d="M57.4786 435.301C80.341 435.301 98.8746 425.857 98.8746 414.207C98.8746 402.558 80.341 393.114 57.4786 393.114C34.6162 393.114 16.0825 402.558 16.0825 414.207C16.0825 425.857 34.6162 435.301 57.4786 435.301Z" fill="#E6E6E6"/>
<path d="M415.168 440.134L433.324 449.397C433.324 449.397 424.052 423.54 428.993 397.475C430.86 387.624 434.868 382.734 436.268 380.098C437.669 377.463 448.524 361.18 438.862 353.723C429.2 346.266 406.726 361.26 407.945 401.388C408.499 414.522 410.926 427.541 415.168 440.134Z" fill="#C889E2"/>
<path opacity="0.5" d="M415.168 440.134L433.324 449.397C433.324 449.397 424.052 423.54 428.993 397.475C430.86 387.624 434.868 382.734 436.268 380.098C437.669 377.463 448.524 361.18 438.862 353.723C429.2 346.266 406.726 361.26 407.945 401.388C408.499 414.522 410.926 427.541 415.168 440.134Z" fill="black"/>
<path d="M423.612 445.013C423.48 445.016 423.35 444.981 423.241 444.915C423.131 444.849 423.048 444.755 423.002 444.645C422.937 444.472 415.999 427.648 416.22 400.605C416.44 373.562 432.456 358.878 432.612 358.74C432.672 358.686 432.744 358.644 432.823 358.614C432.902 358.585 432.987 358.57 433.072 358.57C433.158 358.57 433.243 358.585 433.322 358.614C433.401 358.644 433.472 358.686 433.533 358.74C433.593 358.794 433.642 358.857 433.675 358.928C433.708 358.998 433.724 359.073 433.724 359.149C433.724 359.225 433.708 359.3 433.675 359.37C433.642 359.44 433.593 359.504 433.533 359.557C433.377 359.695 417.737 373.942 417.516 400.617C417.296 427.291 424.143 444.092 424.221 444.254C424.28 444.397 424.271 444.555 424.198 444.693C424.125 444.831 423.994 444.938 423.832 444.99C423.761 445.01 423.686 445.017 423.612 445.013Z" fill="white"/>
<path d="M422.743 444.093L447.565 456.751C450.151 458.108 453.219 458.549 456.156 457.989C459.093 457.428 461.684 455.905 463.413 453.724C465.056 451.456 465.749 448.747 465.371 446.072C464.178 434.633 458.575 431.998 465.436 426.9C472.296 421.802 474.086 421.445 473.697 416.543C473.308 411.641 469.534 409.501 467.744 407.567C465.954 405.634 461 401.583 464.372 395.599C467.744 389.615 472.348 383.827 465.371 381.18C461.208 379.592 454.27 381.71 449.705 386.105C445.14 390.501 441.379 393.666 437.008 394.725C432.638 395.783 423.534 395.956 423.923 402.642C424.312 409.328 426.309 411.618 424.519 414.598C421.148 420.168 406.48 423.333 422.743 444.093Z" fill="#C889E2"/>
<path d="M435.011 450.905C434.849 450.9 434.694 450.844 434.575 450.747C434.456 450.65 434.381 450.518 434.362 450.375C434.362 449.984 430.549 410.49 461.155 384.207C461.282 384.114 461.443 384.067 461.606 384.076C461.769 384.084 461.923 384.147 462.036 384.252C462.15 384.357 462.214 384.496 462.217 384.641C462.219 384.786 462.16 384.927 462.05 385.035C431.885 410.939 435.62 449.881 435.659 450.272C435.673 450.423 435.62 450.573 435.511 450.689C435.402 450.805 435.245 450.879 435.075 450.893L435.011 450.905Z" fill="white"/>
<path d="M439.926 416.911C439.762 416.912 439.605 416.858 439.485 416.76C439.364 416.661 439.29 416.527 439.277 416.382C439.006 413.321 438.034 410.342 436.422 407.626C434.81 404.909 432.591 402.513 429.901 400.582C429.831 400.538 429.771 400.483 429.725 400.419C429.679 400.355 429.648 400.283 429.634 400.208C429.619 400.133 429.622 400.057 429.641 399.982C429.66 399.908 429.695 399.838 429.745 399.777C429.793 399.715 429.855 399.662 429.926 399.621C429.997 399.581 430.077 399.553 430.16 399.541C430.243 399.528 430.329 399.53 430.411 399.547C430.494 399.563 430.571 399.595 430.64 399.638C433.507 401.656 435.87 404.18 437.58 407.05C439.29 409.92 440.31 413.075 440.574 416.313C440.588 416.467 440.534 416.62 440.422 416.738C440.311 416.857 440.151 416.931 439.978 416.946L439.926 416.911Z" fill="white"/>
<path d="M437.812 423.689C437.655 423.691 437.503 423.642 437.384 423.551C437.255 423.449 437.176 423.307 437.164 423.154C437.152 423.002 437.208 422.851 437.319 422.734C437.63 422.412 445.295 414.909 463.256 416.9C463.426 416.92 463.581 416.999 463.685 417.12C463.79 417.241 463.836 417.393 463.814 417.544C463.791 417.696 463.703 417.834 463.567 417.929C463.431 418.023 463.259 418.067 463.088 418.051C445.839 416.129 438.357 423.425 438.279 423.494C438.22 423.552 438.148 423.6 438.068 423.634C437.987 423.667 437.9 423.686 437.812 423.689Z" fill="white"/>
<path d="M341.713 512.724L173.95 426.773C162.11 420.709 152.513 404.437 152.513 390.432V71.6706C152.513 57.6658 162.11 51.233 173.95 57.2975L341.713 143.248C353.553 149.313 363.15 165.584 363.15 179.589V498.351C363.15 512.344 353.553 518.789 341.713 512.724Z" fill="#455A64"/>
<path d="M361.036 133.225L193.26 47.2744C188.202 44.6852 183.56 44.386 179.89 45.9741C179.44 46.1737 179.007 46.4006 178.593 46.653L159.788 56.354C163.575 54.3401 168.529 54.4897 173.963 57.2746L341.726 143.225C353.566 149.29 363.163 165.562 363.163 179.566V498.328C363.163 505.739 360.478 510.986 356.199 513.472L374.757 503.886C379.491 501.654 382.538 496.188 382.538 488.351V169.589C382.538 155.561 372.877 139.29 361.036 133.225Z" fill="#37474F"/>
<path d="M363.15 179.566V498.328C363.15 505.739 360.465 510.986 356.186 513.472L374.757 503.886C379.49 501.654 382.538 496.188 382.538 488.351V169.589L363.215 179.543L363.15 179.566Z" fill="#263238"/>
<path d="M382.473 194.319L363.149 204.216V211.949L382.473 202.041V194.319Z" fill="#37474F"/>
<path d="M374.004 245.747C372.28 246.633 370.879 245.689 370.879 243.652V227.024C370.896 225.984 371.188 224.963 371.731 224.042C372.274 223.12 373.052 222.325 374.004 221.719C375.729 220.833 377.13 221.719 377.13 223.813V240.442C377.112 241.481 376.82 242.503 376.278 243.424C375.735 244.345 374.956 245.141 374.004 245.747Z" fill="#37474F"/>
<path d="M370.866 243.698V227.024C370.884 225.984 371.176 224.963 371.719 224.042C372.261 223.12 373.04 222.325 373.992 221.719C374.276 221.542 374.608 221.434 374.953 221.406C375.299 221.378 375.647 221.43 375.963 221.558L373.616 220.487C373.295 220.35 372.939 220.291 372.583 220.315C372.228 220.339 371.886 220.446 371.593 220.625C370.64 221.232 369.86 222.027 369.315 222.948C368.77 223.869 368.475 224.89 368.454 225.931V242.548C368.406 242.967 368.478 243.391 368.664 243.78C368.849 244.168 369.143 244.508 369.518 244.769L371.969 245.919C371.579 245.67 371.271 245.332 371.077 244.942C370.883 244.551 370.81 244.122 370.866 243.698Z" fill="#455A64"/>
<path d="M374.004 285.989C372.28 286.875 370.879 285.989 370.879 283.895V267.266C370.897 266.227 371.19 265.206 371.732 264.285C372.275 263.363 373.053 262.568 374.004 261.961C375.729 261.075 377.13 261.961 377.13 264.067V280.684C377.114 281.724 376.823 282.746 376.28 283.667C375.737 284.589 374.958 285.384 374.004 285.989Z" fill="#37474F"/>
<path d="M370.866 283.895V267.266C370.885 266.227 371.177 265.206 371.72 264.285C372.262 263.363 373.04 262.568 373.992 261.961C374.278 261.788 374.609 261.682 374.954 261.654C375.299 261.625 375.646 261.676 375.963 261.8L373.615 260.718C373.296 260.575 372.939 260.512 372.582 260.537C372.225 260.561 371.883 260.672 371.592 260.856C370.637 261.46 369.856 262.255 369.31 263.177C368.765 264.098 368.472 265.121 368.454 266.161V282.824C368.404 283.244 368.475 283.668 368.662 284.057C368.848 284.446 369.142 284.786 369.517 285.045L371.968 286.196C371.562 285.941 371.244 285.59 371.05 285.184C370.855 284.778 370.791 284.331 370.866 283.895Z" fill="#455A64"/>
<path d="M335.851 152.19L170.993 67.7006C170.305 67.3494 169.526 67.1639 168.732 67.1626C167.938 67.1613 167.158 67.3442 166.468 67.6931C165.779 68.0421 165.204 68.545 164.801 69.1519C164.398 69.7588 164.181 70.4486 164.172 71.1529V390.432C164.172 401.089 172.692 414.173 183.093 419.501L343.905 501.93C344.668 502.319 345.532 502.524 346.412 502.523C347.292 502.523 348.156 502.317 348.918 501.926C349.68 501.536 350.313 500.974 350.753 500.298C351.193 499.623 351.426 498.856 351.427 498.075V176.16C351.492 167.368 344.463 156.586 335.851 152.19Z" fill="#C889E2"/>
<path opacity="0.9" d="M335.851 152.19L170.993 67.7006C170.305 67.3494 169.526 67.1639 168.732 67.1626C167.938 67.1613 167.158 67.3442 166.468 67.6931C165.779 68.0421 165.204 68.545 164.801 69.1519C164.398 69.7588 164.181 70.4486 164.172 71.1529V390.432C164.172 401.089 172.692 414.173 183.093 419.501L343.905 501.93C344.668 502.319 345.532 502.524 346.412 502.523C347.292 502.523 348.156 502.317 348.918 501.926C349.68 501.536 350.313 500.974 350.753 500.298C351.193 499.623 351.426 498.856 351.427 498.075V176.16C351.492 167.368 344.463 156.586 335.851 152.19Z" fill="white"/>
<path d="M220.3 89.7607L222.855 99.3006L277.505 127.264L286.946 122.799L220.3 89.7607Z" fill="#455A64"/>
<path d="M236.368 98.9783C236.368 100.566 235.071 101.199 233.567 100.417C232.759 99.941 232.089 99.3038 231.609 98.5563C231.129 97.8088 230.854 96.972 230.805 96.1129C230.805 94.5363 232.102 93.8919 233.606 94.6859C234.413 95.1592 235.084 95.7943 235.564 96.5399C236.044 97.2855 236.319 98.1208 236.368 98.9783Z" fill="#263238"/>
<path d="M273.186 119.174C272.887 119.172 272.593 119.105 272.33 118.979L244.422 105.169C244.028 104.964 243.74 104.63 243.619 104.239C243.499 103.848 243.556 103.43 243.778 103.076C243.999 102.721 244.369 102.458 244.806 102.342C245.244 102.225 245.716 102.266 246.121 102.454L274.042 116.263C274.382 116.43 274.649 116.693 274.801 117.01C274.954 117.327 274.984 117.679 274.886 118.013C274.788 118.346 274.568 118.641 274.26 118.852C273.952 119.062 273.575 119.175 273.186 119.174Z" fill="#263238"/>
<path d="M198.746 134.146C197.047 133.271 195.815 134.03 195.815 135.952C195.815 136.913 196.083 137.859 196.594 138.707C197.105 139.554 197.845 140.276 198.746 140.808C199.229 141.069 199.783 141.206 200.348 141.206C200.913 141.206 201.467 141.069 201.949 140.808L204.66 145.158C203.706 145.625 202.625 145.848 201.538 145.801C200.45 145.754 199.398 145.44 198.5 144.894C196.298 143.698 194.462 142.04 193.154 140.065C191.847 138.089 191.108 135.859 191.004 133.57C191.004 129.301 194.233 127.816 198.681 130.118C201.193 131.553 203.251 133.534 204.66 135.872L201.949 137.782C201.281 136.33 200.172 135.072 198.746 134.146Z" fill="#C889E2"/>
<path d="M220.261 148.565C220.261 152.869 216.98 154.319 212.479 152.017C210.215 150.816 208.319 149.137 206.962 147.13C205.604 145.122 204.827 142.848 204.698 140.509C204.698 136.206 207.979 134.756 212.479 137.057C214.75 138.253 216.649 139.93 218.008 141.939C219.366 143.948 220.14 146.225 220.261 148.565ZM209.51 143.076C209.532 144.064 209.819 145.033 210.347 145.903C210.875 146.773 211.628 147.52 212.544 148.081C214.152 148.91 215.449 148.081 215.449 146.125C215.445 145.159 215.179 144.209 214.673 143.353C214.167 142.498 213.437 141.764 212.544 141.211C210.91 140.371 209.51 141.085 209.51 143.076Z" fill="#C889E2"/>
<path d="M225.487 143.996L231.09 154.353V146.896L235.331 149.071V163.582L231.44 161.58L225.863 151.315V158.726L221.597 156.54V141.994L225.487 143.996Z" fill="#C889E2"/>
<path d="M249.194 156.137V159.934L245.148 157.863V168.588L240.467 166.183V155.458L236.446 153.398V149.612L249.194 156.137Z" fill="#C889E2"/>
<path d="M258.324 173.283L253.007 170.556L252.281 172.236L247.482 169.773L253.461 158.323L258.272 160.786L264.03 178.254L259.038 175.7L258.324 173.283ZM257.17 169.256L255.718 164.296L254.226 167.748L257.17 169.256Z" fill="#C889E2"/>
<path d="M271.462 171.396C269.763 170.533 268.531 171.281 268.531 173.214C268.533 174.175 268.802 175.12 269.313 175.967C269.824 176.814 270.562 177.536 271.462 178.07C271.948 178.328 272.504 178.464 273.07 178.464C273.636 178.464 274.192 178.328 274.678 178.07L277.389 182.42C276.431 182.882 275.349 183.101 274.26 183.055C273.172 183.008 272.119 182.697 271.216 182.156C269.012 180.959 267.175 179.299 265.867 177.321C264.56 175.344 263.822 173.111 263.72 170.821C263.72 166.551 266.962 165.067 271.397 167.368C273.906 168.811 275.966 170.789 277.389 173.122L274.678 175.021C273.995 173.577 272.884 172.324 271.462 171.396Z" fill="#C889E2"/>
<path d="M290.175 177.138V180.924L286.129 178.853V189.613L281.447 187.207V176.482L277.427 174.422V170.636L290.175 177.138Z" fill="#C889E2"/>
<path d="M304.013 194.952C305.167 195.539 306.049 195.079 306.049 193.64V185.274L310.744 187.668V196.034C310.744 199.889 308.15 201.04 304 198.934C302.001 197.948 300.32 196.524 299.119 194.797C297.918 193.071 297.236 191.099 297.14 189.072V180.706L301.834 183.111V191.477C301.852 192.169 302.06 192.848 302.44 193.453C302.819 194.059 303.359 194.573 304.013 194.952Z" fill="#C889E2"/>
<path d="M318.305 194.998C317.773 194.733 317.436 194.722 317.436 195.159C317.436 196.977 324.763 199.601 324.763 204.86C324.763 208.082 322.001 208.094 318.811 206.46C316.006 204.935 313.59 202.909 311.717 200.51L313.455 197.794C314.881 199.754 316.711 201.456 318.85 202.812C319.537 203.169 319.978 203.169 319.978 202.651C319.978 200.763 312.638 198.255 312.638 193.157C312.638 190.257 315.024 189.705 318.707 191.546C321.08 192.819 323.168 194.469 324.867 196.414L323.168 199.198C321.765 197.613 320.129 196.2 318.305 194.998Z" fill="#C889E2"/>
<path d="M175.156 205.654C180.418 199.92 183.067 192.643 182.58 185.261C182.093 177.878 178.505 170.926 172.525 165.775C166.545 160.624 158.606 157.65 150.276 157.437C141.945 157.225 133.827 159.791 127.524 164.629C121.221 169.467 117.19 176.226 116.227 183.571C115.263 190.917 117.438 198.316 122.32 204.309C127.203 210.302 134.44 214.453 142.603 215.944C150.766 217.435 159.262 216.158 166.415 212.363L182.652 218.623L175.156 205.654Z" fill="#C889E2"/>
<path opacity="0.4" d="M175.156 205.654C180.418 199.92 183.067 192.643 182.58 185.261C182.093 177.878 178.505 170.926 172.525 165.775C166.545 160.624 158.606 157.65 150.276 157.437C141.945 157.225 133.827 159.791 127.524 164.629C121.221 169.467 117.19 176.226 116.227 183.571C115.263 190.917 117.438 198.316 122.32 204.309C127.203 210.302 134.44 214.453 142.603 215.944C150.766 217.435 159.262 216.158 166.415 212.363L182.652 218.623L175.156 205.654Z" fill="black"/>
<path d="M136.976 185.401C136.976 184.952 136.613 184.699 135.952 184.699C134.418 184.877 132.985 185.477 131.854 186.414L130.012 183.237C131.951 181.943 134.292 181.212 136.717 181.143C139.829 181.143 142.19 182.593 142.19 184.756C142.19 186.298 140.893 187.783 139.233 189.267L136.912 191.304H142.397V194.688H130.609V191.914L135.861 187.093C136.427 186.649 136.817 186.056 136.976 185.401Z" fill="white"/>
<path d="M151.994 181.339L148.414 188.957H149.88V186.39H154.393V188.957H156.105V192.098H154.393V194.687H149.88V192.098H143.46V189.244L147.351 181.339H151.994Z" fill="white"/>
<path d="M170.033 188.048V194.687H165.209V189.279C165.237 189.103 165.222 188.923 165.165 188.753C165.108 188.582 165.01 188.425 164.879 188.291C164.747 188.156 164.585 188.049 164.402 187.975C164.22 187.901 164.022 187.863 163.821 187.863C162.875 187.863 162.278 188.519 162.278 189.532V194.687H157.454V180.579H162.278V185.769C162.655 185.24 163.181 184.807 163.804 184.512C164.427 184.217 165.126 184.072 165.831 184.089C166.41 184.076 166.984 184.171 167.518 184.368C168.052 184.566 168.533 184.861 168.93 185.235C169.326 185.608 169.63 186.052 169.82 186.537C170.01 187.021 170.083 187.536 170.033 188.048Z" fill="white"/>
<path d="M327.344 294.976V437.959C327.347 439.576 326.87 441.165 325.96 442.567C325.051 443.968 323.741 445.132 322.163 445.942C320.586 446.751 318.796 447.178 316.973 447.179C315.151 447.179 313.36 446.754 311.782 445.945L224.995 401.48L209.615 393.608C204.318 390.891 199.918 386.988 196.855 382.288C193.792 377.589 192.172 372.259 192.159 366.83V223.836C192.156 222.219 192.633 220.63 193.543 219.228C194.452 217.827 195.762 216.663 197.34 215.853C198.917 215.044 200.707 214.617 202.53 214.616C204.352 214.616 206.143 215.041 207.721 215.85L309.914 268.198C315.213 270.911 319.613 274.814 322.673 279.515C325.732 284.216 327.344 289.548 327.344 294.976Z" fill="#C889E2"/>
<path opacity="0.5" d="M327.344 294.976V437.959C327.347 439.576 326.87 441.165 325.96 442.567C325.051 443.968 323.741 445.132 322.163 445.942C320.586 446.751 318.796 447.178 316.973 447.179C315.151 447.179 313.36 446.754 311.782 445.945L224.995 401.48L209.615 393.608C204.318 390.891 199.918 386.988 196.855 382.288C193.792 377.589 192.172 372.259 192.159 366.83V223.836C192.156 222.219 192.633 220.63 193.543 219.228C194.452 217.827 195.762 216.663 197.34 215.853C198.917 215.044 200.707 214.617 202.53 214.616C204.352 214.616 206.143 215.041 207.721 215.85L309.914 268.198C315.213 270.911 319.613 274.814 322.673 279.515C325.732 284.216 327.344 289.548 327.344 294.976Z" fill="white"/>
<path d="M277.35 379.581C277.35 379.581 293.6 403.493 281.863 430.456L224.957 401.48L277.35 379.581Z" fill="#263238"/>
<path d="M303.264 272.142C304.494 263.28 297.395 255.211 287.407 254.119C277.419 253.028 268.325 259.328 267.096 268.19C265.866 277.053 272.965 285.122 282.953 286.213C292.941 287.305 302.034 281.005 303.264 272.142Z" fill="#263238"/>
<path d="M285.274 224.814C285.274 224.814 290.863 216.759 292.575 217.346C294.287 217.933 291.46 225.608 291.46 225.608C291.46 225.608 299.916 227.173 298.346 229.061C296.777 230.948 286.441 230.499 286.441 230.499L285.274 224.814Z" fill="#263238"/>
<path d="M289.165 245.574C285.274 271.512 260.634 271.512 260.634 271.512L209.018 251.351C209.018 251.351 205.128 248.324 203.935 241.374C203.477 238.527 203.477 235.636 203.935 232.789C203.935 232.789 203.935 232.732 203.935 232.709C205.582 221.799 214.776 210.073 234.8 206.471C239.188 205.685 243.655 205.299 248.132 205.32C250.298 205.314 252.462 205.41 254.616 205.608C270.179 206.966 281.085 213.41 286.286 223.433C287.456 225.696 288.326 228.071 288.88 230.511C289.935 235.481 290.031 240.575 289.165 245.574Z" fill="#263238"/>
<path d="M165.248 295.748C165.248 295.748 146.924 295.184 139.869 311.03C139.869 311.03 147.65 315.69 157.856 311.03C168.063 306.369 165.248 295.748 165.248 295.748Z" fill="#C889E2"/>
<path opacity="0.5" d="M165.248 295.748C165.248 295.748 146.924 295.184 139.869 311.03C139.869 311.03 147.65 315.69 157.856 311.03C168.063 306.369 165.248 295.748 165.248 295.748Z" fill="black"/>
<path d="M164.73 303.377C164.73 303.377 159.542 283.377 156.806 283.135C154.07 282.894 153.538 289.234 153.758 292.813L147.274 280.431C147.068 280.046 146.776 279.703 146.415 279.422C146.054 279.141 145.632 278.929 145.175 278.799C144.718 278.668 144.236 278.622 143.759 278.664C143.281 278.705 142.818 278.832 142.398 279.038C135.913 282.203 124.54 291.823 148.519 315.61L164.73 303.377Z" fill="#945959"/>
<path d="M231.13 289.545L227.239 289.096C223.318 288.635 219.33 289.108 215.683 290.467C212.036 291.826 208.863 294.022 206.489 296.829L183.34 324.171L165.184 295.748C165.184 295.748 163.005 315.08 139.804 311.03L164.717 348.234C166.294 350.589 168.488 352.572 171.114 354.013C173.739 355.454 176.718 356.311 179.797 356.511C182.876 356.711 185.964 356.248 188.798 355.161C191.633 354.075 194.129 352.397 196.075 350.271L217.396 327.014L231.13 289.545Z" fill="#C889E2"/>
<path d="M280.54 353.355C275.352 365.024 274.782 367.302 277.946 373.136C280.15 377.445 281.887 381.931 283.134 386.531C283.134 386.531 259.09 410.444 224.865 401.491L209.484 393.62C206.286 391.983 203.405 389.901 200.951 387.452L205.633 356.473C205.868 354.843 205.682 353.186 205.088 351.629L200.173 338.844C197.774 332.599 197.418 325.88 199.143 319.463C200.869 313.046 204.607 307.194 209.925 302.583L226.447 288.256L269.841 293.181L276.325 294.827C280.57 295.916 284.23 298.328 286.631 301.62C289.033 304.912 290.015 308.862 289.397 312.744C287.271 326.323 283.795 346.024 280.54 353.355Z" fill="#C889E2"/>
<path opacity="0.5" d="M280.54 353.355C275.352 365.024 274.782 367.302 277.946 373.136C280.15 377.445 281.887 381.931 283.134 386.531C283.134 386.531 259.09 410.444 224.865 401.491L209.484 393.62C206.286 391.983 203.405 389.901 200.951 387.452L205.633 356.473C205.868 354.843 205.682 353.186 205.088 351.629L200.173 338.844C197.774 332.599 197.418 325.88 199.143 319.463C200.869 313.046 204.607 307.194 209.925 302.583L226.447 288.256L269.841 293.181L276.325 294.827C280.57 295.916 284.23 298.328 286.631 301.62C289.033 304.912 290.015 308.862 289.397 312.744C287.271 326.323 283.795 346.024 280.54 353.355Z" fill="black"/>
<path d="M254.369 318.498L245.68 311.927C244.76 311.229 243.65 310.755 242.461 310.553C241.271 310.351 240.043 310.428 238.898 310.776L228.393 313.987L226.979 308.763C226.759 307.95 226.355 307.185 225.792 306.514C225.229 305.844 224.519 305.281 223.705 304.861C222.891 304.44 221.989 304.171 221.054 304.068C220.119 303.965 219.17 304.032 218.264 304.263L213.712 305.414L221.416 292.318C223.931 288.053 227.805 284.539 232.556 282.214L235.578 280.741L260.542 281.892C260.542 281.892 269.841 285.345 269.841 293.112L254.369 318.429" fill="#C889E2"/>
<path d="M260.646 291.708L235.617 309.016V253.906H260.646V291.708Z" fill="#945959"/>
<path d="M236.006 287.163L228.393 314.033L260.542 291.708L236.006 287.163Z" fill="#945959"/>
<path d="M235.617 283.17C241.183 281.336 246.27 278.517 250.571 274.885C254.871 271.253 258.295 266.884 260.634 262.042V253.906H235.604L235.617 283.17Z" fill="#703838"/>
<path d="M241.011 213.065C231.518 213.065 211.339 217.76 209.004 239.809C206.67 261.858 208.927 278.935 221.74 280.592C234.553 282.249 264.329 273.998 268.323 245.459C272.318 216.92 250.258 213.065 241.011 213.065Z" fill="#945959"/>
<path d="M226.071 249.142V262.134L217.486 259.798L226.071 249.142Z" fill="#703838"/>
<path d="M235.616 254.032C237.263 254.032 238.599 252.847 238.599 251.386C238.599 249.924 237.263 248.739 235.616 248.739C233.969 248.739 232.633 249.924 232.633 251.386C232.633 252.847 233.969 254.032 235.616 254.032Z" fill="#263238"/>
<path d="M218.965 249.544C218.963 250.067 218.785 250.578 218.456 251.012C218.127 251.445 217.66 251.783 217.115 251.981C216.57 252.18 215.97 252.231 215.392 252.127C214.815 252.024 214.284 251.771 213.869 251.4C213.453 251.03 213.17 250.558 213.056 250.045C212.942 249.532 213.002 249 213.228 248.517C213.454 248.034 213.836 247.622 214.326 247.331C214.817 247.041 215.393 246.886 215.982 246.886C216.375 246.886 216.764 246.955 217.127 247.089C217.489 247.222 217.819 247.418 218.096 247.665C218.373 247.912 218.593 248.205 218.742 248.528C218.891 248.85 218.967 249.196 218.965 249.544Z" fill="#263238"/>
<path d="M212.338 244.021L218.174 240.948C218.174 240.948 215.943 238.888 213.712 240.119C211.482 241.351 212.338 244.021 212.338 244.021Z" fill="#263238"/>
<path d="M222.039 267.404C224.881 267.588 227.709 266.915 230.066 265.494C230.066 265.494 230.624 269.257 227.07 269.97C223.517 270.684 222.039 267.404 222.039 267.404Z" fill="#703838"/>
<path d="M216.942 220.568C216.942 220.568 220.508 251.006 267.157 251.961C267.157 251.961 281.254 221.707 253.397 211.88C225.54 202.052 216.942 220.568 216.942 220.568Z" fill="#263238"/>
<path d="M280.89 247.404L275.158 244.458C272.98 243.307 269.971 243.468 266.638 245.171C260.024 248.555 254.655 256.806 254.655 263.584C254.655 266.978 255.952 269.337 258.182 270.488L263.811 273.365L264.135 273.526L264.329 273.63C266.456 274.55 269.296 274.332 272.422 272.732C279.036 269.28 284.405 261.098 284.405 254.32C284.366 250.891 283.03 248.52 280.89 247.404Z" fill="#C889E2"/>
<path d="M280.845 264.737C285.522 257.548 285.522 249.779 280.845 247.383C276.168 244.987 268.586 248.872 263.908 256.06C259.231 263.248 259.231 271.018 263.908 273.414C268.585 275.81 276.168 271.925 280.845 264.737Z" fill="#C889E2"/>
<path opacity="0.5" d="M280.845 264.737C285.522 257.548 285.522 249.779 280.845 247.383C276.168 244.987 268.586 248.872 263.908 256.06C259.231 263.248 259.231 271.018 263.908 273.414C268.585 275.81 276.168 271.925 280.845 264.737Z" fill="black"/>
<path d="M283.186 253.791L279.295 251.777C277.817 250.994 275.755 251.098 273.472 252.26C271.088 253.643 269.104 255.504 267.68 257.693C266.256 259.882 265.432 262.337 265.276 264.861C265.276 267.162 266.197 268.808 267.688 269.568L271.579 271.535C271.648 271.58 271.722 271.619 271.799 271.65L271.929 271.72C272.841 272.026 273.824 272.13 274.791 272.022C275.759 271.914 276.682 271.596 277.479 271.098C279.862 269.717 281.845 267.857 283.269 265.67C284.693 263.484 285.517 261.03 285.676 258.509C285.572 256.173 284.664 254.55 283.186 253.791Z" fill="#C889E2"/>
<path d="M285.572 258.486C285.413 261.007 284.589 263.461 283.165 265.648C281.742 267.834 279.758 269.694 277.376 271.075C272.837 273.377 269.167 271.512 269.167 266.875C269.32 264.351 270.144 261.895 271.571 259.707C272.997 257.519 274.986 255.662 277.376 254.286C281.902 251.961 285.572 253.837 285.572 258.486Z" fill="#C889E2"/>
<path opacity="0.3" d="M285.572 258.486C285.413 261.007 284.589 263.461 283.165 265.648C281.742 267.834 279.758 269.694 277.376 271.075C272.837 273.377 269.167 271.512 269.167 266.875C269.32 264.351 270.144 261.895 271.571 259.707C272.997 257.519 274.986 255.662 277.376 254.286C281.902 251.961 285.572 253.837 285.572 258.486Z" fill="black"/>
<path d="M263.085 207.127C259.367 204.579 254.814 203.177 250.117 203.134H248.962C244.206 203.088 239.456 203.474 234.788 204.285C235.644 204.285 236.499 204.285 237.381 204.285H234.788V206.425H237.2C245.513 206.676 253.391 209.785 259.167 215.096C264.944 220.407 268.168 227.503 268.156 234.884V243.94C268.156 244.298 268.24 244.652 268.404 244.979C268.568 245.307 268.807 245.599 269.107 245.839C269.406 246.079 269.759 246.26 270.143 246.371C270.526 246.482 270.932 246.52 271.333 246.483H271.632L274.225 245.77C274.053 245.818 273.874 245.849 273.694 245.862C274.467 245.769 275.174 245.426 275.682 244.9C276.189 244.374 276.46 243.7 276.443 243.008V234.607C276.417 219.406 269.012 211.235 263.085 207.127Z" fill="#C889E2"/>
<path d="M246.757 279.959C245.687 279.959 244.63 279.755 243.657 279.361L235.552 276.035C235.425 275.995 235.309 275.932 235.211 275.85C235.113 275.768 235.036 275.668 234.983 275.558C234.931 275.448 234.905 275.33 234.907 275.21C234.909 275.091 234.939 274.973 234.994 274.864C235.05 274.756 235.131 274.658 235.231 274.579C235.332 274.499 235.45 274.439 235.578 274.402C235.706 274.365 235.841 274.352 235.975 274.363C236.109 274.375 236.239 274.411 236.356 274.47L244.461 277.796C245.495 278.222 246.653 278.352 247.774 278.166C248.894 277.98 249.922 277.489 250.712 276.76L258.494 269.625C258.676 269.464 258.923 269.373 259.181 269.373C259.439 269.373 259.686 269.464 259.868 269.625C260.047 269.788 260.148 270.007 260.148 270.235C260.148 270.463 260.047 270.682 259.868 270.845L252.087 277.98C251.394 278.611 250.565 279.111 249.649 279.452C248.734 279.792 247.75 279.964 246.757 279.959Z" fill="#C889E2"/>
<path opacity="0.5" d="M246.757 279.959C245.687 279.959 244.63 279.755 243.657 279.361L235.552 276.035C235.425 275.995 235.309 275.932 235.211 275.85C235.113 275.768 235.036 275.668 234.983 275.558C234.931 275.448 234.905 275.33 234.907 275.21C234.909 275.091 234.939 274.973 234.994 274.864C235.05 274.756 235.131 274.658 235.231 274.579C235.332 274.499 235.45 274.439 235.578 274.402C235.706 274.365 235.841 274.352 235.975 274.363C236.109 274.375 236.239 274.411 236.356 274.47L244.461 277.796C245.495 278.222 246.653 278.352 247.774 278.166C248.894 277.98 249.922 277.489 250.712 276.76L258.494 269.625C258.676 269.464 258.923 269.373 259.181 269.373C259.439 269.373 259.686 269.464 259.868 269.625C260.047 269.788 260.148 270.007 260.148 270.235C260.148 270.463 260.047 270.682 259.868 270.845L252.087 277.98C251.394 278.611 250.565 279.111 249.649 279.452C248.734 279.792 247.75 279.964 246.757 279.959Z" fill="black"/>
<path d="M237.679 273.618C237.679 274.283 237.457 274.933 237.04 275.485C236.624 276.038 236.033 276.468 235.341 276.723C234.649 276.977 233.888 277.044 233.153 276.914C232.418 276.784 231.744 276.464 231.214 275.994C230.685 275.524 230.324 274.926 230.178 274.274C230.032 273.622 230.107 272.946 230.393 272.332C230.68 271.718 231.165 271.194 231.788 270.824C232.411 270.455 233.143 270.258 233.892 270.258C234.896 270.258 235.859 270.612 236.57 271.242C237.28 271.872 237.679 272.727 237.679 273.618Z" fill="#C889E2"/>
<path opacity="0.5" d="M237.679 273.618C237.679 274.283 237.457 274.933 237.04 275.485C236.624 276.038 236.033 276.468 235.341 276.723C234.649 276.977 233.888 277.044 233.153 276.914C232.418 276.784 231.744 276.464 231.214 275.994C230.685 275.524 230.324 274.926 230.178 274.274C230.032 273.622 230.107 272.946 230.393 272.332C230.68 271.718 231.165 271.194 231.788 270.824C232.411 270.455 233.143 270.258 233.892 270.258C234.896 270.258 235.859 270.612 236.57 271.242C237.28 271.872 237.679 272.727 237.679 273.618Z" fill="black"/>
<path d="M276.417 234.607V243.008C276.433 243.7 276.162 244.374 275.655 244.9C275.148 245.426 274.441 245.769 273.667 245.862C273.24 245.902 272.808 245.862 272.4 245.745C271.991 245.627 271.615 245.435 271.295 245.179C270.976 244.924 270.721 244.612 270.546 244.264C270.372 243.916 270.282 243.539 270.283 243.157V234.607C270.29 230.527 269.367 226.487 267.569 222.731C265.771 218.975 263.135 215.581 259.82 212.752C256.506 209.924 252.58 207.72 248.28 206.272C243.981 204.825 239.395 204.165 234.8 204.331C239.469 203.52 244.218 203.134 248.975 203.18H250.103C254.801 203.223 259.354 204.625 263.072 207.173C269.012 211.235 276.417 219.406 276.417 234.607Z" fill="#C889E2"/>
<path opacity="0.5" d="M276.417 234.607V243.008C276.433 243.7 276.162 244.374 275.655 244.9C275.148 245.426 274.441 245.769 273.667 245.862C273.24 245.902 272.808 245.862 272.4 245.745C271.991 245.627 271.615 245.435 271.295 245.179C270.976 244.924 270.721 244.612 270.546 244.264C270.372 243.916 270.282 243.539 270.283 243.157V234.607C270.29 230.527 269.367 226.487 267.569 222.731C265.771 218.975 263.135 215.581 259.82 212.752C256.506 209.924 252.58 207.72 248.28 206.272C243.981 204.825 239.395 204.165 234.8 204.331C239.469 203.52 244.218 203.134 248.975 203.18H250.103C254.801 203.223 259.354 204.625 263.072 207.173C269.012 211.235 276.417 219.406 276.417 234.607Z" fill="black"/>
<path d="M261.84 392.918C261.84 392.918 255.563 408.258 277.999 415.162C277.999 415.162 285.326 405.611 277.999 397.797C270.671 389.984 261.84 392.918 261.84 392.918Z" fill="#C889E2"/>
<path opacity="0.7" d="M261.84 392.918C261.84 392.918 255.563 408.258 277.999 415.162C277.999 415.162 285.326 405.611 277.999 397.797C270.671 389.984 261.84 392.918 261.84 392.918Z" fill="black"/>
<path d="M269.712 393.62C269.712 393.62 247.795 400.743 247.911 403.505C248.028 406.267 257.223 404.38 257.223 404.38L253.864 406.336C250.327 408.384 247.587 411.349 246.018 414.829C245.676 415.596 245.664 416.448 245.984 417.223C246.305 417.997 246.935 418.64 247.756 419.029L256.082 422.942C256.552 423.163 257.067 423.298 257.597 423.34C258.128 423.381 258.662 423.328 259.168 423.183C259.675 423.038 260.144 422.805 260.547 422.497C260.95 422.188 261.279 421.811 261.516 421.388C261.98 420.574 262.621 419.85 263.402 419.258C264.184 418.665 265.089 418.216 266.068 417.936C270.594 416.601 279.036 412.757 282.421 402.239L269.712 393.62Z" fill="#945959"/>
<path d="M276.286 294.804C276.286 294.804 264.615 300.558 270.814 318.026C277.013 335.495 288.646 362.595 288.646 362.595L261.839 392.918C264.703 393.225 267.462 394.064 269.936 395.38C272.41 396.697 274.543 398.462 276.196 400.559C277.779 402.692 278.769 405.129 279.082 407.668C279.395 410.207 279.024 412.776 277.998 415.162L311.276 377.187C314.353 373.678 316.397 369.543 317.221 365.157C318.045 360.771 317.624 356.272 315.997 352.066L301.731 315.103C299.987 310.588 297.09 306.493 293.265 303.137C289.44 299.781 284.792 297.256 279.684 295.759L276.286 294.804Z" fill="#C889E2"/>
<path d="M77.5837 189.475L24.2866 166.67C23.669 166.347 22.9681 166.168 22.2471 166.148C21.5262 166.128 20.8079 166.268 20.1574 166.555C20.0208 166.623 19.8914 166.701 19.7708 166.79L8.98722 173.392L9.06484 173.387C7.70446 174.197 6.9274 175.913 7.09276 178.278L10.6441 229.063C10.9443 233.357 14.2302 238.145 17.9956 239.751L71.2927 262.556C71.9748 262.929 72.7686 263.115 73.5757 263.089C74.3828 263.063 75.1676 262.828 75.8327 262.411C75.7986 262.426 75.7689 262.448 75.7461 262.475L86.4577 255.958C87.8585 255.168 88.6599 253.428 88.4921 251.029L84.9352 200.163C84.635 195.869 81.4008 191.077 77.5837 189.475Z" fill="#C889E2"/>
<path d="M82.6549 193.954C81.4766 192.062 79.7198 190.511 77.5836 189.475L24.2865 166.67C23.6689 166.347 22.968 166.168 22.247 166.148C21.5261 166.127 20.8079 166.267 20.1573 166.555C20.0207 166.622 19.8913 166.701 19.7707 166.79L8.98713 173.392C9.64996 173.034 10.4079 172.843 11.1781 172.84C11.9483 172.837 12.7011 173.022 13.3541 173.375L66.6512 196.181C68.8609 197.264 70.666 198.891 71.8542 200.869L82.6549 193.954Z" fill="#C889E2"/>
<path d="M77.5525 257.631C77.7131 259.927 76.9967 261.58 75.739 262.372L86.4506 255.855C87.8514 255.065 88.6527 253.324 88.485 250.925L84.9353 200.162C84.7261 197.957 83.9458 195.832 82.6551 193.954L71.8544 200.869C73.0655 202.695 73.7994 204.744 74.0029 206.868L77.5525 257.631Z" fill="#C889E2"/>
<path opacity="0.3" d="M82.6549 193.954C81.4766 192.062 79.7198 190.511 77.5836 189.475L24.2865 166.67C23.6689 166.347 22.968 166.168 22.247 166.148C21.5261 166.127 20.8079 166.267 20.1573 166.555C20.0207 166.622 19.8913 166.701 19.7707 166.79L8.98713 173.392C9.64996 173.034 10.4079 172.843 11.1781 172.84C11.9483 172.837 12.7011 173.022 13.3541 173.375L66.6512 196.181C68.8609 197.264 70.666 198.891 71.8542 200.869L82.6549 193.954Z" fill="black"/>
<path opacity="0.6" d="M77.5525 257.631C77.7131 259.927 76.9967 261.58 75.739 262.372L86.4506 255.855C87.8514 255.065 88.6527 253.324 88.485 250.925L84.9353 200.162C84.7261 197.957 83.9458 195.832 82.6551 193.954L71.8544 200.869C73.0655 202.695 73.7994 204.744 74.0029 206.868L77.5525 257.631Z" fill="black"/>
<path d="M59.9355 222.467C60.3955 229.045 57.6153 231.489 53.0586 229.535C51.8023 229.007 50.6836 228.257 49.7698 227.329C48.8559 226.402 48.1659 225.317 47.7411 224.139C46.5461 225.641 44.5473 225.874 41.6259 224.624C36.8282 222.572 32.7842 217.168 32.3997 211.669C32.0152 206.17 35.4922 204.024 40.3295 206.085C42.786 207.158 44.8277 208.847 46.2075 210.946L46.0558 208.776L51.1081 210.937L51.9397 222.83C51.9108 223.461 52.077 224.084 52.4201 224.632C52.7632 225.179 53.2701 225.63 53.8859 225.936C55.5883 226.67 56.4971 225.165 56.1993 220.906C55.6783 213.456 49.7442 205.934 41.5029 202.415C33.2616 198.896 28.091 202.107 28.6272 209.775C29.016 213.837 30.5578 217.728 33.109 221.086C35.6602 224.443 39.1377 227.158 43.2173 228.977C45.4345 229.995 47.9076 230.511 50.4206 230.481L51.849 234.361C48.92 234.356 46.0462 233.73 43.4661 232.536C32.7448 227.945 25.1529 217.724 24.4754 208.035C23.7979 198.347 30.4607 194.351 41.2621 198.971C51.7005 203.421 59.2918 213.261 59.9355 222.467ZM46.7676 217.839C46.691 216.382 46.1902 214.973 45.3141 213.751C44.438 212.528 43.2165 211.534 41.7687 210.864C39.0873 209.702 37.3031 210.772 37.5215 213.895C37.5902 215.355 38.0818 216.769 38.949 217.999C39.8161 219.23 41.0294 220.236 42.4719 220.92C45.15 222.036 46.9931 221.065 46.7676 217.839Z" fill="#C889E2"/>
<g opacity="0.9">
<path d="M59.9355 222.467C60.3955 229.045 57.6153 231.489 53.0586 229.535C51.8023 229.007 50.6836 228.257 49.7698 227.329C48.8559 226.402 48.1659 225.317 47.7411 224.139C46.5461 225.641 44.5473 225.874 41.6259 224.624C36.8282 222.572 32.7842 217.168 32.3997 211.669C32.0152 206.17 35.4922 204.024 40.3295 206.085C42.786 207.158 44.8277 208.847 46.2075 210.946L46.0558 208.776L51.1081 210.937L51.9397 222.83C51.9108 223.461 52.077 224.084 52.4201 224.632C52.7632 225.179 53.2701 225.63 53.8859 225.936C55.5883 226.67 56.4971 225.165 56.1993 220.906C55.6783 213.456 49.7442 205.934 41.5029 202.415C33.2616 198.896 28.091 202.107 28.6272 209.775C29.016 213.837 30.5578 217.728 33.109 221.086C35.6602 224.443 39.1377 227.158 43.2173 228.977C45.4345 229.995 47.9076 230.511 50.4206 230.481L51.849 234.361C48.92 234.356 46.0462 233.73 43.4661 232.536C32.7448 227.945 25.1529 217.724 24.4754 208.035C23.7979 198.347 30.4607 194.351 41.2621 198.971C51.7005 203.421 59.2918 213.261 59.9355 222.467ZM46.7676 217.839C46.691 216.382 46.1902 214.973 45.3141 213.751C44.438 212.528 43.2165 211.534 41.7687 210.864C39.0873 209.702 37.3031 210.772 37.5215 213.895C37.5902 215.355 38.0818 216.769 38.949 217.999C39.8161 219.23 41.0294 220.236 42.4719 220.92C45.15 222.036 46.9931 221.065 46.7676 217.839Z" fill="white"/>
</g>
<path d="M83.9073 279.912L30.6102 257.106C29.9933 256.782 29.2915 256.602 28.5698 256.584C27.8482 256.566 27.13 256.71 26.4819 257.003C26.3452 257.07 26.2158 257.149 26.0953 257.238L15.3117 263.84L15.3893 263.835C14.0289 264.645 13.2519 266.361 13.4164 268.714L16.9661 319.477C17.2671 323.782 20.5522 328.558 24.3176 330.164L77.6147 352.969C78.2956 353.346 79.09 353.533 79.8979 353.507C80.7057 353.481 81.4909 353.244 82.1547 352.825L82.069 352.9L92.7766 346.326C94.1782 345.547 94.9835 343.864 94.8109 341.396L91.258 290.587C90.9578 286.294 87.7244 281.514 83.9073 279.912Z" fill="#C889E2"/>
<path d="M88.9786 284.39C87.8037 282.497 86.046 280.944 83.9073 279.912L30.6101 257.106C29.9933 256.781 29.2914 256.602 28.5698 256.584C27.8481 256.565 27.1299 256.71 26.4818 257.003C26.3452 257.07 26.2157 257.149 26.0952 257.237L15.3116 263.84C15.9727 263.479 16.73 263.285 17.5004 263.28C18.2707 263.275 19.0242 263.459 19.6777 263.812L72.9748 286.617C75.188 287.702 76.994 289.333 78.1786 291.317L88.9786 284.39Z" fill="#C889E2"/>
<path d="M83.876 348.055C84.0365 350.351 83.3201 352.005 82.0664 352.854L92.774 346.28C94.1756 345.501 94.981 343.818 94.8084 341.35L91.2587 290.587C91.0496 288.385 90.2695 286.264 88.9793 284.39L78.1786 291.306C79.3892 293.127 80.1229 295.173 80.3263 297.293L83.876 348.055Z" fill="#C889E2"/>
<path opacity="0.3" d="M88.9786 284.39C87.8037 282.497 86.046 280.944 83.9073 279.912L30.6101 257.106C29.9933 256.781 29.2914 256.602 28.5698 256.584C27.8481 256.565 27.1299 256.71 26.4818 257.003C26.3452 257.07 26.2157 257.149 26.0952 257.237L15.3116 263.84C15.9727 263.479 16.73 263.285 17.5004 263.28C18.2707 263.275 19.0242 263.459 19.6777 263.812L72.9748 286.617C75.188 287.702 76.994 289.333 78.1786 291.317L88.9786 284.39Z" fill="black"/>
<path opacity="0.6" d="M83.876 348.055C84.0365 350.351 83.3201 352.005 82.0664 352.854L92.774 346.28C94.1756 345.501 94.981 343.818 94.8084 341.35L91.2587 290.587C91.0496 288.385 90.2695 286.264 88.9793 284.39L78.1786 291.306C79.3892 293.127 80.1229 295.173 80.3263 297.293L83.876 348.055Z" fill="black"/>
<path d="M42.6725 305.601L29.0151 288.583L30.7097 312.817L42.6725 305.601Z" fill="#C889E2"/>
<path d="M54.5603 309.95L68.2712 328.106L66.579 303.906L54.5603 309.95Z" fill="#C889E2"/>
<path d="M30.8345 287.637L44.8619 305.114C44.9186 305.15 44.9697 305.193 45.0138 305.241C45.0282 305.286 45.0315 305.333 45.0235 305.379L49.1961 310.578L52.3106 309.011C52.3572 308.959 52.4107 308.913 52.47 308.873C52.5918 308.798 52.7306 308.749 52.8759 308.729L65.4365 302.44L30.8345 287.637Z" fill="#C889E2"/>
<path d="M52.7393 310.861L49.3733 312.55C49.2435 312.615 49.0995 312.653 48.952 312.661C48.7735 312.675 48.5947 312.648 48.433 312.582C48.2712 312.517 48.132 312.415 48.0288 312.287L43.8561 307.087L31.857 314.34L66.5504 329.149L52.7393 310.861Z" fill="#C889E2"/>
<g opacity="0.9">
<path d="M42.673 305.601L29.0156 288.583L30.7102 312.817L42.673 305.601Z" fill="white"/>
<path d="M54.5603 309.95L68.2712 328.106L66.579 303.906L54.5603 309.95Z" fill="white"/>
<path d="M30.835 287.637L44.8624 305.114C44.9191 305.15 44.9702 305.193 45.0143 305.241C45.0287 305.286 45.032 305.333 45.0239 305.379L49.1966 310.578L52.3111 309.011C52.3577 308.959 52.4112 308.913 52.4704 308.873C52.5923 308.798 52.7311 308.749 52.8764 308.729L65.437 302.44L30.835 287.637Z" fill="white"/>
<path d="M52.7393 310.861L49.3733 312.55C49.2435 312.615 49.0995 312.652 48.952 312.66C48.7735 312.675 48.5947 312.648 48.433 312.582C48.2712 312.517 48.132 312.415 48.0288 312.286L43.8561 307.087L31.857 314.34L66.5504 329.149L52.7393 310.861Z" fill="white"/>
</g>
<path d="M71.2628 99.0848L17.9657 76.2795C17.3488 75.9547 16.647 75.7749 15.9253 75.7568C15.2036 75.7387 14.4854 75.8829 13.8373 76.176C13.7007 76.2434 13.5713 76.322 13.4507 76.4107L2.66714 83.0133L2.74476 83.0079C1.38358 83.8068 0.607322 85.5337 0.771882 87.8871L4.32157 138.65C4.62179 142.943 7.9077 147.732 11.6731 149.337L64.9702 172.142C65.6511 172.519 66.4455 172.706 67.2533 172.68C68.0612 172.654 68.8464 172.417 69.5102 171.998L69.4236 172.062L80.1352 165.545C81.5368 164.766 82.3422 163.083 82.1696 160.615L78.6111 109.726C78.3109 105.433 75.0767 100.641 71.2628 99.0848Z" fill="#C889E2"/>
<path d="M76.3311 103.529C75.1563 101.632 73.3986 100.076 71.259 99.039L17.9651 76.2796C17.3482 75.9548 16.6464 75.775 15.9247 75.7569C15.203 75.7388 14.4849 75.883 13.8368 76.1761C13.7001 76.2435 13.5707 76.3221 13.4502 76.4107L2.66657 83.0134C3.32764 82.6523 4.08502 82.4585 4.85536 82.4535C5.62571 82.4485 6.37913 82.6324 7.0327 82.985L60.3298 105.79C62.543 106.875 64.349 108.506 65.5336 110.491L76.3311 103.529Z" fill="#C889E2"/>
<path d="M71.2258 167.148C71.3863 169.444 70.6699 171.098 69.4122 171.89L80.1238 165.373C81.5254 164.594 82.3308 162.911 82.1582 160.443L78.6117 109.726C78.4026 107.524 77.6226 105.403 76.3323 103.529L65.5316 110.445C66.7422 112.266 67.4759 114.311 67.6793 116.432L71.2258 167.148Z" fill="#C889E2"/>
<path opacity="0.3" d="M76.3311 103.529C75.1563 101.632 73.3986 100.076 71.259 99.039L17.9651 76.2796C17.3482 75.9548 16.6464 75.775 15.9247 75.7569C15.203 75.7388 14.4849 75.883 13.8368 76.1761C13.7001 76.2435 13.5707 76.3221 13.4502 76.4107L2.66657 83.0134C3.32764 82.6523 4.08502 82.4585 4.85536 82.4535C5.62571 82.4485 6.37913 82.6324 7.0327 82.985L60.3298 105.79C62.543 106.875 64.349 108.506 65.5336 110.491L76.3311 103.529Z" fill="black"/>
<path opacity="0.6" d="M71.2258 167.148C71.3863 169.444 70.6699 171.098 69.4122 171.89L80.1238 165.373C81.5254 164.594 82.3308 162.911 82.1582 160.443L78.6117 109.726C78.4026 107.524 77.6226 105.403 76.3323 103.529L65.5316 110.445C66.7422 112.266 67.4759 114.311 67.6793 116.432L71.2258 167.148Z" fill="black"/>
<path d="M52.869 146.514C50.6873 143.76 48.4959 141.052 46.3126 138.274C45.9601 137.744 45.487 137.286 44.9229 136.928C44.3588 136.571 43.7159 136.322 43.0343 136.197C42.0649 136.091 41.0939 135.963 40.093 135.779C39.7338 135.674 39.4235 135.47 39.2071 135.195C35.6242 130.503 32.6828 125.443 30.4437 120.119C30.396 120.006 30.3763 119.884 30.3857 119.762C30.3951 119.64 30.4334 119.521 30.4982 119.412C31.0686 118.83 31.7197 118.288 32.307 117.763C32.8942 117.237 33.1398 116.101 32.5859 114.686C31.4142 111.688 30.2813 108.687 29.1105 105.701C28.8645 104.846 28.3685 104.068 27.6722 103.444C26.9759 102.82 26.1039 102.374 25.1439 102.148C23.0217 101.779 20.8119 102.006 18.8192 102.798C18.0485 103.117 17.6787 103.778 17.742 104.869C18.2253 106.946 18.5905 109.009 19.1926 111.112C23.4605 126.287 32.1265 139.909 45.1907 151.977C45.5382 152.383 45.9896 152.709 46.5086 152.929C47.0275 153.15 47.5996 153.257 48.1785 153.244C50.1888 153.061 52.0768 152.264 53.52 150.99C54.6072 149.992 54.3768 148.37 52.869 146.514Z" fill="#C889E2"/>
<path d="M51.6201 130.878C51.1186 127.595 49.8679 124.448 47.9443 121.63C46.501 119.424 44.7198 117.41 42.6506 115.644C42.1108 115.174 41.6726 115.043 41.4403 115.44C41.2081 115.837 41.5046 116.358 42.0307 116.818L42.5714 117.299C46.4033 120.711 48.9737 125.085 49.9494 129.853C49.9676 130.204 50.0312 130.552 50.1389 130.889C50.329 131.273 50.6149 131.612 50.9752 131.881C51.2589 132.034 51.5574 131.84 51.7773 131.825C51.6668 131.359 51.6629 131.117 51.6201 130.878Z" fill="#C889E2"/>
<path d="M39.2389 122.273C40.9743 123.745 42.1026 125.694 42.4476 127.816C42.5555 128.135 42.7123 128.439 42.9137 128.718C43.743 129.237 44.1174 129.015 44.0669 128.292C43.5987 125.572 42.1417 123.078 39.917 121.187C39.3941 120.774 38.9834 120.664 38.777 121.059C38.7084 121.282 38.7157 121.516 38.7979 121.732C38.8802 121.948 39.0338 122.137 39.2389 122.273Z" fill="#C889E2"/>
<g opacity="0.9">
<path d="M57.5233 145.493C54.9996 142.842 52.4663 140.239 49.9402 137.566C49.5301 137.052 48.9865 136.616 48.3433 136.286C47.7001 135.955 46.9711 135.737 46.2019 135.644C45.1099 135.585 44.0154 135.504 42.8859 135.368C42.4795 135.28 42.1255 135.09 41.8752 134.826C37.7262 130.304 34.2885 125.384 31.6329 120.166C31.5763 120.055 31.5509 119.934 31.5583 119.811C31.5656 119.689 31.6056 119.568 31.6756 119.456C32.3012 118.846 33.0187 118.273 33.6648 117.719C34.3109 117.165 34.5571 116.017 33.8976 114.629C32.5024 111.686 31.1508 108.738 29.7568 105.807C29.4581 104.964 28.8803 104.209 28.0815 103.619C27.2828 103.028 26.2912 102.623 25.2067 102.444C22.8123 102.176 20.3352 102.51 18.1168 103.397C17.2591 103.753 16.8609 104.432 16.9606 105.52C17.5581 107.575 18.0225 109.621 18.7542 111.696C23.9477 126.671 34.0425 139.881 49.0386 151.326C49.4397 151.715 49.9555 152.02 50.5444 152.215C51.1334 152.411 51.7789 152.491 52.4291 152.45C54.6833 152.171 56.7839 151.283 58.3722 149.94C59.5676 148.888 59.2662 147.277 57.5233 145.493Z" fill="white"/>
<path d="M55.7102 129.912C55.0606 126.652 53.5727 123.565 51.3374 120.837C49.6578 118.7 47.6034 116.77 45.2321 115.103C44.6131 114.659 44.1174 114.549 43.8668 114.958C43.6162 115.366 43.963 115.873 44.5662 116.307L45.1864 116.763C49.5817 119.993 52.5846 124.244 53.8059 128.967C53.8356 129.318 53.9162 129.662 54.046 129.995C54.2697 130.369 54.5998 130.694 55.0118 130.946C55.3346 131.086 55.6649 130.877 55.9116 130.852C55.7752 130.391 55.7645 130.15 55.7102 129.912Z" fill="white"/>
<path d="M41.5725 121.899C43.5612 123.288 44.8801 125.183 45.3234 127.29C45.453 127.604 45.6371 127.9 45.8707 128.17C46.8162 128.649 47.2311 128.408 47.1554 127.687C46.5581 124.99 44.8554 122.565 42.3061 120.78C41.7076 120.392 41.2433 120.302 41.0217 120.707C40.9504 120.932 40.9648 121.166 41.0629 121.379C41.161 121.591 41.3385 121.772 41.5725 121.899Z" fill="white"/>
</g>
<path d="M65.3565 5.89799L77.5081 12.0316V8.21103C77.5081 7.94635 77.5081 7.67017 77.5081 7.40549C77.5081 7.14081 77.5081 6.88764 77.5081 6.63448V6.49639C77.9491 1.44453 82.2676 -0.500261 87.5329 2.20403C89.9167 3.50502 91.9595 5.24315 93.5245 7.30192C94.7046 0.397336 101.02 -2.04228 108.659 1.85881C117.14 6.2087 124.014 16.8187 124.014 25.4725V33.6429C124.002 34.2965 124.183 34.9414 124.541 35.513C124.898 36.0846 125.419 36.5627 126.05 36.8996L133.209 40.6165C134.754 41.4294 136.034 42.5841 136.925 43.9679C137.817 45.3517 138.288 46.917 138.292 48.5108C138.293 49.172 138.096 49.8216 137.724 50.3941C137.351 50.9667 136.815 51.442 136.169 51.7722C135.524 52.1023 134.791 52.2758 134.046 52.2749C133.301 52.2741 132.569 52.0991 131.925 51.7674L65.538 17.7163C63.7769 16.8088 62.314 15.5081 61.2948 13.9435C60.2756 12.379 59.7354 10.605 59.728 8.79791C59.7274 8.21296 59.9001 7.63814 60.2287 7.13106C60.5573 6.62398 61.0304 6.20245 61.6005 5.90872C62.1706 5.615 62.8176 5.4594 63.4768 5.45752C64.136 5.45563 64.7843 5.60753 65.3565 5.89799Z" fill="#E6E6E6"/>
<path d="M157.992 4.29844L166.824 8.79793V5.99006C166.824 5.79443 166.824 5.5988 166.824 5.40317C166.824 5.20754 166.824 5.02342 166.824 4.8393V4.77025C167.148 1.09931 170.286 -0.316126 174.112 1.65168C175.844 2.59361 177.33 3.85302 178.469 5.34563C179.338 0.351317 183.929 -1.45538 189.48 1.38701C195.653 4.55161 200.646 12.2387 200.646 18.5564V24.5059C200.651 24.9722 200.792 25.4296 201.055 25.833C201.319 26.2365 201.696 26.5722 202.15 26.8074L207.338 29.5117C208.466 30.1007 209.402 30.9419 210.05 31.9514C210.699 32.9609 211.038 34.1035 211.034 35.2655C211.033 35.7414 210.892 36.2089 210.626 36.622C210.359 37.035 209.976 37.3793 209.514 37.6209C209.052 37.8625 208.527 37.9931 207.991 37.9998C207.454 38.0065 206.925 37.8891 206.456 37.6591L158.122 12.8947C156.841 12.2372 155.777 11.2926 155.038 10.1555C154.298 9.01841 153.908 7.72878 153.907 6.41585C153.906 5.99091 154.031 5.5732 154.269 5.20444C154.507 4.83569 154.849 4.52882 155.263 4.31449C155.676 4.10016 156.146 3.98587 156.625 3.98306C157.104 3.98024 157.575 4.08899 157.992 4.29844Z" fill="#E6E6E6"/>
</svg>
