<svg width="1381" height="923" viewBox="0 0 1381 923" fill="none" xmlns="http://www.w3.org/2000/svg">
<g filter="url(#filter0_d_96_820)">
<g clip-path="url(#clip0_96_820)">
<rect x="5" y="1" width="1371" height="913" rx="80" fill="#3D2960"/>
<path d="M5 1H525C525 1 379.023 294.27 381 480C382.871 655.715 525 914 525 914H5V1Z" fill="url(#paint0_linear_96_820)"/>
<ellipse cx="99.5259" cy="889.366" rx="243.5" ry="156" transform="rotate(44 99.5259 889.366)" fill="url(#paint1_linear_96_820)"/>
<g filter="url(#filter1_f_96_820)">
<ellipse cx="334.03" cy="-52.9801" rx="196.935" ry="156" transform="rotate(44 334.03 -52.9801)" fill="url(#paint2_linear_96_820)"/>
</g>
</g>
<rect x="5.15" y="1.15" width="1370.7" height="912.7" rx="79.85" stroke="black" stroke-width="0.3"/>
</g>
<defs>
<filter id="filter0_d_96_820" x="0" y="0" width="1381" height="923" filterUnits="userSpaceOnUse" color-interpolation-filters="sRGB">
<feFlood flood-opacity="0" result="BackgroundImageFix"/>
<feColorMatrix in="SourceAlpha" type="matrix" values="0 0 0 0 0 0 0 0 0 0 0 0 0 0 0 0 0 0 127 0" result="hardAlpha"/>
<feOffset dy="4"/>
<feGaussianBlur stdDeviation="2.5"/>
<feComposite in2="hardAlpha" operator="out"/>
<feColorMatrix type="matrix" values="0 0 0 0 0 0 0 0 0 0 0 0 0 0 0 0 0 0 0.25 0"/>
<feBlend mode="normal" in2="BackgroundImageFix" result="effect1_dropShadow_96_820"/>
<feBlend mode="normal" in="SourceGraphic" in2="effect1_dropShadow_96_820" result="shape"/>
</filter>
<filter id="filter1_f_96_820" x="150.662" y="-234.925" width="366.736" height="363.89" filterUnits="userSpaceOnUse" color-interpolation-filters="sRGB">
<feFlood flood-opacity="0" result="BackgroundImageFix"/>
<feBlend mode="normal" in="SourceGraphic" in2="BackgroundImageFix" result="shape"/>
<feGaussianBlur stdDeviation="2.5" result="effect1_foregroundBlur_96_820"/>
</filter>
<linearGradient id="paint0_linear_96_820" x1="37" y1="0.999994" x2="450.5" y2="679.5" gradientUnits="userSpaceOnUse">
<stop stop-color="#C889E2"/>
<stop offset="1" stop-color="#4B0082"/>
</linearGradient>
<linearGradient id="paint1_linear_96_820" x1="-143.974" y1="889.366" x2="343.026" y2="889.366" gradientUnits="userSpaceOnUse">
<stop stop-color="#9400D3"/>
<stop offset="1" stop-color="#4B0082"/>
</linearGradient>
<linearGradient id="paint2_linear_96_820" x1="293.872" y1="118.533" x2="601.014" y2="-359.487" gradientUnits="userSpaceOnUse">
<stop stop-color="#9400D3"/>
<stop offset="1" stop-color="#4B0082"/>
</linearGradient>
<clipPath id="clip0_96_820">
<rect x="5" y="1" width="1371" height="913" rx="80" fill="white"/>
</clipPath>
</defs>
</svg>
