<svg width="187" height="189" viewBox="0 0 187 189" fill="none" xmlns="http://www.w3.org/2000/svg">
<rect width="187" height="189" rx="40" fill="#551F64"/>
<path d="M158.091 109.639L161.091 104.985L159.614 104.104C159.401 103.977 159.23 103.794 159.119 103.578C159.009 103.362 158.963 103.12 158.987 102.881C159.01 102.61 159.017 102.335 159.013 102.061C159.006 101.821 159.069 101.583 159.193 101.375C159.317 101.167 159.499 100.996 159.719 100.88L161.253 100.09L158.563 95.2664L157.029 96.0571C156.809 96.169 156.56 96.2202 156.311 96.2049C156.063 96.1896 155.823 96.1085 155.619 95.9704C155.386 95.8133 155.144 95.6686 154.895 95.5372C154.674 95.4237 154.49 95.2531 154.364 95.0445C154.238 94.836 154.175 94.5977 154.182 94.3566L154.239 92.6814L148.556 92.5117L148.504 94.1941C148.492 94.4347 148.412 94.6676 148.272 94.867C148.131 95.0664 147.936 95.2246 147.709 95.3242C147.585 95.3819 147.457 95.4433 147.334 95.5083C147.21 95.5733 147.086 95.6383 146.958 95.7069C146.745 95.8319 146.501 95.898 146.251 95.898C146.002 95.898 145.757 95.8319 145.544 95.7069L144.044 94.8187L141.043 99.4688L142.525 100.353C142.737 100.481 142.908 100.663 143.019 100.88C143.13 101.096 143.176 101.337 143.151 101.577C143.126 101.848 143.117 102.121 143.125 102.393C143.131 102.634 143.068 102.871 142.943 103.08C142.818 103.288 142.636 103.459 142.416 103.574L140.882 104.364L143.571 109.191L145.106 108.397C145.326 108.285 145.575 108.234 145.823 108.249C146.072 108.265 146.312 108.346 146.516 108.484C146.748 108.639 146.988 108.783 147.236 108.913C147.458 109.027 147.642 109.197 147.768 109.406C147.895 109.614 147.959 109.853 147.952 110.094L147.896 111.773L153.582 111.942L153.635 110.264C153.646 110.023 153.725 109.791 153.865 109.591C154.005 109.392 154.199 109.233 154.426 109.134L154.801 108.953C154.925 108.888 155.045 108.82 155.176 108.751C155.39 108.625 155.635 108.559 155.885 108.559C156.135 108.559 156.381 108.625 156.594 108.751L158.091 109.639ZM153.278 106.184C152.466 106.603 151.543 106.78 150.626 106.693C149.709 106.607 148.839 106.261 148.127 105.698C147.414 105.136 146.891 104.383 146.623 103.534C146.355 102.686 146.355 101.78 146.622 100.931C146.889 100.082 147.411 99.3288 148.123 98.7658C148.835 98.2029 149.704 97.8558 150.621 97.7684C151.538 97.6811 152.461 97.8574 153.274 98.2751C154.087 98.6928 154.753 99.3331 155.188 100.115C155.477 100.634 155.657 101.203 155.717 101.789C155.778 102.375 155.718 102.967 155.54 103.531C155.363 104.094 155.072 104.619 154.684 105.074C154.296 105.529 153.818 105.907 153.278 106.184Z" fill="#EBEBEB"/>
<path d="M38.5239 128.663L42.541 122.334V122.402L40.4406 121.146C40.0854 120.905 39.8282 120.553 39.7129 120.149C39.6371 119.751 39.6194 119.343 39.6604 118.94V118.348C39.6574 118.032 39.7377 117.722 39.8938 117.444C40.05 117.167 40.2769 116.933 40.5531 116.763L42.736 115.626L42.6948 115.759L39.0491 109.232L39.2141 109.279L37.0236 110.412C36.7195 110.543 36.3858 110.597 36.0539 110.57C35.722 110.543 35.4026 110.435 35.1258 110.257L34.6006 109.954L34.0755 109.643C33.785 109.484 33.5411 109.256 33.3667 108.982C33.1922 108.707 33.0929 108.394 33.0778 108.073L33.1491 105.679L33.2879 105.824L25.5838 105.621L25.7526 105.47L25.6776 107.863C25.6413 108.191 25.519 108.505 25.3222 108.774C25.1253 109.044 24.8604 109.261 24.5524 109.405L24.0047 109.672L23.4721 109.965C23.1774 110.132 22.843 110.224 22.5009 110.231C22.1588 110.239 21.8204 110.162 21.518 110.008L19.3951 108.755L19.6539 108.697L15.5918 114.979L15.5355 114.752L17.6435 116.026C17.9185 116.217 18.1383 116.471 18.2821 116.767C18.4259 117.062 18.4888 117.387 18.4649 117.712L18.4424 118.305V118.897C18.4427 119.222 18.3576 119.541 18.195 119.826C18.0323 120.111 17.7974 120.351 17.5122 120.525L15.318 121.655L15.378 121.464L18.9862 128.005L18.8137 127.955L21.0116 126.832C21.4174 126.658 21.8729 126.624 22.3019 126.735C22.7024 126.876 23.081 127.069 23.4271 127.309L23.9485 127.619C24.2348 127.778 24.4746 128.004 24.6452 128.276C24.8158 128.548 24.9116 128.857 24.9237 129.175L24.8449 131.565L24.7361 131.471L32.4365 131.735L32.3652 131.8L32.4665 129.413C32.5227 128.54 33.3179 128.016 34.0755 127.72C34.7544 127.287 35.6434 126.958 36.416 127.395L38.5164 128.663H38.5239ZM38.5239 128.663L36.4085 127.424C35.6321 127.002 34.7957 127.338 34.113 127.785C33.3629 128.096 32.6127 128.587 32.5752 129.432L32.5115 131.811V131.876H32.4402L24.7361 131.67H24.6311V131.569L24.6986 129.19C24.6857 128.909 24.5992 128.636 24.447 128.396C24.2949 128.156 24.0821 127.957 23.8285 127.818L23.2959 127.504L22.767 127.19C22.5252 127.034 22.2464 126.939 21.9564 126.915C21.6665 126.891 21.375 126.938 21.1092 127.052L18.93 128.179L18.8212 128.237L18.7574 128.128L15.1004 121.597L15.0292 121.474L15.1567 121.406L17.3284 120.276C17.569 120.128 17.7665 119.924 17.9024 119.683C18.0382 119.442 18.1079 119.171 18.1048 118.897L18.1236 118.294L18.1461 117.694C18.164 117.422 18.1097 117.149 17.9883 116.902C17.867 116.655 17.6825 116.442 17.4522 116.283L15.3592 115.03L15.2167 114.947L15.3067 114.806L19.3501 108.51L19.4476 108.358L19.6089 108.452L21.7055 109.705C21.9539 109.831 22.2316 109.895 22.5126 109.889C22.7935 109.883 23.0683 109.809 23.3109 109.672L23.8547 109.376L24.4136 109.109C24.6668 108.989 24.8845 108.81 25.0464 108.588C25.2084 108.366 25.3094 108.108 25.34 107.838L25.4263 105.463V105.304H25.5913L33.2916 105.553H33.4379V105.69L33.3629 108.058C33.3736 108.336 33.4573 108.606 33.6063 108.843C33.7552 109.081 33.9644 109.278 34.2143 109.416L34.7469 109.73L35.2758 110.051C35.5158 110.206 35.7925 110.3 36.0803 110.325C36.3681 110.349 36.6578 110.304 36.9224 110.192L39.1016 109.077L39.2103 109.022L39.2666 109.123L42.8936 115.673L42.9423 115.763L42.8523 115.806L40.6731 116.933C40.4242 117.084 40.2194 117.295 40.0777 117.543C39.936 117.792 39.8622 118.071 39.863 118.355C39.863 118.655 39.8292 119.254 39.8142 119.554C39.7916 119.84 39.8451 120.127 39.9698 120.388C40.0945 120.649 40.2862 120.875 40.5268 121.045L42.616 122.316L42.661 122.344L42.6348 122.384L38.5277 128.663H38.5239Z" fill="#EBEBEB"/>
<path d="M32.0013 123.98C27.0278 126.562 21.2554 122.056 22.8232 116.814C23.0673 116.03 23.47 115.3 24.0083 114.666C24.5466 114.033 25.2098 113.508 25.9596 113.122C26.7095 112.736 27.5313 112.497 28.3776 112.418C29.224 112.339 30.0782 112.422 30.8911 112.662C36.2922 114.301 36.9786 121.42 32.0163 123.98H32.0013ZM32.0013 123.98C36.8773 121.413 36.1272 114.467 30.7973 112.958C29.2333 112.526 27.5558 112.7 26.1229 113.442C24.6899 114.183 23.6148 115.435 23.127 116.929C21.4842 122.034 27.0728 126.5 32.0013 123.998V123.98Z" fill="#EBEBEB"/>
<path d="M47.7471 152.663L51.1978 150.746L50.5901 149.732C50.5024 149.585 50.4591 149.418 50.4651 149.249C50.471 149.08 50.5261 148.916 50.6239 148.775C50.7315 148.614 50.8304 148.448 50.9202 148.277C50.9981 148.126 51.118 148 51.2663 147.911C51.4147 147.823 51.5858 147.775 51.7604 147.775H52.9831V143.937H51.7604C51.5858 143.937 51.4147 143.89 51.2663 143.801C51.118 143.712 50.9981 143.586 50.9202 143.435C50.8304 143.265 50.7315 143.098 50.6239 142.937C50.5261 142.797 50.471 142.633 50.4651 142.463C50.4591 142.294 50.5024 142.127 50.5901 141.98L51.1978 140.966L47.7471 139.049L47.1395 140.071C47.0492 140.216 46.9192 140.334 46.7638 140.413C46.6084 140.492 46.4334 140.528 46.258 140.518C46.1605 140.518 46.063 140.518 45.9655 140.518C45.8679 140.518 45.7704 140.518 45.6729 140.518C45.4989 140.529 45.3253 140.493 45.1711 140.414C45.017 140.336 44.8882 140.218 44.799 140.074L44.1838 139.049L40.7331 140.966L41.3445 141.984C41.4317 142.131 41.4744 142.298 41.4678 142.468C41.4611 142.637 41.4054 142.801 41.307 142.941C41.202 143.1 41.1007 143.266 41.0107 143.435C40.9328 143.586 40.8129 143.712 40.6646 143.801C40.5162 143.89 40.3452 143.937 40.1705 143.937H38.9515V147.775H40.1705C40.3452 147.775 40.5162 147.823 40.6646 147.911C40.8129 148 40.9328 148.126 41.0107 148.277C41.1007 148.447 41.202 148.613 41.307 148.771C41.4054 148.912 41.4611 149.076 41.4678 149.245C41.4744 149.414 41.4317 149.581 41.3445 149.728L40.7331 150.75L44.1838 152.667L44.7952 151.645C44.8841 151.501 45.0129 151.383 45.1671 151.305C45.3213 151.226 45.4951 151.19 45.6692 151.201C45.7667 151.201 45.8679 151.201 45.9655 151.201C46.063 151.201 46.1605 151.201 46.258 151.201C46.4336 151.19 46.6088 151.226 46.7644 151.305C46.92 151.384 47.0498 151.503 47.1395 151.649L47.7471 152.663ZM45.9655 148.995C45.3199 148.995 44.6889 148.811 44.1522 148.466C43.6155 148.12 43.1972 147.63 42.9503 147.055C42.7035 146.481 42.6391 145.85 42.7653 145.24C42.8915 144.631 43.2026 144.071 43.6594 143.632C44.1161 143.193 44.6979 142.894 45.3312 142.773C45.9644 142.652 46.6206 142.715 47.2168 142.953C47.813 143.192 48.3224 143.595 48.6805 144.112C49.0386 144.629 49.2294 145.237 49.2286 145.858C49.2286 146.27 49.1442 146.678 48.9802 147.059C48.8161 147.44 48.5757 147.786 48.2726 148.078C47.9696 148.369 47.6098 148.6 47.2139 148.757C46.8181 148.915 46.3938 148.996 45.9655 148.995Z" fill="#EBEBEB"/>
<path d="M72.8134 53.7698L70.8217 50.4483L69.7678 51.0368C69.6152 51.1204 69.4415 51.1617 69.266 51.1559C69.0905 51.1502 68.9202 51.0977 68.7738 51.0043C68.6074 50.8982 68.4346 50.8018 68.2562 50.7155C68.1 50.6405 67.9684 50.5251 67.8764 50.3823C67.7843 50.2395 67.7353 50.0748 67.7349 49.9068V48.7334H63.7441V49.9068C63.7436 50.0748 63.6946 50.2395 63.6026 50.3823C63.5105 50.5251 63.379 50.6405 63.2227 50.7155C63.0444 50.8018 62.8715 50.8982 62.7051 51.0043C62.5588 51.0977 62.3884 51.1502 62.2129 51.1559C62.0374 51.1617 61.8637 51.1204 61.7111 51.0368L60.6572 50.4483L58.6655 53.7698L59.7307 54.3547C59.8818 54.4404 60.0052 54.5647 60.0873 54.7138C60.1694 54.863 60.207 55.0311 60.1958 55.1995C60.1958 55.2934 60.1958 55.3872 60.1958 55.4811C60.1958 55.575 60.1958 55.6688 60.1958 55.7627C60.2061 55.9306 60.1685 56.098 60.0872 56.2469C60.0059 56.3957 59.884 56.5204 59.7345 56.6075L58.6693 57.196L60.6609 60.5175L61.7186 59.929C61.8716 59.8459 62.0454 59.8053 62.2209 59.8117C62.3964 59.8181 62.5666 59.8712 62.7126 59.9651C62.8783 60.0692 63.0498 60.1645 63.2264 60.2503C63.3827 60.3253 63.5142 60.4407 63.6063 60.5835C63.6984 60.7263 63.7474 60.891 63.7478 61.0591V62.236H67.7349V61.0591C67.7349 60.8927 67.7826 60.7296 67.8725 60.5876C67.9625 60.4456 68.0914 60.3302 68.245 60.254C68.4216 60.1681 68.5931 60.0729 68.7588 59.9687C68.9048 59.8748 69.075 59.8217 69.2505 59.8153C69.426 59.8089 69.5999 59.8495 69.7528 59.9326L70.8105 60.5211L72.8021 57.1996L71.7407 56.6147C71.5906 56.5283 71.4682 56.4037 71.3868 56.2547C71.3055 56.1056 71.2683 55.9379 71.2793 55.7699C71.2793 55.6761 71.2793 55.5822 71.2793 55.4847C71.2793 55.3872 71.2793 55.297 71.2793 55.2031C71.2677 55.0329 71.3063 54.8629 71.3905 54.7128C71.4748 54.5627 71.6014 54.4386 71.7557 54.3547L72.8134 53.7698ZM68.9951 55.4847C68.9951 56.1061 68.8036 56.7135 68.4449 57.2301C68.0862 57.7467 67.5763 58.1493 66.9798 58.3869C66.3834 58.6246 65.7271 58.6866 65.094 58.5651C64.4609 58.4436 63.8794 58.1441 63.4232 57.7044C62.967 57.2648 62.6565 56.7048 62.531 56.0953C62.4056 55.4857 62.4707 54.8541 62.7183 54.2802C62.9658 53.7063 63.3847 53.216 63.9218 52.8713C64.4589 52.5266 65.0902 52.343 65.7357 52.3437C66.1641 52.3437 66.5882 52.425 66.9839 52.5829C67.3796 52.7408 67.7391 52.9722 68.0418 53.2639C68.3445 53.5556 68.5845 53.9019 68.7481 54.283C68.9117 54.664 68.9956 55.0724 68.9951 55.4847Z" fill="#EBEBEB"/>
<path d="M169.279 120.015L167.198 116.813L167.273 116.831L166.147 117.441C165.939 117.539 165.704 117.571 165.476 117.531C165.261 117.479 165.057 117.392 164.872 117.275C164.456 117.091 164.032 116.842 163.987 116.354C163.987 115.925 163.987 115.528 163.987 115.112L164.096 115.217L160.026 115.246L160.165 115.112C160.165 115.528 160.165 115.917 160.165 116.358C160.143 116.536 160.074 116.706 159.964 116.852C159.855 116.997 159.708 117.113 159.539 117.188L158.987 117.488C158.824 117.574 158.642 117.622 158.456 117.627C158.27 117.632 158.086 117.594 157.918 117.517L156.793 116.925L157.014 116.867L154.989 120.116L154.925 119.882L156.05 120.477C156.383 120.806 156.569 121.246 156.569 121.705C156.569 122.163 156.383 122.604 156.05 122.932L154.925 123.535L154.996 123.283L157.022 126.532L156.785 126.47L157.911 125.878C158.138 125.772 158.394 125.739 158.642 125.784C158.867 125.843 159.081 125.936 159.276 126.059C159.711 126.265 160.139 126.532 160.184 127.048C160.184 127.492 160.184 127.878 160.184 128.294L160.019 128.135L164.088 128.153L163.942 128.294C163.987 127.6 163.728 126.582 164.583 126.239L164.857 126.095C165.041 125.954 165.26 125.865 165.493 125.835C165.725 125.805 165.962 125.836 166.177 125.925L167.303 126.528L167.156 126.568L169.223 123.348L169.249 123.445L168.124 122.835C167.944 122.71 167.806 122.537 167.728 122.337C167.65 122.138 167.635 121.92 167.685 121.712C167.646 121.508 167.668 121.298 167.749 121.106C167.83 120.914 167.967 120.748 168.143 120.629L169.268 120.051L169.279 120.015ZM169.279 120.015L168.173 120.625C168.003 120.744 167.875 120.909 167.803 121.099C167.732 121.289 167.721 121.495 167.771 121.69C167.726 121.883 167.742 122.085 167.817 122.269C167.892 122.453 168.022 122.611 168.192 122.723L169.317 123.304L169.381 123.337L169.343 123.398L167.344 126.647L167.291 126.734L167.198 126.687L166.072 126.102C165.891 126.033 165.694 126.013 165.502 126.044C165.31 126.076 165.131 126.159 164.985 126.283C164.802 126.369 164.629 126.471 164.467 126.59C164.335 126.711 164.252 126.873 164.231 127.048C164.231 127.478 164.231 127.962 164.231 128.409H164.081H160.011H159.846C159.846 127.958 159.846 127.46 159.846 127.034C159.846 126.608 159.422 126.46 159.096 126.312C158.934 126.206 158.756 126.127 158.567 126.077C158.393 126.045 158.212 126.069 158.053 126.146L156.928 126.738L156.782 126.813L156.692 126.673L154.648 123.423L154.546 123.261L154.719 123.171L155.844 122.582C155.989 122.5 156.101 122.373 156.159 122.221C156.199 122.038 156.209 121.851 156.189 121.665C156.235 121.495 156.228 121.315 156.167 121.149C156.106 120.983 155.995 120.838 155.848 120.734L154.723 120.142L154.561 120.055L154.655 119.907L156.699 116.676L156.782 116.542L156.921 116.618L158.046 117.21C158.222 117.276 158.413 117.295 158.599 117.265C158.785 117.235 158.959 117.157 159.103 117.04C159.284 116.958 159.456 116.859 159.617 116.744C159.75 116.628 159.835 116.471 159.857 116.3C159.857 115.878 159.857 115.39 159.857 114.946H159.996L164.066 114.975H164.178V115.08C164.238 115.719 163.916 116.603 164.662 116.943C164.921 117.11 165.201 117.246 165.495 117.347C165.689 117.388 165.893 117.365 166.072 117.282L167.198 116.705L167.246 116.679L167.273 116.726L169.261 119.975L169.279 120.015Z" fill="#EBEBEB"/>
<path d="M165.39 121.691C165.408 124.471 161.691 125.835 159.617 123.991C159.281 123.7 159.012 123.345 158.828 122.948C158.644 122.552 158.549 122.122 158.549 121.687C158.549 121.253 158.644 120.823 158.828 120.426C159.012 120.029 159.281 119.674 159.617 119.384C161.691 117.535 165.39 118.907 165.39 121.691ZM165.39 121.691C165.39 118.979 161.744 117.752 159.842 119.611C159.553 119.881 159.323 120.203 159.166 120.56C159.009 120.916 158.928 121.3 158.928 121.687C158.928 122.075 159.009 122.458 159.166 122.815C159.323 123.171 159.553 123.494 159.842 123.763C161.74 125.622 165.408 124.402 165.393 121.691H165.39Z" fill="#EBEBEB"/>
<path d="M125.714 41.3105V66.6081H129.405V72.7457L135.781 66.6081H170.768V41.3105H125.714Z" fill="white"/>
<path d="M125.714 41.3105C125.808 48.7658 125.883 59.2791 125.939 66.6081L125.714 66.395L129.405 66.3734H129.645V66.6081L129.679 72.7456L129.202 72.5579L135.549 66.3914L135.642 66.3012C145.995 66.3012 160.555 66.247 170.765 66.2542L170.389 66.6153L170.438 41.3177L170.757 41.6246C159.527 41.5813 136.933 41.4116 125.703 41.3177L125.714 41.3105ZM125.714 41.3105C137.105 41.213 159.696 41.0433 171.098 41V41.3105L171.143 66.6081V66.9691C160.885 66.998 146.197 66.9258 135.789 66.9258L136.014 66.8355L129.607 72.9442L129.127 73.3991V72.7528L129.165 66.6153L129.409 66.8499H125.718H125.493C125.493 59.3946 125.673 48.8777 125.718 41.3358L125.714 41.3105Z" fill="#EBEBEB"/>
<path d="M156.763 53.9576C156.763 54.3639 156.888 54.7611 157.123 55.0989C157.357 55.4367 157.69 55.7 158.08 55.8555C158.47 56.011 158.899 56.0517 159.313 55.9724C159.727 55.8931 160.108 55.6975 160.406 55.4102C160.705 55.1229 160.908 54.7569 160.99 54.3584C161.073 53.9599 161.03 53.5468 160.869 53.1715C160.707 52.7961 160.434 52.4753 160.083 52.2495C159.732 52.0238 159.319 51.9033 158.897 51.9033C158.331 51.9043 157.789 52.121 157.389 52.5061C156.989 52.8911 156.764 53.4131 156.763 53.9576Z" fill="#EBEBEB"/>
<path d="M146.107 53.9576C146.107 54.3639 146.232 54.7611 146.467 55.0989C146.701 55.4367 147.035 55.7 147.425 55.8555C147.814 56.011 148.244 56.0517 148.658 55.9724C149.072 55.8931 149.452 55.6975 149.75 55.4102C150.049 55.1229 150.252 54.7569 150.334 54.3584C150.417 53.9599 150.374 53.5468 150.213 53.1715C150.051 52.7961 149.778 52.4753 149.427 52.2495C149.076 52.0238 148.663 51.9033 148.241 51.9033C147.676 51.9043 147.133 52.121 146.733 52.5061C146.333 52.8911 146.108 53.4131 146.107 53.9576Z" fill="#EBEBEB"/>
<path d="M135.455 53.9576C135.455 54.3639 135.58 54.7611 135.815 55.0989C136.049 55.4367 136.382 55.7 136.772 55.8555C137.162 56.011 137.591 56.0517 138.005 55.9724C138.419 55.8931 138.8 55.6975 139.098 55.4102C139.397 55.1229 139.6 54.7569 139.682 54.3584C139.765 53.9599 139.722 53.5468 139.561 53.1715C139.399 52.7961 139.126 52.4753 138.775 52.2495C138.424 52.0238 138.011 51.9033 137.589 51.9033C137.023 51.9033 136.48 52.1198 136.08 52.505C135.68 52.8903 135.455 53.4128 135.455 53.9576Z" fill="#EBEBEB"/>
<path d="M40.7106 70.5573C40.4218 72.4343 39.5791 74.1919 38.2827 75.6213C36.9863 77.0507 35.2907 78.0916 33.3975 78.6203C31.5043 79.149 29.4932 79.1433 27.6033 78.6038C25.7134 78.0644 24.0243 77.0138 22.7366 75.5771C21.449 74.1404 20.6171 72.378 20.3398 70.4994C20.0625 68.6208 20.3516 66.7051 21.1726 64.9801C21.9935 63.255 23.3119 61.7932 24.9709 60.7684C26.6299 59.7436 28.5598 59.1989 30.5311 59.1992V69.106L40.7106 70.5573Z" fill="#EBEBEB"/>
<path d="M42.9198 67.0884C42.9201 67.5718 42.8825 68.0545 42.8073 68.5325L32.6277 67.0884V57.1816C33.9796 57.1807 35.3184 57.4363 36.5675 57.9338C37.8167 58.4313 38.9516 59.161 39.9076 60.0811C40.8635 61.0013 41.6215 62.0937 42.1384 63.2961C42.6553 64.4985 42.9208 65.7871 42.9198 67.0884Z" fill="#DBDBDB"/>
<path d="M42.5935 72.5791H31.6488V72.9401H42.5935V72.5791Z" fill="#C7C7C7"/>
<path d="M43.3586 73.6811C43.1692 73.6811 42.9839 73.6269 42.8265 73.5254C42.669 73.424 42.5465 73.2797 42.4743 73.1111C42.4021 72.9425 42.3836 72.757 42.4212 72.5782C42.4587 72.3994 42.5505 72.2354 42.685 72.1069C42.8195 71.9785 42.9907 71.8914 43.1767 71.8567C43.3627 71.822 43.5552 71.8412 43.7299 71.912C43.9045 71.9828 44.0534 72.1019 44.1576 72.2543C44.2617 72.4066 44.3166 72.5853 44.3151 72.7677C44.3131 73.0106 44.2115 73.2429 44.0323 73.414C43.8532 73.5851 43.611 73.6811 43.3586 73.6811ZM43.3586 72.2045C43.213 72.2158 43.0771 72.2794 42.978 72.3828C42.8789 72.4862 42.8239 72.6216 42.8239 72.7623C42.8239 72.9029 42.8789 73.0384 42.978 73.1418C43.0771 73.2451 43.213 73.3088 43.3586 73.3201C43.4387 73.3263 43.5191 73.3165 43.595 73.2912C43.6709 73.266 43.7405 73.226 43.7995 73.1736C43.8585 73.1212 43.9056 73.0576 43.9378 72.9868C43.97 72.916 43.9867 72.8396 43.9867 72.7623C43.9867 72.685 43.97 72.6086 43.9378 72.5378C43.9056 72.467 43.8585 72.4034 43.7995 72.351C43.7405 72.2986 43.6709 72.2585 43.595 72.2333C43.5191 72.2081 43.4387 72.1983 43.3586 72.2045Z" fill="#C7C7C7"/>
<path d="M54.6409 72.208H46.1417V72.5763H54.6409V72.208Z" fill="#C7C7C7"/>
<path d="M50.9539 72.9443H46.1417V73.3126H50.9539V72.9443Z" fill="#C7C7C7"/>
<path d="M132.075 136.742H129.176V156.613H132.075V136.742Z" fill="#EBEBEB"/>
<path d="M137.064 141.551H134.165V156.613H137.064V141.551Z" fill="#EBEBEB"/>
<path d="M142.049 149.082H139.149V156.613H142.049V149.082Z" fill="#EBEBEB"/>
<path d="M147.033 144.779H144.134V156.61H147.033V144.779Z" fill="#EBEBEB"/>
<path d="M152.022 140.263H149.123V156.61H152.022V140.263Z" fill="#EBEBEB"/>
<path d="M157.007 137.605H154.107V156.61H157.007V137.605Z" fill="#EBEBEB"/>
<path d="M127.507 134.215L127.541 139.814V145.41L127.563 156.602L127.507 156.527C130.173 156.527 132.838 156.527 135.504 156.527L143.504 156.545H151.501L159.501 156.584L151.501 156.628H143.504H135.504C132.841 156.628 130.175 156.628 127.507 156.628H127.432V156.556L127.458 145.364V139.768L127.507 134.215Z" fill="#EBEBEB"/>
<path d="M126.854 135.338C127.275 135.232 127.717 135.232 128.137 135.338C127.717 135.444 127.275 135.444 126.854 135.338Z" fill="#EBEBEB"/>
<path d="M126.854 137.032C127.275 136.926 127.717 136.926 128.137 137.032C127.929 137.088 127.712 137.115 127.496 137.111C127.279 137.113 127.063 137.086 126.854 137.032Z" fill="#EBEBEB"/>
<path d="M126.854 138.742C127.275 138.637 127.717 138.637 128.137 138.742C127.717 138.848 127.275 138.848 126.854 138.742Z" fill="#EBEBEB"/>
<path d="M126.854 140.443C127.275 140.337 127.717 140.337 128.137 140.443C127.717 140.548 127.275 140.548 126.854 140.443Z" fill="#EBEBEB"/>
<path d="M126.854 142.147C127.275 142.041 127.717 142.041 128.137 142.147C127.717 142.253 127.275 142.253 126.854 142.147Z" fill="#EBEBEB"/>
<path d="M126.854 143.847C127.275 143.741 127.717 143.741 128.137 143.847C127.717 143.953 127.275 143.953 126.854 143.847Z" fill="#EBEBEB"/>
<path d="M126.854 145.551C127.275 145.445 127.717 145.445 128.137 145.551C127.716 145.652 127.276 145.652 126.854 145.551Z" fill="#EBEBEB"/>
<path d="M126.854 147.252C127.275 147.146 127.717 147.146 128.137 147.252C127.717 147.358 127.275 147.358 126.854 147.252Z" fill="#EBEBEB"/>
<path d="M126.854 148.946C127.275 148.84 127.717 148.84 128.137 148.946C127.716 149.047 127.276 149.047 126.854 148.946Z" fill="#EBEBEB"/>
<path d="M126.854 150.657C127.275 150.551 127.717 150.551 128.137 150.657C127.717 150.762 127.275 150.762 126.854 150.657Z" fill="#EBEBEB"/>
<path d="M126.854 152.357C127.276 152.256 127.716 152.256 128.137 152.357C127.717 152.463 127.275 152.463 126.854 152.357Z" fill="#EBEBEB"/>
<path d="M126.854 154.061C127.275 153.955 127.717 153.955 128.137 154.061C127.717 154.167 127.275 154.167 126.854 154.061Z" fill="#EBEBEB"/>
<path d="M141.261 81.4792L145.087 69.7275L147.27 71.2186L141.261 81.4792Z" fill="#455A64"/>
<path d="M144.265 84.3423L154.681 81.8945L155.266 84.66L144.265 84.3423Z" fill="#455A64"/>
<path d="M143.17 82.0387L156.313 69.8574L158.848 73.2186L143.17 82.0387Z" fill="#455A64"/>
<path d="M144.108 188.482H108.314C107.644 186.556 107.01 184.68 106.413 182.853C105.663 180.586 105.066 178.398 104.59 176.322C104.477 175.831 104.372 175.344 104.275 174.878C104.084 173.936 103.918 173.019 103.787 172.131C103.12 167.672 103.217 163.968 104.162 161.455C105.006 159.209 106.533 157.917 108.806 157.892H109.08C109.263 157.892 109.455 157.91 109.638 157.931C113.284 158.336 118.591 161.621 125.767 168.813C127.487 170.539 129.32 172.493 131.265 174.676C131.91 175.398 132.578 176.142 133.268 176.907C136.509 180.474 140.215 184.42 144.108 188.482Z" fill="#AD6359"/>
<path d="M151.887 188.482H104.507C103.592 186.226 102.741 184.056 101.972 182.002C101.397 180.469 100.884 178.991 100.434 177.568C100.25 176.991 100.059 176.42 99.9126 175.861C99.5826 174.744 99.2925 173.661 99.0425 172.611C98.8812 171.954 98.7349 171.315 98.6074 170.687C98.4798 170.059 98.3711 169.521 98.2736 168.958C98.2098 168.597 98.1498 168.214 98.0973 167.849C98.0448 167.485 97.996 167.127 97.951 166.766C97.8835 166.21 97.8272 165.683 97.7897 165.145C97.7672 164.863 97.7484 164.586 97.7334 164.315C97.7334 164.268 97.7334 164.221 97.7334 164.174C97.5572 160.441 98.1085 157.524 99.2562 155.473C100.008 154.036 101.287 152.918 102.846 152.336C102.935 152.298 103.026 152.265 103.12 152.238C104.905 151.671 107.088 151.769 109.605 152.563C112.842 153.585 116.626 155.755 120.823 159.127C129.416 166.066 140.923 177.261 151.887 188.482Z" fill="#7E57C2"/>
<path d="M139.806 176.416C140.289 179.061 141.246 181.606 142.634 183.936C143.617 185.561 145.492 187.785 147.637 186.427C148.088 186.134 148.45 185.732 148.688 185.261C145.732 182.25 142.739 179.272 139.806 176.416ZM129.442 188.482H133.883C132.383 187.575 130.665 187.214 129.442 188.482ZM133.726 170.578C131.119 168.116 128.572 165.783 126.179 163.689C125.549 164.534 125.403 165.762 125.568 167.083C125.601 167.659 125.673 168.232 125.785 168.798C126.148 170.668 126.794 172.477 127.702 174.167C128.452 175.488 129.772 177.744 131.644 177.716C131.967 177.716 132.284 177.641 132.571 177.498C132.857 177.355 133.102 177.147 133.287 176.892C133.883 176.131 134.105 174.986 134.142 174.094C134.12 172.912 133.981 171.735 133.726 170.578Z" fill="#263238"/>
<path opacity="0.1" d="M119.312 188.483H104.515C103.596 186.226 102.744 184.056 101.979 182.002C101.407 180.469 100.893 178.991 100.438 177.569C100.253 176.991 100.078 176.422 99.9126 175.861C99.5826 174.744 99.2925 173.667 99.0425 172.63C98.8812 171.973 98.7349 171.333 98.6074 170.705C98.4799 170.077 98.3711 169.539 98.2736 168.976C98.2098 168.615 98.1498 168.232 98.0973 167.868C98.0448 167.503 97.996 167.145 97.951 166.784C97.3396 161.788 97.8385 158.001 99.2638 155.499C99.5128 155.053 99.8068 154.632 100.141 154.242L101.244 156.21L104.17 161.434L108.003 168.319L109.398 170.81L109.773 171.449L115.25 181.226L118.13 186.378L119.312 188.483Z" fill="black"/>
<path d="M118.595 188.482H94.5903C94.5903 184.651 94.5903 180.944 94.5903 177.445C94.5903 176.763 94.5903 176.088 94.5903 175.42C94.5903 174.16 94.5903 172.929 94.5903 171.734C94.6128 163.069 94.6541 156.227 94.6728 152.844C94.6728 151.346 94.6916 150.523 94.6916 150.523L94.474 149.736L94.0464 148.194C97.3058 149.006 100.383 150.385 103.127 152.263C103.627 152.603 104.127 152.971 104.627 153.368C105.93 154.385 107.125 155.524 108.194 156.769C108.307 156.899 108.416 157.025 108.524 157.159C108.716 157.393 108.899 157.632 109.087 157.881C109.275 158.13 109.5 158.43 109.695 158.718C110.651 160.1 111.452 161.575 112.084 163.119C113.655 166.95 115.797 175.734 118.138 186.377C118.285 187.07 118.438 187.772 118.595 188.482Z" fill="#7E57C2"/>
<path d="M116.63 188.482H39.8892C49.1273 173.77 57.8929 161.286 62.5851 156.751C63.2084 156.145 63.8752 155.582 64.5805 155.065C66.0152 154.003 67.5674 153.096 69.2089 152.361C70.8295 151.627 72.5106 151.023 74.2349 150.556C75.1801 150.292 76.1441 150.069 77.1193 149.874C81.6972 148.991 86.3873 148.78 91.0309 149.245C92.2161 149.365 93.3751 149.527 94.5003 149.733C97.3936 150.22 100.199 151.105 102.831 152.361C103.446 152.664 104.044 153 104.62 153.368C105.856 154.133 106.941 155.104 107.823 156.235C107.943 156.397 108.067 156.574 108.198 156.769C108.277 156.896 108.356 157.026 108.434 157.163C108.562 157.387 108.687 157.627 108.809 157.885C109.115 158.491 109.421 159.185 109.728 159.964C111.559 164.607 113.438 172.203 115.25 181.229C115.715 183.558 116.18 185.984 116.63 188.482Z" fill="#EBEBEB"/>
<path d="M71.5644 157.408C74.1551 160.722 76.9985 163.845 80.0711 166.752C83.128 169.604 86.4849 172.167 90.2319 173.893C93.9789 175.619 98.1535 176.42 102.148 175.539C106.143 174.658 109.522 171.705 111.15 167.824C110.366 171.922 107.107 175.835 102.606 177.084C98.1873 178.428 93.3451 177.626 89.3092 175.745C85.3288 173.799 81.7836 171.12 78.8746 167.86C75.9531 164.714 73.4934 161.197 71.5644 157.408Z" fill="#C7C7C7"/>
<path d="M75.544 188.482H34.972C42.7623 173.969 49.4724 161.928 52.083 158.812C52.2148 158.649 52.3563 158.494 52.5068 158.347C55.6462 155.346 60.1809 153.202 64.2879 151.74C67.5021 150.598 70.8091 149.716 74.1749 149.101C74.1749 149.101 74.1937 149.61 74.2312 150.545C74.3025 152.469 74.445 156.191 74.6063 161.094C74.6263 161.592 74.645 162.101 74.6625 162.621C74.9288 169.672 75.2439 178.821 75.544 188.482Z" fill="#7E57C2"/>
<path d="M72.2995 168.264C72.2733 168.203 72.2433 168.145 72.2133 168.088C72.1833 168.03 72.1345 167.947 72.0932 167.882C72.0478 167.817 71.999 167.754 71.947 167.694C71.9137 167.654 71.8773 167.617 71.8382 167.582C71.7819 167.528 71.7257 167.481 71.6694 167.434C71.6131 167.391 71.5542 167.351 71.4931 167.315C71.4535 167.291 71.4121 167.269 71.3693 167.25C71.2507 167.19 71.1246 167.145 70.9943 167.116L70.923 167.098C70.5098 167.035 70.0867 167.067 69.689 167.192C68.7926 167.489 67.9536 167.927 67.206 168.488C66.2657 169.157 65.3872 169.902 64.5805 170.716C64.3029 170.994 64.0329 171.283 63.7703 171.579C63.594 171.777 63.4252 171.979 63.2564 172.185C63.0877 172.391 62.9264 172.597 62.7651 172.81C61.4819 174.472 60.5573 176.365 60.0458 178.377C59.9445 178.601 59.847 178.821 59.7607 179.045C59.7182 179.144 59.6807 179.241 59.6482 179.337C59.6182 179.42 59.5882 179.503 59.5619 179.586C59.5357 179.669 59.4944 179.796 59.4644 179.897C59.0893 181.153 59.0893 182.291 59.7195 183.016C59.7532 183.056 59.7907 183.092 59.832 183.132C59.9112 183.207 59.9965 183.276 60.087 183.338C60.3491 183.508 60.6416 183.63 60.9497 183.699C60.9914 183.71 61.0341 183.717 61.0772 183.72L61.201 183.742C61.5815 183.778 61.9655 183.734 62.3263 183.612C62.4313 183.579 62.54 183.54 62.6488 183.496C62.7773 183.446 62.9025 183.388 63.0239 183.323C63.1439 183.265 63.2639 183.2 63.3802 183.132C63.4965 183.063 63.5865 183.009 63.6915 182.94C64.1362 182.648 64.5609 182.328 64.963 181.984L65.1243 181.843C65.1731 181.803 65.2181 181.763 65.2668 181.717L65.5632 181.453L65.6982 181.33C65.8595 181.186 66.0095 181.041 66.152 180.911L66.4858 180.597C66.6809 180.417 66.8609 180.236 67.0672 180.038C67.2735 179.839 67.356 179.749 67.4986 179.597C67.6411 179.446 67.8249 179.236 67.9862 179.074C68.1474 178.911 68.305 178.713 68.4588 178.536C69.6691 177.121 70.6607 175.545 71.4031 173.857C71.9957 172.489 72.9859 169.886 72.2995 168.264Z" fill="#263238"/>
<path d="M70.9718 167.098C69.9703 171.246 67.6336 176.221 63.9129 181.615C63.4928 182.225 63.0652 182.846 62.6339 183.485C61.5649 185.066 60.4547 186.734 59.3182 188.474H25.9364C36.5473 178.318 53.1032 153.891 65.8783 153.274C71.752 152.996 72.6859 159.982 70.9718 167.098Z" fill="#AD6359"/>
<path d="M73.496 160.827C73.4302 163.344 73.0294 165.842 72.3033 168.261C72.1458 168.824 71.972 169.4 71.7819 169.987C71.7069 170.214 71.6319 170.445 71.5532 170.676C71.4331 171.037 71.3094 171.398 71.1781 171.759C71.0806 172.023 70.983 172.29 70.8818 172.557C70.7805 172.825 70.7055 173.027 70.6117 173.261C70.5179 173.496 70.4279 173.738 70.3304 173.983C69.9553 174.947 69.5465 175.947 69.1152 176.973C69.0101 177.229 68.9014 177.489 68.7888 177.749L68.455 178.536C67.1235 181.645 65.5969 184.995 63.9354 188.49H24.9762C25.0437 188.425 36.7086 173.687 45.8754 164.301C54.3184 155.657 64.0891 150.134 69.2089 152.386C71.7895 153.517 73.2635 156.044 73.4698 159.784C73.496 160.105 73.496 160.459 73.496 160.827Z" fill="#7E57C2"/>
<path d="M72.2133 168.08C72.1758 168.008 72.1345 167.939 72.0932 167.874C72.0478 167.81 71.999 167.747 71.947 167.687C71.9137 167.647 71.8773 167.609 71.8382 167.575C71.7865 167.521 71.7301 167.471 71.6694 167.427C71.6131 167.384 71.5542 167.344 71.4931 167.308C71.4535 167.283 71.4121 167.261 71.3693 167.243C71.2507 167.183 71.1246 167.138 70.9943 167.109H70.923C70.5098 167.045 70.0867 167.077 69.689 167.203C68.7926 167.5 67.9536 167.938 67.206 168.499C66.2657 169.167 65.3872 169.913 64.5805 170.727C64.3029 171.005 64.0329 171.293 63.7703 171.589C63.594 171.788 63.4252 171.99 63.2564 172.196C63.0877 172.402 62.9264 172.608 62.7651 172.821C61.4819 174.483 60.5573 176.376 60.0458 178.388C59.9445 178.612 59.847 178.832 59.7607 179.056C59.7182 179.154 59.6807 179.252 59.6482 179.348C59.6182 179.431 59.5882 179.514 59.5619 179.597C59.5357 179.68 59.4944 179.807 59.4644 179.908C59.0893 181.164 59.0893 182.301 59.7195 183.027C59.7532 183.067 59.7907 183.103 59.832 183.143C59.9112 183.218 59.9965 183.286 60.087 183.348C60.3508 183.518 60.6444 183.64 60.9535 183.709L61.0772 183.735L61.201 183.756C61.5815 183.792 61.9655 183.748 62.3263 183.626C62.4313 183.594 62.54 183.554 62.6488 183.511C62.7773 183.46 62.9025 183.402 63.0239 183.337C63.1439 183.28 63.2639 183.215 63.3802 183.146C63.4965 183.078 63.5865 183.023 63.6915 182.955C64.1362 182.662 64.5609 182.343 64.963 181.998L65.1243 181.857C65.1731 181.818 65.2181 181.778 65.2668 181.731L65.5632 181.467L65.6982 181.345C65.8595 181.2 66.0095 181.056 66.152 180.926L66.4858 180.612C66.6809 180.431 66.8609 180.251 67.0672 180.052C67.2735 179.854 67.356 179.763 67.4986 179.612C67.6411 179.46 67.8249 179.251 67.9862 179.088C68.1474 178.926 68.305 178.727 68.4588 178.55L68.7926 177.763C68.9051 177.503 69.0139 177.243 69.1189 176.987C69.5502 175.962 69.9553 174.962 70.3341 173.998C70.4317 173.756 70.5254 173.517 70.6154 173.276C70.7055 173.034 70.7992 172.803 70.8855 172.571C70.9718 172.34 71.0843 172.037 71.1818 171.774C71.3131 171.413 71.4369 171.052 71.5569 170.691C71.6356 170.459 71.7107 170.228 71.7857 170.001C71.9782 169.414 72.152 168.838 72.307 168.275C72.2733 168.199 72.2433 168.142 72.2133 168.08Z" fill="#263238"/>
<path d="M65.1131 187.731C64.9781 187.98 64.8431 188.233 64.7043 188.482H64.3555C64.5393 188.197 64.7305 187.915 64.9143 187.63C64.929 187.606 64.9527 187.588 64.9806 187.58C65.0085 187.573 65.0383 187.576 65.064 187.589C65.0896 187.602 65.109 187.624 65.1182 187.65C65.1273 187.677 65.1255 187.706 65.1131 187.731Z" fill="#263238"/>
<path d="M141.122 104.177C141.089 104.177 141.055 104.21 141.085 104.228C144.682 106.56 146.835 110.806 145.166 114.951C143.737 118.492 140.612 120.048 137.15 120.417C140.125 119.012 142.69 116.734 143.718 113.665C144.843 110.297 143.808 106.445 140.972 104.304C143.714 101.221 145.541 97.047 144.554 93.0539C143.729 89.6927 140.905 86.9344 137.315 86.4398C139.371 82.945 139.209 78.4032 136.584 75.2947C134.127 72.374 129.99 71.179 126.157 71.9841C126.781 70.7297 127.059 69.342 126.965 67.9542C126.871 66.5664 126.408 65.2253 125.62 64.0596C124.832 62.8939 123.745 61.9429 122.465 61.298C121.185 60.653 119.754 60.3358 118.31 60.3769C118.929 58.2901 118.036 56.077 116.285 54.7123C114.271 53.1309 111.525 52.9468 108.963 53.214C108.611 52.1541 107.981 51.1991 107.136 50.4405C106.29 49.6819 105.256 49.1451 104.132 48.8816C102.649 48.5894 101.107 48.8023 99.7696 49.484C98.4319 50.1656 97.382 51.2736 96.7995 52.6183C93.2026 50.6543 89.0017 49.008 84.7596 49.8997C81.2676 50.6218 78.0082 53.1237 77.3443 56.5463C70.4017 53.8675 62.4688 57.5825 60.2896 64.5468C57.1802 64.2435 54.1009 65.7021 52.203 68.1355C50.3051 70.5688 49.7387 72.6628 49.5774 73.6665C48.1825 73.6592 46.8187 74.0636 45.6699 74.8253C44.521 75.5871 43.6424 76.6695 43.1524 77.9267C42.1659 80.4286 42.7773 82.8295 44.0376 84.9957C43.9847 85.7171 43.7642 86.4179 43.3924 87.0464C41.5171 90.3751 41.3708 94.1118 43.1336 97.4116C39.7279 100.473 40.013 106.04 43.6925 108.604C41.3483 112.553 42.9986 117.864 47.1544 119.857C46.4035 121.462 46.0249 123.205 46.045 124.965C46.0651 126.725 46.4834 128.46 47.2707 130.049C48.5122 132.482 51.0215 134.659 53.9546 134.381C53.2344 136.436 54.9598 138.512 56.9964 139.241C57.7773 139.503 58.5863 139.68 59.4082 139.768C60.3796 139.891 61.6586 139.797 62.5363 140.248C63.414 140.699 63.8378 141.783 64.4117 142.533C64.831 143.072 65.3088 143.566 65.837 144.006C69.0476 146.671 73.7999 147.256 77.7307 145.721C78.7085 145.347 79.6245 144.837 80.45 144.209C82.4604 146.786 85.9898 147.292 89.2455 146.776C89.6206 146.714 89.9957 146.638 90.3707 146.552C91.5167 146.258 92.6337 145.868 93.7089 145.386C94.0753 145.226 94.451 145.088 94.8341 144.97C95.4532 144.776 96.1112 144.725 96.7545 144.822C97.4372 144.931 98.0823 145.183 98.7649 145.295C101.083 145.656 103.075 144.602 104.912 143.346C106.312 145.074 108.287 146.286 110.505 146.779C116.454 148.046 123.141 143.599 124.409 137.031C126.27 137.22 128.152 136.973 129.892 136.31C131.633 135.648 133.181 134.589 134.405 133.226C134.665 132.928 134.906 132.616 135.129 132.291C136.151 130.761 136.743 129.001 136.848 127.184C136.953 125.367 136.566 123.555 135.725 121.926C135.616 121.709 135.5 121.496 135.372 121.287C135.485 121.287 135.601 121.287 135.717 121.287C140.031 121.341 144.25 119.482 145.897 115.221C147.652 110.701 145.331 106.282 141.122 104.177ZM49.4912 74.3091C49.4912 74.3091 48.6097 74.7063 48.2047 74.9445C47.0778 75.6323 46.1173 76.5448 45.3881 77.6205C44.6589 78.6961 44.1779 79.9098 43.9776 81.1796C43.8782 81.9335 43.8782 82.6965 43.9776 83.4505C43.9776 83.5516 43.9776 83.6346 43.9776 83.7321C43.4133 82.3327 43.2716 80.8083 43.5687 79.3347C44.2176 76.4464 46.5168 74.4969 49.4987 73.9625C49.4912 74.1719 49.4912 74.3091 49.4912 74.3091ZM104.012 49.4231C106.263 49.9394 107.497 51.4666 108.138 53.297H108.093C107.261 52.2501 106.136 51.4545 104.849 51.0045C103.545 50.5571 102.132 50.4987 100.794 50.8368C99.4554 51.175 98.2541 51.894 97.3471 52.8999L97.1521 52.7952C98.6974 50.4449 100.783 48.6866 104.012 49.4231ZM110.655 146.086C108.881 145.696 107.073 144.747 105.314 143.1L105.396 143.046C107.021 144.151 108.908 144.847 110.884 145.068C113.013 145.297 115.168 144.996 117.143 144.196C119.118 143.396 120.847 142.123 122.166 140.497C119.357 144.508 115.103 147.064 110.655 146.086Z" fill="#263238"/>
<path d="M102.291 172.514C94.2753 173.889 81.1064 166.466 76.2904 156.747C75.9678 156.079 80.2587 130.37 80.5625 125.189L113.851 134.901C113.851 134.901 109.901 145.581 109.432 154.614C109.401 155.328 109.437 156.043 109.541 156.751C109.541 156.848 109.567 156.968 109.567 157.112C110.017 161.181 110.036 171.181 102.291 172.514Z" fill="#AD6359"/>
<path d="M109.533 156.755C109.533 156.845 109.56 156.96 109.563 157.098C108.408 157.188 107.246 157.188 106.09 157.098C86.5862 155.625 83.3231 132.367 82.8092 125.847L91.1246 128.276L113.847 134.905C113.847 134.905 109.878 145.588 109.443 154.617C109.401 155.331 109.431 156.047 109.533 156.755Z" fill="#263238"/>
<path d="M75.0676 89.53C72.1758 101.527 81.0388 135.053 90.262 142.049C103.63 152.194 124.319 151.884 132.968 136.67C141.351 121.94 129.007 78.4463 118.809 72.2077C103.802 63.0194 79.336 71.8069 75.0676 89.53Z" fill="#AD6359"/>
<path d="M109.503 107.365C109.462 107.286 109.346 107.517 109.372 107.61C110.032 109.852 110.396 112.528 108.464 113.788C108.404 113.827 108.442 113.939 108.517 113.91C111.004 112.936 110.494 109.39 109.503 107.365Z" fill="#263238"/>
<path d="M106.784 105.51C102.936 106.138 104.534 113.503 108.097 112.918C111.604 112.344 110.013 104.979 106.784 105.51Z" fill="#263238"/>
<path d="M123.689 104.539C123.689 104.448 123.899 104.607 123.914 104.701C124.334 106.997 125.215 109.561 127.522 109.889C127.593 109.889 127.612 110.015 127.522 110.019C124.836 110.196 123.704 106.784 123.689 104.539Z" fill="#263238"/>
<path d="M125.29 101.737C129.041 100.697 130.916 107.994 127.455 108.958C123.993 109.922 122.147 102.611 125.29 101.737Z" fill="#263238"/>
<path d="M102.523 100.398C103.539 100.074 104.572 99.8012 105.618 99.5818C106.807 99.2785 107.722 98.9211 108.937 99.3254C109.267 99.4756 109.537 99.7265 109.703 100.039C109.87 100.352 109.925 100.709 109.86 101.055C109.485 102.517 108.123 103.221 106.705 103.654C105.291 104.123 103.746 104.066 102.373 103.495C100.929 102.932 101.169 100.889 102.523 100.398Z" fill="#263238"/>
<path d="M127.244 95.989C126.174 95.9807 125.105 95.918 124.041 95.8013C122.815 95.7146 121.828 95.7688 120.816 95.007C120.553 94.7634 120.381 94.4425 120.328 94.0948C120.275 93.7471 120.344 93.3924 120.523 93.0863C121.367 91.8155 122.897 91.5627 124.379 91.6061C125.875 91.6051 127.318 92.1376 128.43 93.1007C129.604 94.0864 128.692 95.9457 127.244 95.989Z" fill="#263238"/>
<path d="M116.679 129.15C117.204 129.746 117.706 130.548 118.573 130.696C119.439 130.844 120.422 130.566 121.221 130.335C121.238 130.329 121.257 130.33 121.274 130.335C121.292 130.341 121.307 130.352 121.317 130.367C121.327 130.381 121.333 130.398 121.332 130.416C121.332 130.434 121.326 130.451 121.314 130.465C120.925 130.889 120.423 131.204 119.862 131.376C119.302 131.548 118.703 131.571 118.13 131.443C117.057 131.161 116.607 130.205 116.438 129.219C116.412 129.089 116.604 129.064 116.679 129.15Z" fill="#263238"/>
<path d="M112.83 121.64C113.586 122.429 114.503 123.058 115.523 123.489C116.544 123.919 117.646 124.142 118.76 124.142C119.735 124.155 120.706 124.033 121.645 123.781C121.828 123.746 122.008 123.694 122.181 123.626C122.346 123.579 122.496 123.532 122.676 123.463C122.796 123.42 122.898 123.339 122.966 123.234C123.034 123.129 123.064 123.005 123.051 122.882V122.864C123.037 122.788 123.014 122.713 122.984 122.64V122.622L122.942 122.424C122.672 120.687 122.016 118.091 122.016 118.091C122.729 118.297 126.344 119.174 126.142 118.283C124.3 110.878 122.256 102.646 118.801 95.6531C118.778 95.6074 118.738 95.5715 118.689 95.5517C118.64 95.532 118.586 95.5298 118.535 95.5455C118.485 95.5613 118.442 95.5939 118.414 95.6375C118.387 95.6811 118.376 95.7327 118.385 95.7831C119.859 102.964 122.639 109.863 124.24 117.041C123.115 116.835 121.239 116.405 120.287 116.586C120.043 116.698 121.652 121.59 121.708 122.362C121.711 122.391 121.711 122.42 121.708 122.449C118.756 123.333 116.318 122.842 113.029 121.391C112.815 121.304 112.658 121.485 112.83 121.64Z" fill="#263238"/>
<path d="M129.949 85.129C128.448 82.266 126.907 81.8147 126.907 81.8147C126.907 81.8147 126.446 78.2657 122.507 74.1463C118.381 69.8356 114.526 69.684 114.526 69.684C114.526 69.684 112.354 67.8788 107.966 66.8751C106.5 66.5424 105.006 66.3394 103.502 66.2686C101.807 66.182 96.7807 66.7416 95.3105 67.5358C93.6189 68.4565 91.5972 67.7886 89.7368 67.9907C88.0027 68.1745 86.3284 68.7084 84.8233 69.5576C83.5527 70.2673 82.4122 71.1736 81.4476 72.2401C80.888 72.8915 80.3718 73.5764 79.9023 74.2908C79.0847 75.4713 78.2182 75.9551 76.9617 76.4858C74.2762 77.6375 72.2208 79.8687 71.1968 82.8617C70.6303 84.6116 70.4476 86.4557 70.6604 88.2772C70.878 90.5517 68.5525 91.9272 67.8999 93.9923C67.758 94.4341 67.6576 94.8872 67.5998 95.3462C67.4157 96.7895 67.6147 98.2542 68.1781 99.6034C68.7416 100.953 69.6511 102.142 70.8217 103.061C68.0349 105.589 67.5361 110.459 69.6965 113.979C70.1398 114.707 70.708 115.358 71.3768 115.903L71.5794 116.062C71.967 116.355 72.3813 116.614 72.8171 116.835C74.1273 117.464 75.5412 117.868 76.9955 118.03C77.5113 118.097 78.0332 118.11 78.552 118.07C78.7171 118.07 78.8784 118.07 79.0396 118.07C79.3769 118.059 79.7129 118.024 80.0449 117.965C80.5057 117.882 80.9568 117.755 81.3914 117.586C82.623 117.103 83.7144 116.34 84.572 115.362C85.1571 114.71 85.641 113.981 86.0086 113.196C86.5577 112.015 86.8378 110.735 86.83 109.442C86.8223 108.148 86.5268 106.871 85.9636 105.697V105.621C85.9636 105.621 92.5386 107.166 95.3817 102.516C97.1221 99.6677 97.3209 96.0358 96.882 92.5735C104.384 95.895 113.385 90.5444 113.46 81.8363C115.711 83.6704 120.617 85.8763 123.122 84.7607C125.245 92.1149 129.311 91.9814 130.864 91.8694C130.9 91.8732 130.937 91.8732 130.973 91.8694C131.145 91.8225 131.667 88.4144 129.949 85.129ZM85.641 111.889C85.2226 113.029 84.5637 114.074 83.7056 114.957C83.6217 115.052 83.5328 115.142 83.4393 115.228C83.5181 115.127 83.5931 115.026 83.6643 114.921C84.03 114.407 84.3381 113.856 84.5833 113.279C84.7795 112.827 84.9424 112.362 85.0709 111.889C85.53 109.997 85.7193 108.053 85.6335 106.112C86.326 107.98 86.3287 110.02 85.641 111.889ZM104.657 92.0319C108.483 90.4614 111.469 86.9341 112.511 82.2407C111.968 87.6309 108.802 90.7755 104.657 92.0319Z" fill="#263238"/>
<path d="M71.9283 103.456C76.9055 107.6 84.9096 107.376 91.0571 103.716C95.0892 101.315 97.1859 95.8847 101 91.2021C107.279 83.4905 122.128 81.6853 118.153 69.7423C114.616 59.128 96.2182 57.868 80.3675 66.8216C66.3696 74.7426 60.7435 94.159 71.9283 103.456Z" fill="white"/>
<path d="M117.624 110.315C117.543 110.023 117.447 109.735 117.335 109.452C117.252 109.243 117.166 109.034 117.069 108.831C115.924 106.375 113.85 104.429 111.269 103.391C108.688 102.352 105.793 102.298 103.172 103.239C102.921 103.329 102.677 103.427 102.422 103.535C100.843 104.234 99.458 105.282 98.3799 106.594C97.3018 107.906 96.5611 109.444 96.2181 111.084C96.1209 111.549 96.0557 112.019 96.0231 112.492C95.9087 114.256 96.2543 116.02 97.0283 117.622C97.8023 119.225 98.9803 120.616 100.455 121.669C101.93 122.722 103.655 123.403 105.473 123.651C107.291 123.899 109.144 123.706 110.865 123.089C111.665 122.803 112.427 122.426 113.134 121.966C113.284 121.872 113.43 121.771 113.577 121.666C115.362 120.388 116.704 118.619 117.426 116.594C118.148 114.568 118.217 112.379 117.624 110.315ZM110.362 121.756C108.596 122.392 106.673 122.509 104.837 122.092C103.001 121.676 101.335 120.744 100.049 119.416C98.7633 118.088 97.9156 116.423 97.6133 114.631C97.311 112.839 97.5676 111.001 98.3507 109.349C99.1338 107.697 100.408 106.307 102.013 105.352C103.617 104.398 105.48 103.923 107.365 103.988C109.25 104.053 111.072 104.654 112.602 105.716C114.132 106.778 115.3 108.253 115.958 109.954C116.835 112.232 116.738 114.752 115.689 116.962C114.64 119.171 112.725 120.891 110.362 121.745V121.756Z" fill="#7E57C2"/>
<path d="M139.044 105.925C138.479 103.339 137.086 100.99 135.061 99.2058C134.136 98.4046 133.04 97.8081 131.85 97.4584C130.795 97.1566 129.676 97.1218 128.602 97.3574C126.423 97.8375 124.653 99.39 123.621 101.726C123.075 102.987 122.768 104.332 122.714 105.697C122.687 106.166 122.687 106.636 122.714 107.105C122.748 107.65 122.816 108.193 122.916 108.73C122.957 108.968 123.01 109.21 123.066 109.452C123.434 111.028 124.092 112.528 125.009 113.882C126.967 116.738 129.885 118.434 132.799 118.131C133.039 118.105 133.277 118.066 133.512 118.016C134.22 117.858 134.894 117.582 135.504 117.2C138.628 115.265 140.181 110.676 139.044 105.925ZM135.384 115.546C134.763 116.076 134.016 116.448 133.208 116.629C129.581 117.431 125.707 114.059 124.525 109.127C124.387 108.542 124.291 107.948 124.236 107.351C124.218 107.17 124.206 106.99 124.199 106.806C124.199 106.502 124.199 106.203 124.199 105.903C124.232 104.663 124.501 103.439 124.994 102.293C125.073 102.112 125.159 101.932 125.253 101.769C126.112 100.155 127.41 99.0903 128.955 98.7509C129.136 98.7118 129.318 98.6817 129.502 98.6607C130.475 98.571 131.455 98.7409 132.334 99.1517C132.981 99.4451 133.581 99.8256 134.116 100.282C135.907 101.87 137.137 103.958 137.634 106.253C138.519 110.062 137.537 113.723 135.384 115.546Z" fill="#7E57C2"/>
<path d="M117.26 110.716L116.086 109.86C117.402 108.185 120.744 105.589 124.004 107.694L123.182 108.871C120.261 106.979 117.38 110.564 117.26 110.716Z" fill="#7E57C2"/>
<path d="M70.3717 118.334L69.0289 117.752C69.314 117.15 71.887 111.853 75.1389 111.171C78.1808 110.546 95.7681 111.048 96.6233 111.084L96.5633 112.499C90.8884 112.268 77.8095 112.066 75.4502 112.557C73.3048 113.005 71.0543 116.879 70.3717 118.334Z" fill="#7E57C2"/>
<path d="M85.6523 116.636C85.6523 116.636 76.6767 106.354 71.7745 109.531C66.8722 112.708 74.31 128.085 80.5775 129.749C86.845 131.413 88.5366 125.839 88.5366 125.839L85.6523 116.636Z" fill="#AD6359"/>
<path d="M74.0137 113.889C73.9918 113.889 73.9708 113.897 73.9553 113.912C73.9398 113.927 73.9312 113.947 73.9312 113.968C73.9312 113.989 73.9398 114.009 73.9553 114.024C73.9708 114.039 73.9918 114.048 74.0137 114.048C78.4208 115.34 81.0088 118.947 82.9405 122.748C81.5377 121.34 79.7373 120.658 77.7607 122.286C77.6594 122.373 77.7794 122.532 77.8957 122.496C79.6061 121.99 80.8963 122.174 82.1903 123.416C83.113 124.297 83.7919 125.449 84.4895 126.496C84.7221 126.857 85.3935 126.59 85.2097 126.182L85.1647 126.092C84.7709 120.86 79.8724 113.925 74.0137 113.889Z" fill="#263238"/>
<path d="M97.831 65.883V69.4103C97.831 69.5887 97.7576 69.7599 97.6269 69.8864C97.4962 70.0129 97.3188 70.0845 97.1334 70.0854C97.0267 70.0839 96.9217 70.0598 96.8258 70.0149C96.7298 69.97 96.6453 69.9053 96.5783 69.8255C96.3881 69.6 96.13 69.4368 95.8395 69.3584C95.549 69.28 95.2404 69.2902 94.9562 69.3876C94.672 69.485 94.4261 69.6648 94.2524 69.9023C94.0788 70.1398 93.9859 70.4232 93.9865 70.7136C93.9851 71.0043 94.0774 71.2883 94.2508 71.5263C94.4242 71.7644 94.67 71.9448 94.9544 72.0426C95.2388 72.1405 95.5478 72.151 95.8386 72.0727C96.1295 71.9943 96.3879 71.8311 96.5783 71.6054C96.6448 71.5249 96.7292 71.4599 96.8252 71.4149C96.9213 71.3699 97.0266 71.3462 97.1334 71.3454C97.3184 71.3454 97.4959 71.4162 97.6267 71.5421C97.7575 71.668 97.831 71.8388 97.831 72.0169V75.5442H94.1665C93.9812 75.5452 93.8037 75.6167 93.673 75.7432C93.5423 75.8698 93.4689 76.0409 93.4689 76.2194C93.4732 76.3206 93.5007 76.4197 93.5493 76.5095C93.5979 76.5994 93.6665 76.6778 93.7502 76.7393C93.9825 76.923 94.1501 77.1714 94.2302 77.4504C94.3102 77.7294 94.2987 78.0254 94.1973 78.2978C94.0959 78.5703 93.9095 78.806 93.6637 78.9726C93.4178 79.1392 93.1244 79.2286 92.8238 79.2286C92.5231 79.2286 92.2297 79.1392 91.9838 78.9726C91.738 78.806 91.5516 78.5703 91.4502 78.2978C91.3488 78.0254 91.3373 77.7294 91.4173 77.4504C91.4974 77.1714 91.665 76.923 91.8973 76.7393C91.9814 76.6754 92.0495 76.5943 92.0969 76.5018C92.1443 76.4094 92.1696 76.308 92.1711 76.2049C92.1711 76.0259 92.0972 75.8541 91.9657 75.7275C91.8342 75.6009 91.6558 75.5298 91.4697 75.5298H87.8052V72.0025C87.8062 71.8241 87.8806 71.6533 88.012 71.5274C88.1434 71.4016 88.3213 71.331 88.5066 71.331C88.6129 71.3318 88.7176 71.3555 88.8131 71.4005C88.9085 71.4455 88.9922 71.5106 89.058 71.5909C89.2488 71.8161 89.5074 71.979 89.7982 72.0571C90.089 72.1353 90.3978 72.1249 90.6823 72.0274C90.9667 71.9299 91.2128 71.7501 91.3869 71.5126C91.5609 71.2751 91.6544 70.9916 91.6544 70.701C91.6544 70.4104 91.5609 70.1268 91.3869 69.8894C91.2128 69.6519 90.9667 69.472 90.6823 69.3745C90.3978 69.2771 90.089 69.2667 89.7982 69.3448C89.5074 69.423 89.2488 69.5858 89.058 69.811C88.9917 69.8908 88.9079 69.9555 88.8125 70.0004C88.7172 70.0453 88.6128 70.0694 88.5066 70.071C88.3206 70.071 88.1422 69.9999 88.0107 69.8732C87.8791 69.7466 87.8052 69.5749 87.8052 69.3958V65.8686H91.4697C91.6558 65.8686 91.8342 65.7974 91.9657 65.6708C92.0972 65.5442 92.1711 65.3725 92.1711 65.1934C92.1691 65.091 92.1435 64.9903 92.0961 64.8985C92.0488 64.8067 91.9809 64.7262 91.8973 64.6627C91.6638 64.4788 91.4951 64.2298 91.4143 63.95C91.3336 63.6702 91.3447 63.3731 91.4461 63.0996C91.5476 62.8261 91.7344 62.5895 91.9811 62.4222C92.2277 62.2548 92.522 62.165 92.8238 62.165C93.1255 62.165 93.4198 62.2548 93.6665 62.4222C93.9131 62.5895 94.0999 62.8261 94.2014 63.0996C94.3028 63.3731 94.3139 63.6702 94.2332 63.95C94.1524 64.2298 93.9837 64.4788 93.7502 64.6627C93.6671 64.7264 93.5998 64.807 93.5531 64.8988C93.5064 64.9906 93.4815 65.0912 93.4801 65.1934C93.4796 65.2819 93.4973 65.3696 93.5322 65.4515C93.567 65.5334 93.6183 65.6079 93.6831 65.6706C93.748 65.7333 93.8251 65.7831 93.9099 65.8171C93.9948 65.8511 94.0859 65.8686 94.1778 65.8686L97.831 65.883Z" fill="#263238"/>
<path d="M97.831 65.8827H94.1665C93.9811 65.8818 93.8037 65.8102 93.6729 65.6837C93.5422 65.5572 93.4688 65.386 93.4688 65.2076C93.4694 65.1052 93.4939 65.0043 93.5407 64.9124C93.5875 64.8205 93.6552 64.74 93.7389 64.6769C93.9712 64.4931 94.1388 64.2447 94.2189 63.9657C94.2989 63.6867 94.2874 63.3907 94.186 63.1183C94.0846 62.8458 93.8982 62.6101 93.6524 62.4435C93.4065 62.2769 93.1131 62.1875 92.8125 62.1875C92.5118 62.1875 92.2184 62.2769 91.9725 62.4435C91.7267 62.6101 91.5403 62.8458 91.4389 63.1183C91.3375 63.3907 91.326 63.6867 91.406 63.9657C91.4861 64.2447 91.6537 64.4931 91.886 64.6769C91.9702 64.7398 92.0385 64.8202 92.0859 64.9121C92.1333 65.004 92.1586 65.105 92.1598 65.2076C92.1598 65.2962 92.1417 65.384 92.1064 65.4659C92.0712 65.5479 92.0195 65.6223 91.9544 65.685C91.8893 65.7477 91.8119 65.7974 91.7268 65.8313C91.6417 65.8652 91.5505 65.8827 91.4584 65.8827H87.7939V62.3554C87.7939 62.1764 87.72 62.0046 87.5885 61.878C87.457 61.7514 87.2786 61.6803 87.0925 61.6803C86.9864 61.6816 86.8818 61.7056 86.7865 61.7505C86.6911 61.7955 86.6073 61.8603 86.5412 61.9402C86.3503 62.1654 86.0918 62.3283 85.801 62.4065C85.5102 62.4846 85.2013 62.4742 84.9169 62.3767C84.6325 62.2792 84.3863 62.0994 84.2123 61.8619C84.0383 61.6244 83.9448 61.3409 83.9448 61.0503C83.9448 60.7597 84.0383 60.4761 84.2123 60.2387C84.3863 60.0012 84.6325 59.8213 84.9169 59.7239C85.2013 59.6264 85.5102 59.616 85.801 59.6941C86.0918 59.7723 86.3503 59.9351 86.5412 60.1603C86.6068 60.2409 86.6904 60.3061 86.7859 60.3511C86.8814 60.3961 86.9862 60.4198 87.0925 60.4203C87.2779 60.4203 87.4558 60.3497 87.5872 60.2238C87.7186 60.098 87.7929 59.9272 87.7939 59.7488V56.2179H91.4584C91.6425 56.2178 91.8192 56.2875 91.9505 56.4118C92.0817 56.536 92.1569 56.705 92.1598 56.8822C92.1583 56.9852 92.133 57.0867 92.0856 57.1791C92.0382 57.2715 91.9701 57.3526 91.886 57.4165C91.6525 57.6004 91.4838 57.8494 91.403 58.1292C91.3223 58.409 91.3334 58.7061 91.4348 58.9796C91.5363 59.2531 91.7231 59.4897 91.9698 59.657C92.2164 59.8244 92.5107 59.9142 92.8125 59.9142C93.1142 59.9142 93.4085 59.8244 93.6552 59.657C93.9018 59.4897 94.0886 59.2531 94.1901 58.9796C94.2915 58.7061 94.3026 58.409 94.2219 58.1292C94.1411 57.8494 93.9724 57.6004 93.7389 57.4165C93.6553 57.3524 93.5877 57.2712 93.541 57.1788C93.4943 57.0863 93.4696 56.985 93.4688 56.8822C93.4688 56.7037 93.5422 56.5326 93.6729 56.406C93.8037 56.2795 93.9811 56.208 94.1665 56.207H97.831V59.7379C97.832 59.9164 97.9063 60.0872 98.0377 60.213C98.1692 60.3388 98.347 60.4095 98.5324 60.4095C98.6387 60.4089 98.7435 60.3853 98.839 60.3403C98.9345 60.2953 99.0181 60.23 99.0837 60.1495C99.2746 59.9243 99.5331 59.7614 99.8239 59.6833C100.115 59.6051 100.424 59.6155 100.708 59.713C100.992 59.8105 101.239 59.9903 101.413 60.2278C101.587 60.4653 101.68 60.7488 101.68 61.0395C101.68 61.3301 101.587 61.6136 101.413 61.8511C101.239 62.0886 100.992 62.2684 100.708 62.3659C100.424 62.4634 100.115 62.4738 99.8239 62.3956C99.5331 62.3175 99.2746 62.1546 99.0837 61.9294C99.0176 61.8495 98.9338 61.7847 98.8384 61.7397C98.7431 61.6947 98.6385 61.6707 98.5324 61.6695C98.3463 61.6695 98.1679 61.7406 98.0364 61.8672C97.9049 61.9938 97.831 62.1655 97.831 62.3446V65.8827Z" fill="white"/>
<path d="M57.7803 82.9199H61.4448C61.6308 82.9199 61.8093 82.9911 61.9408 83.1177C62.0723 83.2443 62.1462 83.416 62.1462 83.5951C62.1447 83.6977 62.1196 83.7988 62.073 83.8912C62.0263 83.9835 61.9591 84.0648 61.8762 84.1294C61.6419 84.3124 61.4724 84.5609 61.391 84.8405C61.3095 85.1201 61.3201 85.4171 61.4213 85.6907C61.5225 85.9643 61.7093 86.201 61.956 86.3681C62.2027 86.5353 62.4972 86.6247 62.7989 86.6241C63.1009 86.6255 63.3959 86.5366 63.6432 86.3697C63.8905 86.2028 64.0779 85.9662 64.1796 85.6924C64.2812 85.4187 64.2921 85.1213 64.2108 84.8413C64.1294 84.5614 63.9598 84.3126 63.7253 84.1294C63.6417 84.0653 63.5741 83.9841 63.5274 83.8917C63.4807 83.7992 63.456 83.6979 63.4552 83.5951C63.4552 83.4166 63.5286 83.2454 63.6593 83.1189C63.7901 82.9924 63.9675 82.9209 64.1529 82.9199H67.8211V86.4508C67.8211 86.6289 67.8946 86.7997 68.0255 86.9257C68.1563 87.0516 68.3337 87.1223 68.5188 87.1223C68.6256 87.1216 68.7309 87.0979 68.8269 87.0529C68.923 87.0079 69.0073 86.9428 69.0739 86.8624C69.2647 86.6372 69.5233 86.4743 69.8141 86.3962C70.1049 86.318 70.4137 86.3284 70.6982 86.4259C70.9826 86.5234 71.2287 86.7032 71.4028 86.9407C71.5768 87.1782 71.6702 87.4617 71.6702 87.7523C71.6702 88.043 71.5768 88.3265 71.4028 88.564C71.2287 88.8015 70.9826 88.9813 70.6982 89.0788C70.4137 89.1763 70.1049 89.1867 69.8141 89.1085C69.5233 89.0304 69.2647 88.8675 69.0739 88.6423C69.0068 88.5624 68.9223 88.4978 68.8264 88.4528C68.7305 88.4079 68.6254 88.3839 68.5188 88.3823C68.3334 88.3833 68.156 88.4549 68.0252 88.5814C67.8945 88.7079 67.8211 88.879 67.8211 89.0575V92.5848H64.1529C63.9675 92.5838 63.7901 92.5123 63.6593 92.3858C63.5286 92.2592 63.4552 92.0881 63.4552 91.9096C63.4558 91.8073 63.4803 91.7064 63.5271 91.6145C63.5739 91.5226 63.6416 91.4421 63.7253 91.3789C63.9593 91.1952 64.1285 90.9463 64.2097 90.6664C64.2908 90.3865 64.2801 90.0892 64.1788 89.8155C64.0775 89.5417 63.8907 89.3048 63.6439 89.1372C63.3972 88.9697 63.1027 88.8798 62.8007 88.8798C62.4988 88.8798 62.2043 88.9697 61.9575 89.1372C61.7108 89.3048 61.524 89.5417 61.4227 89.8155C61.3214 90.0892 61.3106 90.3865 61.3918 90.6664C61.473 90.9463 61.6422 91.1952 61.8762 91.3789C61.9592 91.4426 62.0265 91.5232 62.0733 91.615C62.12 91.7068 62.1449 91.8074 62.1462 91.9096C62.1462 92.0887 62.0723 92.2604 61.9408 92.387C61.8093 92.5136 61.6308 92.5848 61.4448 92.5848H57.7803V89.0575C57.7803 88.8784 57.7064 88.7067 57.5749 88.5801C57.4434 88.4535 57.265 88.3823 57.0789 88.3823C56.9729 88.3844 56.8686 88.4087 56.7734 88.4536C56.6781 88.4985 56.5943 88.5629 56.5276 88.6423C56.3374 88.8677 56.0793 89.0309 55.7888 89.1093C55.4983 89.1878 55.1897 89.1776 54.9055 89.0802C54.6213 88.9828 54.3754 88.803 54.2017 88.5655C54.0281 88.328 53.9352 88.0446 53.9358 87.7542C53.9344 87.4634 54.0267 87.1795 54.2001 86.9414C54.3735 86.7034 54.6193 86.523 54.9037 86.4251C55.1881 86.3273 55.4971 86.3168 55.7879 86.3951C56.0788 86.4734 56.3372 86.6367 56.5276 86.8624C56.5937 86.9423 56.6775 87.0071 56.7729 87.0521C56.8682 87.0971 56.9728 87.1211 57.0789 87.1223C57.1709 87.1228 57.262 87.1058 57.3471 87.0723C57.4321 87.0387 57.5095 86.9893 57.5747 86.9269C57.6399 86.8645 57.6916 86.7903 57.7269 86.7086C57.7622 86.6269 57.7803 86.5393 57.7803 86.4508V82.9199Z" fill="white"/>
<path d="M13 188.482C64.2542 188.261 121.746 188.261 173 188.482C121.746 188.705 64.2542 188.705 13 188.482Z" fill="#263238"/>
<path d="M84.767 67.7954C88.4878 74.4745 85.1871 78.3737 85.6897 80.4821C86.0921 81.7516 86.5692 82.998 87.1188 84.2152L80.4161 88.7137C79.4229 87.7935 78.3733 86.9315 77.273 86.1323C75.3976 84.9445 70.4504 86.5763 65.2331 80.9045C61.8011 77.1787 60.3308 68.6475 67.4235 63.8891C74.5162 59.1306 82.3178 63.4125 84.767 67.7954Z" fill="#7E57C2"/>
<path d="M73.1037 78.9759L72.9142 79.1611L82.3321 88.0882L82.5215 87.9029L73.1037 78.9759Z" fill="white"/>
<path d="M80.4076 74.1294L80.1614 74.2363L85.5986 85.8328L85.8448 85.7259L80.4076 74.1294Z" fill="white"/>
<path d="M79.0958 80.0054C78.3832 80.4819 77.3292 80.1101 76.7629 79.8465L76.6391 79.7887C76.6402 79.9261 76.6099 80.062 76.5502 80.1868C76.4906 80.3116 76.4031 80.4222 76.294 80.5108C75.3151 81.1679 73.4922 79.4674 73.4172 79.3952L73.5109 79.3014C73.5297 79.3014 75.3301 81.0018 76.219 80.4061C76.3164 80.3212 76.3931 80.2167 76.4436 80.1C76.4942 79.9833 76.5174 79.8573 76.5116 79.731C75.7994 79.3679 75.1774 78.8604 74.6887 78.2435C74.2911 77.6984 74.2724 77.2615 74.6399 77.0124C74.7458 76.9344 74.8725 76.8869 75.0052 76.8754C75.138 76.8639 75.2714 76.8889 75.3901 76.9474C76.0465 77.2435 76.5753 78.424 76.6541 79.3411C76.6613 79.4457 76.6613 79.5506 76.6541 79.6552C77.5243 80.0956 78.4544 80.2906 79.0208 79.9079C79.4484 79.6191 79.6434 79.0125 79.5722 78.1966C79.5722 78.1208 79.5722 78.045 79.5459 77.9655C78.7785 77.7619 78.1129 77.2993 77.6705 76.6622C77.1642 75.9618 77.1192 75.348 77.5505 75.0592C77.6328 75.0045 77.7291 74.9726 77.829 74.9669C77.9288 74.9611 78.0284 74.9818 78.1169 75.0267C78.7695 75.3228 79.4597 76.6189 79.6584 77.8608C79.8167 77.8899 79.9793 77.8886 80.137 77.857C80.2947 77.8254 80.4444 77.7641 80.5774 77.6767C81.3275 77.164 80.4986 74.8209 80.4874 74.7884L80.6149 74.7451C80.6524 74.8462 81.5001 77.2038 80.6561 77.7706C80.3691 77.957 80.0193 78.0319 79.6772 77.98L79.6997 78.1749C79.7522 78.7851 79.6997 79.601 79.0921 80.0018L79.0958 80.0054ZM77.6218 75.1567C77.1867 75.4491 77.4155 76.0845 77.7756 76.5792C78.1926 77.1697 78.8024 77.6093 79.5084 77.8283C79.3096 76.6514 78.6532 75.4094 78.0531 75.1386C77.9871 75.1013 77.9112 75.0832 77.8347 75.0864C77.7582 75.0896 77.6842 75.114 77.6218 75.1567ZM74.7187 77.0991C74.3174 77.3662 74.5949 77.8717 74.7975 78.1497C75.2604 78.7323 75.8458 79.2146 76.5153 79.5649C76.5153 79.4927 76.5153 79.4133 76.5153 79.3302C76.4365 78.4674 75.9302 77.3157 75.3263 77.0449C75.2304 76.9967 75.122 76.9762 75.0142 76.9858C74.9064 76.9954 74.8038 77.0347 74.7187 77.0991Z" fill="white"/>
<path d="M87.7057 83.4075L79.438 88.9551L80.5641 90.51L88.8318 84.9624L87.7057 83.4075Z" fill="#DBDBDB"/>
<path d="M89.0109 85.219L80.7432 90.7666L81.8692 92.3215L90.137 86.7739L89.0109 85.219Z" fill="#DBDBDB"/>
<path d="M90.1629 87.1658L81.8987 92.6953L83.0211 94.2496L91.2853 88.72L90.1629 87.1658Z" fill="#DBDBDB"/>
<path d="M65.4318 77.821C63.2789 74.5717 63.0989 69.5353 66.362 66.8926C64.1116 70.1671 64.4154 74.189 65.4318 77.821Z" fill="white"/>
<path d="M102.508 85.1941C102.653 84.6161 102.681 84.0167 102.591 83.4286L103.716 82.9629L103.191 81.461L101.972 81.7606C101.659 81.2394 101.241 80.7839 100.742 80.4212L101.192 79.3381L99.7139 78.616L99.1025 79.6125C98.4804 79.4458 97.8298 79.4016 97.1896 79.4825L96.7508 78.5186L95.1942 79.024L95.4718 80.0746C94.8862 80.3882 94.3751 80.8162 93.9715 81.331L93 80.9519L92.2724 82.3708L93.1875 82.8979C93.0138 83.5303 92.9793 84.1906 93.0863 84.8366L92.1373 85.2265L92.6587 86.7248L93.7089 86.4685C94.0512 87.0271 94.5127 87.5095 95.0629 87.8837L94.6616 88.8369L96.1394 89.5373L96.717 88.6022C97.353 88.7462 98.0126 88.7646 98.6561 88.6564L99.0987 89.6672L100.659 89.1618L100.363 88.0354C100.898 87.713 101.363 87.2936 101.732 86.8006L102.857 87.2339L103.585 85.8186L102.508 85.1941ZM97.4597 87.2953C96.7971 87.2068 96.1768 86.9309 95.6774 86.5025C95.1781 86.0741 94.8222 85.5125 94.655 84.8891C94.4877 84.2657 94.5167 83.6085 94.7382 83.001C94.9596 82.3934 95.3636 81.8629 95.8989 81.4767C96.4342 81.0906 97.0765 80.8662 97.7445 80.8321C98.4125 80.7979 99.0759 80.9556 99.6506 81.285C100.225 81.6144 100.685 82.1008 100.972 82.6824C101.26 83.2639 101.361 83.9145 101.263 84.5514C101.133 85.3991 100.66 86.163 99.948 86.6768C99.2357 87.1907 98.3414 87.413 97.4597 87.2953Z" fill="#DBDBDB"/>
<path d="M100.063 85.9053L99.4438 86.3566L98.2923 84.9125L97.876 84.3637C97.9626 84.3313 98.0436 84.2862 98.116 84.2301C98.2579 84.1282 98.3681 83.9909 98.4348 83.833L98.8812 84.3998L100.063 85.9053Z" fill="#DBDBDB"/>
<path d="M98.8399 82.4648C98.643 82.2191 98.3773 82.0327 98.0741 81.9275C97.7709 81.8223 97.4427 81.8027 97.1283 81.871C96.8138 81.9392 96.5262 82.0926 96.2993 82.3129C96.0723 82.5332 95.9155 82.8114 95.8472 83.1146C95.779 83.4178 95.8022 83.7335 95.9141 84.0245C96.026 84.3155 96.2219 84.5696 96.4788 84.757C96.7357 84.9444 97.0429 85.0573 97.3641 85.0823C97.6854 85.1073 98.0074 85.0434 98.2923 84.8982C98.5245 84.7776 98.7247 84.6071 98.8774 84.4C99.0876 84.1162 99.1975 83.7749 99.1907 83.4264C99.184 83.078 99.061 82.7408 98.8399 82.4648ZM98.1123 84.2303C98.0398 84.2864 97.9589 84.3314 97.8722 84.3638C97.6551 84.4475 97.4146 84.4562 97.1916 84.3885C96.9686 84.3209 96.7768 84.181 96.6487 83.9927C96.5206 83.8044 96.4642 83.5792 96.489 83.3554C96.5138 83.1316 96.6183 82.923 96.7848 82.7649C96.9512 82.6068 97.1694 82.5091 97.4022 82.4882C97.635 82.4674 97.8682 82.5247 98.0621 82.6505C98.256 82.7763 98.3986 82.9629 98.4659 83.1784C98.5332 83.394 98.5209 83.6253 98.4311 83.8331C98.3644 83.991 98.2541 84.1283 98.1123 84.2303Z" fill="#DBDBDB"/>
<path d="M74.5312 95.2929C74.7943 94.9709 74.9904 94.6032 75.1089 94.2098L75.9678 94.2278L76.0803 93.1267L75.2214 92.9823C75.1781 92.5654 75.0507 92.1607 74.8463 91.7909L75.4502 91.2385L74.7225 90.3828L74.0286 90.8197C73.6834 90.5432 73.2843 90.3357 72.8547 90.2095V89.455L71.7294 89.3467L71.5907 90.0904C71.1272 90.1284 70.6774 90.26 70.2704 90.4767L69.7603 89.964L68.8751 90.6645L69.2989 91.2529C69.001 91.6066 68.7826 92.016 68.6576 92.4552H67.9374L67.8249 93.5383L68.575 93.6646C68.6237 94.1145 68.7721 94.5491 69.0101 94.9391L68.4738 95.4301L69.2014 96.2857L69.8466 95.8525C70.2078 96.1192 70.6211 96.3131 71.0618 96.4229L71.043 97.1847L72.1683 97.2966L72.3146 96.4987C72.7506 96.4429 73.171 96.3055 73.5523 96.0944L74.1374 96.6793L75.0188 95.9788L74.5312 95.2929ZM70.698 95.2315C70.3078 94.9919 70.0002 94.6464 69.814 94.2385C69.6278 93.8307 69.5714 93.3789 69.6519 92.9402C69.7325 92.5015 69.9463 92.0957 70.2664 91.774C70.5865 91.4522 70.9985 91.2291 71.4504 91.1327C71.9022 91.0364 72.3736 91.0711 72.805 91.2325C73.2363 91.394 73.6082 91.6749 73.8737 92.0398C74.1392 92.4047 74.2864 92.8371 74.2966 93.2825C74.3068 93.7279 74.1796 94.1661 73.9311 94.5419C73.5969 95.0455 73.0688 95.401 72.4627 95.5303C71.8566 95.6595 71.2219 95.5521 70.698 95.2315Z" fill="#DBDBDB"/>
<path d="M91.6122 100.26C92.0139 100.112 92.382 99.8901 92.6961 99.607L93.4238 100.047L94.1252 99.1593L93.465 98.6069C93.6496 98.2273 93.7542 97.8162 93.7726 97.3975L94.5865 97.2242L94.4215 96.1411L93.5851 96.1988C93.4378 95.7898 93.2056 95.4139 92.9024 95.0941L93.3188 94.4551L92.4036 93.798L91.8747 94.354C91.4561 94.1592 91.0003 94.0498 90.5357 94.0326L90.3744 93.3467L89.2492 93.5055L89.298 94.2276C88.8517 94.3843 88.4452 94.6304 88.1052 94.9497L87.4976 94.5886L86.8112 95.4732L87.3813 95.9497C87.1839 96.3595 87.079 96.805 87.0737 97.2567L86.3499 97.4119L86.5186 98.495L87.3025 98.4409C87.4741 98.8469 87.7293 99.2153 88.0527 99.5239L87.6289 100.17L88.5478 100.831L89.0992 100.221C89.5024 100.388 89.9356 100.477 90.3744 100.484L90.562 101.275L91.6872 101.116L91.6122 100.26ZM88.3603 98.3109C88.1524 97.9118 88.0722 97.4623 88.1298 97.0194C88.1873 96.5764 88.3801 96.1598 88.6838 95.8224C88.9874 95.4849 89.3882 95.2417 89.8354 95.1235C90.2827 95.0054 90.7563 95.0176 91.1964 95.1586C91.6364 95.2996 92.0231 95.5631 92.3075 95.9158C92.5919 96.2684 92.7613 96.6943 92.7942 97.1396C92.827 97.5849 92.7219 98.0296 92.4922 98.4174C92.2624 98.8052 91.9183 99.1187 91.5034 99.3182C91.2284 99.4509 90.9288 99.5302 90.6219 99.5514C90.315 99.5727 90.0068 99.5354 89.7148 99.4419C89.4229 99.3483 89.153 99.2003 88.9206 99.0062C88.6881 98.8121 88.4977 98.5759 88.3603 98.3109Z" fill="#7E57C2"/>
<path d="M84.9021 99.4844C84.8442 98.8921 84.6684 98.316 84.3845 97.7876L85.3034 96.9933L84.2982 95.7369L83.248 96.3976C82.7746 96.0044 82.2253 95.705 81.6314 95.5167L81.6989 94.365L80.0636 94.1592L79.8198 95.2928C79.1757 95.3309 78.5459 95.4917 77.9669 95.7658L77.2168 94.9607L75.9152 95.9246L76.5304 96.8308C76.0875 97.3112 75.7517 97.874 75.5439 98.4844L74.4899 98.4338L74.2799 100.001L75.3226 100.214C75.3687 100.865 75.5579 101.5 75.8777 102.077L75.1051 102.734L76.1065 103.99L77.0105 103.42C77.5233 103.841 78.1227 104.154 78.7696 104.337L78.7096 105.362L80.3449 105.568L80.5774 104.485C81.2267 104.425 81.8562 104.237 82.4266 103.932L83.1767 104.748L84.4857 103.784L83.8218 102.81C84.2233 102.341 84.523 101.799 84.7033 101.217L85.911 101.279L86.1211 99.7119L84.9021 99.4844ZM80.8325 103.048C80.176 103.171 79.4963 103.103 78.8797 102.854C78.2632 102.604 77.7375 102.184 77.3694 101.646C77.0014 101.109 76.8075 100.478 76.8124 99.8344C76.8173 99.1907 77.0208 98.5628 77.397 98.0305C77.7732 97.4983 78.3052 97.0856 78.9255 96.8448C79.5458 96.604 80.2264 96.546 80.881 96.6782C81.5356 96.8104 82.1346 97.1267 82.6021 97.5871C83.0696 98.0475 83.3845 98.6312 83.5068 99.2642C83.6652 100.105 83.4735 100.971 82.973 101.677C82.4725 102.382 81.7035 102.87 80.8325 103.033V103.048Z" fill="#37474F"/>
<g opacity="0.6">
<path d="M81.804 98.805C81.804 98.9385 81.7628 99.0691 81.6858 99.1801C81.6087 99.2911 81.4992 99.3777 81.371 99.4288C81.2428 99.4799 81.1018 99.4932 80.9657 99.4672C80.8297 99.4411 80.7047 99.3768 80.6066 99.2824C80.5085 99.188 80.4417 99.0677 80.4147 98.9367C80.3876 98.8058 80.4015 98.67 80.4546 98.5467C80.5077 98.4233 80.5976 98.3178 80.7129 98.2437C80.8282 98.1695 80.9639 98.1299 81.1026 98.1299C81.2886 98.1299 81.467 98.201 81.5985 98.3276C81.7301 98.4542 81.804 98.626 81.804 98.805Z" fill="#455A64"/>
<path d="M82.314 100.668V100.928H79.8911V100.683C79.8911 100.373 80.0187 100.077 80.2459 99.8582C80.4731 99.6395 80.7812 99.5166 81.1025 99.5166C81.4239 99.5166 81.732 99.6395 81.9592 99.8582C82.1864 100.077 82.314 100.373 82.314 100.683V100.668Z" fill="#455A64"/>
</g>
<path d="M80.0073 99.2132C80.0073 99.3467 79.9662 99.4773 79.8891 99.5883C79.8121 99.6993 79.7025 99.7859 79.5744 99.837C79.4462 99.8881 79.3052 99.9014 79.1691 99.8754C79.0331 99.8493 78.9081 99.785 78.81 99.6906C78.7119 99.5962 78.6451 99.4759 78.618 99.3449C78.591 99.214 78.6049 99.0782 78.6579 98.9549C78.711 98.8315 78.8009 98.726 78.9163 98.6519C79.0316 98.5777 79.1672 98.5381 79.3059 98.5381C79.492 98.5381 79.6704 98.6092 79.8019 98.7358C79.9334 98.8624 80.0073 99.0342 80.0073 99.2132Z" fill="#37474F"/>
<path d="M80.5174 101.076V101.322H78.0907V101.076C78.1079 100.778 78.2433 100.497 78.469 100.292C78.6946 100.086 78.9934 99.9717 79.3041 99.9717C79.6147 99.9717 79.9135 100.086 80.1392 100.292C80.3648 100.497 80.5002 100.778 80.5174 101.076Z" fill="#37474F"/>
<path d="M117.601 74.4031L117.785 73.0528L116.142 72.6918C116.152 71.9593 116.049 71.2294 115.838 70.5256L117.312 69.7602L116.772 68.5002L115.159 68.9767C114.788 68.3334 114.318 67.7479 113.764 67.2402L114.649 65.8646L113.524 65.0379L112.369 66.2221C111.717 65.8414 111.007 65.5612 110.265 65.3917L110.313 63.7707L108.911 63.5938L108.536 65.1751C107.774 65.1655 107.016 65.2653 106.285 65.4711L105.49 64.0487L104.185 64.5685L104.672 66.121C104.007 66.4806 103.4 66.9332 102.872 67.464L101.443 66.6156L100.58 67.6987L101.814 68.8035C101.42 69.4331 101.129 70.1174 100.952 70.8325L99.2712 70.7891L99.0875 72.1358L100.73 72.4968C100.719 73.2294 100.822 73.9595 101.034 74.663L99.5526 75.4284L100.1 76.6848L101.713 76.2155C102.085 76.8553 102.553 77.4391 103.101 77.9484L102.223 79.3203L103.348 80.1507L104.492 78.9665C105.149 79.3457 105.863 79.6257 106.608 79.7969L106.555 81.4107L107.954 81.5876L108.329 80.0099C109.09 80.0177 109.849 79.918 110.58 79.7139L111.375 81.1363L112.684 80.6128L112.189 79.0604C112.858 78.7041 113.466 78.2512 113.993 77.7174L115.422 78.573L116.277 77.4899L115.058 76.3779C115.45 75.7457 115.74 75.0605 115.921 74.3453L117.601 74.4031ZM108.431 77.3744C107.446 77.3751 106.483 77.0947 105.664 76.5687C104.845 76.0427 104.207 75.2947 103.83 74.4194C103.452 73.544 103.353 72.5806 103.545 71.651C103.736 70.7214 104.21 69.8674 104.906 69.1971C105.602 68.5267 106.489 68.07 107.454 67.8849C108.42 67.6997 109.421 67.7944 110.331 68.1569C111.24 68.5194 112.018 69.1335 112.565 69.9214C113.112 70.7093 113.404 71.6358 113.404 72.5835C113.404 73.8535 112.88 75.0715 111.948 75.9699C111.015 76.8682 109.75 77.3734 108.431 77.3744Z" fill="#7E57C2"/>
<path d="M109.447 70.0272C109.448 70.2218 109.389 70.4121 109.277 70.5742C109.165 70.7362 109.006 70.8626 108.819 70.9374C108.632 71.0122 108.427 71.0319 108.229 70.9942C108.031 70.9564 107.848 70.8628 107.705 70.7252C107.563 70.5877 107.465 70.4124 107.426 70.2215C107.387 70.0307 107.407 69.833 107.485 69.6534C107.563 69.4738 107.694 69.3205 107.862 69.2128C108.031 69.1052 108.229 69.0481 108.431 69.0488C108.7 69.0488 108.959 69.1519 109.149 69.3354C109.34 69.5189 109.447 69.7677 109.447 70.0272Z" fill="#7E57C2"/>
<path d="M109.507 70.8574H107.35V71.1571H109.507V70.8574Z" fill="#7E57C2"/>
<path opacity="0.1" d="M109.507 70.8574H107.35V71.1571H109.507V70.8574Z" fill="black"/>
<path d="M110.617 74.9805H106.244V75.2801H110.617V74.9805Z" fill="#7E57C2"/>
<path opacity="0.1" d="M110.617 74.9805H106.244V75.2801H110.617V74.9805Z" fill="black"/>
<path d="M110.617 75.8223H106.244V76.1219H110.617V75.8223Z" fill="#7E57C2"/>
<path opacity="0.1" d="M110.617 75.8223H106.244V76.1219H110.617V75.8223Z" fill="black"/>
<path d="M110.452 75.2803H106.405V75.8218H110.452V75.2803Z" fill="#7E57C2"/>
<path d="M109.312 71.1572H107.549V71.4569H109.312V71.1572Z" fill="#7E57C2"/>
<path d="M110.216 74.9811H106.641C107.124 74.5003 107.464 73.9047 107.628 73.2554C107.77 72.4647 107.838 71.4502 107.838 71.4502H109.019C109.019 71.4502 109.091 72.4575 109.233 73.2554C109.395 73.9048 109.734 74.5007 110.216 74.9811Z" fill="#7E57C2"/>
</svg>
