<svg width="36" height="34" viewBox="0 0 36 34" fill="none" xmlns="http://www.w3.org/2000/svg">
<path d="M18 0C27.6156 0 36 7.49701 36 16.15C36 24.6568 27.8046 31.3514 18 31.3514C15.9029 31.3528 13.819 31.0395 11.826 30.4232C10.9908 31.1882 10.7046 31.4483 8.9316 33.0633C7.6536 33.9745 6.4512 34.284 5.3766 33.7094C4.293 33.1314 3.9672 32.0059 4.1886 30.5235L4.9086 26.5812C1.782 23.8034 0 20.1314 0 16.15C0 7.49701 8.3826 0 18 0ZM18 2.38C9.7452 2.38 2.52 8.84001 2.52 16.15C2.52 19.6265 4.1616 22.8276 7.056 25.211L7.092 25.2399L7.6266 25.6785L7.506 26.3415L7.2576 27.7083L7.191 28.0721L6.678 30.8907C6.6486 31.0806 6.63057 31.2719 6.624 31.4636V31.6251C6.624 31.6331 6.6228 31.6376 6.6204 31.6387C6.633 31.6217 6.8778 31.5486 7.2972 31.2596L11.2032 27.6794L11.9484 27.9446C13.8843 28.6264 15.9339 28.9747 18 28.9731C26.4888 28.9731 33.48 23.2611 33.48 16.15C33.48 8.84171 26.2548 2.38 18 2.38ZM9.4086 13.2821C9.77123 13.2696 10.1328 13.3263 10.4717 13.4487C10.8106 13.5711 11.12 13.7568 11.3812 13.9947C11.6424 14.2325 11.8502 14.5177 11.9921 14.8331C12.134 15.1485 12.2072 15.4877 12.2072 15.8304C12.2072 16.1731 12.134 16.5123 11.9921 16.8277C11.8502 17.1431 11.6424 17.4283 11.3812 17.6662C11.12 17.904 10.8106 18.0897 10.4717 18.2122C10.1328 18.3346 9.77123 18.3912 9.4086 18.3787C8.71005 18.3546 8.04862 18.0756 7.56345 17.6003C7.07827 17.1251 6.80717 16.4906 6.80717 15.8304C6.80717 15.1702 7.07827 14.5358 7.56345 14.0605C8.04862 13.5853 8.71005 13.3062 9.4086 13.2821ZM18.405 13.2821C18.7676 13.2696 19.1292 13.3263 19.4681 13.4487C19.807 13.5711 20.1164 13.7568 20.3776 13.9947C20.6388 14.2325 20.8466 14.5177 20.9885 14.8331C21.1304 15.1485 21.2036 15.4877 21.2036 15.8304C21.2036 16.1731 21.1304 16.5123 20.9885 16.8277C20.8466 17.1431 20.6388 17.4283 20.3776 17.6662C20.1164 17.904 19.807 18.0897 19.4681 18.2122C19.1292 18.3346 18.7676 18.3912 18.405 18.3787C17.7064 18.3546 17.045 18.0756 16.5598 17.6003C16.0747 17.1251 15.8036 16.4906 15.8036 15.8304C15.8036 15.1702 16.0747 14.5358 16.5598 14.0605C17.045 13.5853 17.7064 13.3062 18.405 13.2821ZM27.3996 13.2821C27.7622 13.2696 28.1238 13.3263 28.4627 13.4487C28.8016 13.5711 29.111 13.7568 29.3722 13.9947C29.6334 14.2325 29.8412 14.5177 29.9831 14.8331C30.125 15.1485 30.1982 15.4877 30.1982 15.8304C30.1982 16.1731 30.125 16.5123 29.9831 16.8277C29.8412 17.1431 29.6334 17.4283 29.3722 17.6662C29.111 17.904 28.8016 18.0897 28.4627 18.2122C28.1238 18.3346 27.7622 18.3912 27.3996 18.3787C26.701 18.3546 26.0396 18.0756 25.5544 17.6003C25.0693 17.1251 24.7982 16.4906 24.7982 15.8304C24.7982 15.1702 25.0693 14.5358 25.5544 14.0605C26.0396 13.5853 26.701 13.3062 27.3996 13.2821Z" fill="#DEDEDE"/>
</svg>
