<svg width="32" height="43" viewBox="0 0 32 43" fill="none" xmlns="http://www.w3.org/2000/svg">
<path d="M16.125 34.375C16.9538 34.375 17.7487 34.0919 18.3347 33.5878C18.9208 33.0838 19.25 32.4003 19.25 31.6875C19.25 30.9747 18.9208 30.2912 18.3347 29.7872C17.7487 29.2831 16.9538 29 16.125 29C15.2962 29 14.5013 29.2831 13.9153 29.7872C13.3292 30.2912 13 30.9747 13 31.6875C13 32.4003 13.3292 33.0838 13.9153 33.5878C14.5013 34.0919 15.2962 34.375 16.125 34.375Z" fill="#DEDEDE"/>
<path d="M25 2.6875C25.8288 2.6875 26.6237 2.97065 27.2097 3.47465C27.7958 3.97865 28.125 4.66223 28.125 5.375V37.625C28.125 38.3378 27.7958 39.0213 27.2097 39.5253C26.6237 40.0294 25.8288 40.3125 25 40.3125H6.25C5.4212 40.3125 4.62634 40.0294 4.04029 39.5253C3.45424 39.0213 3.125 38.3378 3.125 37.625V5.375C3.125 4.66223 3.45424 3.97865 4.04029 3.47465C4.62634 2.97065 5.4212 2.6875 6.25 2.6875H25ZM6.25 0C4.5924 0 3.00268 0.566293 1.83058 1.5743C0.65848 2.58231 0 3.94946 0 5.375V37.625C0 39.0505 0.65848 40.4177 1.83058 41.4257C3.00268 42.4337 4.5924 43 6.25 43H25C26.6576 43 28.2473 42.4337 29.4194 41.4257C30.5915 40.4177 31.25 39.0505 31.25 37.625V5.375C31.25 3.94946 30.5915 2.58231 29.4194 1.5743C28.2473 0.566293 26.6576 0 25 0L6.25 0Z" fill="#DEDEDE"/>
</svg>
