<svg width="206" height="175" viewBox="0 0 206 175" fill="none" xmlns="http://www.w3.org/2000/svg">
<path fill-rule="evenodd" clip-rule="evenodd" d="M102.718 174.883C116.208 174.883 129.565 172.621 142.027 168.227C154.489 163.832 165.813 157.392 175.351 149.272C184.89 141.152 192.456 131.513 197.618 120.904C202.78 110.295 205.437 98.9244 205.437 87.4414C205.437 75.9585 202.78 64.5879 197.618 53.979C192.456 43.3702 184.89 33.7307 175.351 25.611C165.813 17.4913 154.489 11.0504 142.027 6.65608C129.565 2.26174 116.208 -1.7111e-07 102.718 0C75.4758 3.45571e-07 49.349 9.21255 30.0855 25.611C10.8221 42.0094 0 64.2505 0 87.4414C0 110.632 10.8221 132.873 30.0855 149.272C49.349 165.67 75.4758 174.883 102.718 174.883ZM88.8286 48.4814L153.244 78.9499C155.023 79.7916 156.504 81.0227 157.536 82.5157C158.568 84.0087 159.112 85.7093 159.112 87.4414C159.112 89.1735 158.568 90.8742 157.536 92.3672C156.504 93.8602 155.023 95.0913 153.244 95.933L88.8286 126.401C86.7428 127.388 84.3903 127.894 82.0042 127.869C79.6181 127.844 77.2811 127.288 75.2249 126.257C73.1686 125.226 71.4644 123.756 70.2812 121.992C69.0979 120.228 68.4767 118.231 68.4789 116.2V58.6829C68.4767 56.6515 69.0979 54.6549 70.2812 52.8908C71.4644 51.1267 73.1686 49.6564 75.2249 48.6256C77.2811 47.5948 79.6181 47.0392 82.0042 47.0139C84.3903 46.9886 86.7428 47.4945 88.8286 48.4814Z" fill="white"/>
</svg>
