<svg width="79" height="65" viewBox="0 0 79 65" fill="none" xmlns="http://www.w3.org/2000/svg">
<path d="M4.23214 47.5C3.10971 47.5 2.03325 47.1049 1.23957 46.4016C0.445885 45.6984 0 44.7446 0 43.75V5C0 3.67392 0.594513 2.40215 1.65275 1.46447C2.711 0.526784 4.14628 0 5.64286 0H36.6786C38.1751 0 39.6104 0.526784 40.6687 1.46447C41.7269 2.40215 42.3214 3.67392 42.3214 5V7.5H53.6071C55.1037 7.5 56.539 8.02678 57.5972 8.96447C58.6555 9.90215 59.25 11.1739 59.25 12.5V17.5H73.3571C74.8537 17.5 76.289 18.0268 77.3472 18.9645C78.4055 19.9021 79 21.1739 79 22.5V60H40.9107C40.5366 60 40.1777 60.1317 39.9132 60.3661C39.6486 60.6005 39.5 60.9185 39.5 61.25C39.5 61.5815 39.6486 61.8995 39.9132 62.1339C40.1777 62.3683 40.5366 62.5 40.9107 62.5H78.7602C78.4683 63.2314 77.9276 63.8647 77.2126 64.3124C76.4976 64.7602 75.6434 65.0004 74.7679 65H40.9107C39.7883 65 38.7118 64.6049 37.9181 63.9016C37.1245 63.1984 36.6786 62.2446 36.6786 61.25V55H21.1607C20.0383 55 18.9618 54.6049 18.1681 53.9016C17.3745 53.1984 16.9286 52.2446 16.9286 51.25V47.5H4.23214ZM42.0816 45C41.7898 45.7314 41.2491 46.3647 40.534 46.8124C39.819 47.2602 38.9648 47.5004 38.0893 47.5H56.4286V12.5C56.4286 11.837 56.1313 11.2011 55.6022 10.7322C55.0731 10.2634 54.3554 10 53.6071 10H42.3214V42.5H4.23214C3.858 42.5 3.49918 42.6317 3.23462 42.8661C2.97006 43.1005 2.82143 43.4185 2.82143 43.75C2.82143 44.0815 2.97006 44.3995 3.23462 44.6339C3.49918 44.8683 3.858 45 4.23214 45H42.0816ZM19.75 47.5H21.1607C20.667 47.5 20.1901 47.575 19.75 47.7125V47.5ZM39.5 40V5C39.5 4.33696 39.2027 3.70107 38.6736 3.23223C38.1445 2.76339 37.4269 2.5 36.6786 2.5H8.46429V40H39.5ZM39.5 55V57.7125C39.9401 57.575 40.417 57.5 40.9107 57.5H76.1786V22.5C76.1786 21.837 75.8813 21.2011 75.3522 20.7322C74.8231 20.2634 74.1054 20 73.3571 20H59.25V50H21.1607C20.7866 50 20.4277 50.1317 20.1632 50.3661C19.8986 50.6005 19.75 50.9185 19.75 51.25C19.75 51.5815 19.8986 51.8995 20.1632 52.1339C20.4277 52.3683 20.7866 52.5 21.1607 52.5H59.0102C58.7183 53.2314 58.1776 53.8647 57.4626 54.3124C56.7476 54.7602 55.8934 55.0004 55.0179 55H39.5Z" fill="white"/>
</svg>
