<svg width="60" height="60" viewBox="0 0 60 60" fill="none" xmlns="http://www.w3.org/2000/svg">
<path d="M6.86774 43.1425C6.70126 43.1425 6.55062 43.1231 6.40593 43.1075L2.27735 42.6074C1.68669 42.5312 1.11985 42.7149 0.685778 43.0947C0.249735 43.4746 0 44.0195 0 44.5928V53.0068C0 56.8632 3.18314 60 7.09567 60H15.6343C16.215 60 16.7699 59.7539 17.1544 59.3252C17.5389 58.8965 17.7193 58.3252 17.648 57.7559L17.1426 53.7041C17.0138 52.5898 17.3705 51.4746 18.1218 50.6465C18.8709 49.8194 19.9035 49.3642 21.0313 49.3642C23.1957 49.3642 24.9558 51.0986 24.9558 53.2315C24.9558 53.4013 24.9339 53.5537 24.92 53.6876L24.4146 57.7568C24.3433 58.3252 24.5236 58.8965 24.9081 59.3252C25.2947 59.7549 25.8476 60 26.4284 60H34.965C38.8795 60 42.0626 56.8632 42.0626 53.0068V51.452C43.1362 51.0051 44.1148 50.3412 44.9069 49.4669C46.4271 47.7891 47.1486 45.538 46.8869 43.2754L46.661 41.4502H52.9044C56.8169 41.4502 60 38.3126 60 34.4561V26.043C60 25.4697 59.7503 24.9248 59.3162 24.545C58.8802 24.166 58.3114 23.9873 57.7227 24.0576L53.6119 24.5548C52.4842 24.6847 51.3485 24.332 50.5081 23.5918C49.6698 22.8545 49.2078 21.836 49.2078 20.7246C49.2078 18.5919 50.9679 16.8575 53.1324 16.8575C53.2987 16.8575 53.4494 16.8771 53.5941 16.8927L57.7227 17.3926C58.3094 17.458 58.8802 17.2832 59.3143 16.9053C59.7503 16.5254 60 15.9805 60 15.4074V6.99316C60.0001 3.13672 56.8169 0 52.9044 0H44.3658C43.7851 0 43.2301 0.246106 42.8456 0.674803C42.4611 1.1035 42.2807 1.6748 42.3521 2.24413L42.8576 6.2959C42.9863 7.41016 42.6296 8.52442 41.8784 9.35352C41.1292 10.1807 40.0965 10.6357 38.9688 10.6357C36.8044 10.6357 35.0444 8.90136 35.0444 6.76856C35.0444 6.59864 35.0661 6.4463 35.08 6.3125L35.5854 2.24316C35.6569 1.6748 35.4764 1.10351 35.092 0.674803C34.7054 0.24512 34.1524 0 33.5717 0H25.035C21.1205 0 17.9374 3.13672 17.9374 6.99316V11.9375L15.9614 11.711C15.672 11.6826 15.3984 11.6591 15.1031 11.6591C11.0458 11.6591 7.72447 14.6783 7.24098 18.5498H7.09567C3.18314 18.5498 0 21.6876 0 25.5439V33.957C0 34.5303 0.249735 35.0752 0.68379 35.4551C1.11983 35.834 1.68868 36.0127 2.27735 35.9424L6.38808 35.4452C7.5119 35.3174 8.6476 35.6689 9.49196 36.4082C10.3304 37.1455 10.7922 38.1641 10.7922 39.2754C10.7922 41.4083 9.03214 43.1425 6.86774 43.1425ZM15.1031 15.6591C15.2597 15.6591 15.4044 15.6768 15.6006 15.6954L19.7312 16.1699C20.3179 16.2354 20.8827 16.0557 21.3168 15.6777C21.7488 15.2979 21.9966 14.7539 21.9966 14.1836V6.99316C21.9966 5.34278 23.3603 4 25.035 4H31.2784L31.0485 5.84472C31.0148 6.14159 30.9851 6.43848 30.9851 6.76856C30.9851 11.1064 34.5667 14.6358 38.9688 14.6358C41.2341 14.6358 43.3986 13.6817 44.9069 12.0166C46.4271 10.3389 47.1486 8.08788 46.8869 5.8252L46.661 4H52.9044C54.5792 4 55.9408 5.34278 55.9408 6.99316V13.1465L54.0381 12.917C53.7487 12.8858 53.4554 12.8573 53.1324 12.8573C48.7302 12.8573 45.1486 16.3867 45.1486 20.7246C45.1486 22.958 46.1179 25.0908 47.8065 26.5761C49.5071 28.0732 51.7766 28.7763 54.0897 28.5274L55.9408 28.3037V34.4561C55.9408 36.1074 54.5792 37.4501 52.9044 37.4501H44.3658C43.785 37.4501 43.2301 37.6963 42.8456 38.1249C42.4611 38.5536 42.2807 39.125 42.352 39.6943L42.8574 43.746C42.9863 44.8603 42.6296 45.9745 41.8784 46.8037C41.1292 47.6308 40.0965 48.0859 38.9688 48.0859C36.8044 48.0859 35.0443 46.3515 35.0443 44.2188C35.0443 44.0488 35.0661 43.8965 35.08 43.7627L35.5854 39.6933C35.6567 39.125 35.4764 38.5537 35.092 38.1249C34.7054 37.6952 34.1524 37.4501 33.5717 37.4501H25.0351C23.3603 37.4501 21.9966 36.1074 21.9966 34.4561V24.8193C21.9966 24.246 21.7469 23.7011 21.3129 23.3212C20.9383 22.9961 20.4605 22.8193 19.967 22.8193C19.8857 22.8193 19.8026 22.8242 19.7193 22.8339L15.5906 23.333C14.4609 23.4688 13.3728 23.1347 12.5205 22.3926C11.6702 21.6504 11.2024 20.624 11.2024 19.502C11.2024 17.3828 12.9526 15.6591 15.1031 15.6591ZM12.1935 33.4239C10.4909 31.9258 8.21948 31.2197 5.91042 31.4726L4.0592 31.6963V25.5439C4.0592 23.8926 5.42086 22.5498 7.09567 22.5498H7.78628C8.24474 23.6221 8.92682 24.599 9.8289 25.3868C11.5374 26.878 13.8108 27.5752 16.0842 27.3037L17.9374 27.0792V34.4561C17.9374 38.3126 21.1205 41.4502 25.035 41.4502H31.2784L31.0485 43.295C31.0148 43.5918 30.9851 43.8886 30.9851 44.2188C30.9851 48.2309 34.0602 51.5139 38.0035 51.9898V53.0068C38.0035 54.6573 36.6398 56 34.965 56H28.7217L28.9516 54.1553C28.9852 53.8584 29.015 53.5615 29.015 53.2315C29.015 48.8936 25.4334 45.3642 21.0314 45.3642C18.764 45.3642 16.5995 46.3183 15.0931 47.9825C13.573 49.6612 12.8516 51.9112 13.1132 54.1748L13.339 56H7.09567C5.42083 56 4.0592 54.6573 4.0592 53.0068V46.8535L5.96195 47.083C6.25133 47.1142 6.54467 47.1427 6.86774 47.1427C11.2698 47.1427 14.8514 43.6133 14.8514 39.2754C14.8514 37.042 13.8821 34.9092 12.1935 33.4239Z" fill="white"/>
</svg>
