<svg width="63" height="64" viewBox="0 0 63 64" fill="none" xmlns="http://www.w3.org/2000/svg">
<path d="M34.6199 5.81818C46.9179 5.81818 56.6933 14.8364 56.6933 26.1818C56.6933 34.3273 51.648 41.3091 44.0799 44.5091V58.1818H22.0065V49.4545H18.8532C15.3845 49.4545 12.5465 46.8364 12.5465 43.6364V34.9091H7.81644C6.5551 34.9091 5.6091 33.4545 6.5551 32.5818L12.5465 25.3091C13.1771 14.2545 22.6372 5.81818 34.6199 5.81818ZM34.6199 0C20.1145 0 8.13177 9.89091 6.5551 22.9818L1.50974 29.0909C-0.382263 31.4182 -0.382263 34.3273 0.879075 36.6545C2.14041 38.6909 4.03242 40.1455 6.23976 40.4364V43.6364C6.23976 49.1636 10.3391 53.5273 15.6998 54.9818V64H50.3866V48C58.27 43.0545 63 35.2 63 26.1818C63 11.6364 50.3866 0 34.6199 0ZM25.1598 26.1818C23.2678 26.1818 22.0065 25.0182 22.0065 23.2727C22.0065 21.5273 23.2678 20.3636 25.1598 20.3636C27.0519 20.3636 28.3132 21.5273 28.3132 23.2727C28.3132 25.0182 27.0519 26.1818 25.1598 26.1818ZM34.6199 26.1818C32.7279 26.1818 31.4665 25.0182 31.4665 23.2727C31.4665 21.5273 32.7279 20.3636 34.6199 20.3636C36.5119 20.3636 37.7732 21.5273 37.7732 23.2727C37.7732 25.0182 36.5119 26.1818 34.6199 26.1818ZM44.0799 26.1818C42.5033 26.1818 40.9266 25.0182 40.9266 23.2727C40.9266 21.5273 42.5033 20.3636 44.0799 20.3636C45.6566 20.3636 47.2333 21.5273 47.2333 23.2727C47.2333 25.0182 45.6566 26.1818 44.0799 26.1818Z" fill="white"/>
</svg>
