<svg width="68" height="69" viewBox="0 0 68 69" fill="none" xmlns="http://www.w3.org/2000/svg">
<path d="M33.9979 2.15625C23.5769 2.15625 15.5401 5.72269 10.1214 11.6933C4.73025 17.6338 2.125 25.7413 2.125 34.4978C2.125 40.4707 3.33625 46.1416 5.81825 51.0277C6.53646 49.5782 7.54036 48.2939 8.76775 47.2542C7.18462 43.47 6.375 39.1446 6.375 34.5C6.375 26.5866 8.72525 19.6003 13.2494 14.6172C17.7438 9.66 24.582 6.46875 33.9979 6.46875C43.4116 6.46875 50.2499 9.66 54.7464 14.6151C59.2705 19.5982 61.6207 26.5823 61.6207 34.4957C61.6207 42.4113 59.2705 49.3954 54.7464 54.3806C50.2499 59.3357 43.4137 62.5269 33.9979 62.5269C33.3264 62.5269 32.6676 62.5097 32.0216 62.4774C31.9094 62.5822 31.7917 62.6809 31.6689 62.7728C31.8678 63.4344 31.9241 64.1318 31.8339 64.8175C31.7437 65.5032 31.5091 66.1612 31.1461 66.7467C32.0747 66.8071 33.0267 66.8394 33.9979 66.8394C44.4189 66.8394 52.4556 63.273 57.8722 57.3024C63.2634 51.3619 65.8707 43.2544 65.8707 34.4978C65.8707 25.7413 63.2634 17.6338 57.8722 11.6933C52.4535 5.72269 44.4189 2.15625 34 2.15625" fill="white"/>
<path d="M28.4516 66.4772C28.8603 66.2351 29.1969 65.8853 29.4258 65.4649C29.6546 65.0445 29.7671 64.5692 29.7514 64.0892C29.7357 63.6092 29.5924 63.1425 29.3367 62.7384C29.0809 62.3343 28.7222 62.0079 28.2986 61.7938L27.625 61.4531H29.155C29.629 61.453 30.0894 61.2921 30.4628 60.9959C30.8363 60.6997 31.1015 60.2854 31.2162 59.8187L31.3586 59.2322C31.42 58.9841 31.4248 58.725 31.3727 58.4747C31.3206 58.2244 31.2128 57.9894 31.0577 57.7878C30.9026 57.5861 30.7042 57.4229 30.4776 57.3108C30.251 57.1987 30.0021 57.1405 29.75 57.1406L30.4512 56.7848C30.8788 56.5671 31.2383 56.233 31.4895 55.8198C31.7407 55.4067 31.8737 54.9308 31.8737 54.4453C31.8737 53.9599 31.7407 53.484 31.4895 53.0708C31.2383 52.6577 30.8788 52.3236 30.4512 52.1058L29.75 51.75H33.4687C34.1732 51.75 34.8488 51.466 35.347 50.9606C35.8451 50.4551 36.125 49.7695 36.125 49.0547C36.125 48.3398 35.8451 47.6543 35.347 47.1488C34.8488 46.6433 34.1732 46.3594 33.4687 46.3594H21.25V39.7613C21.25 38.9378 20.9276 38.148 20.3537 37.5657C19.7799 36.9834 19.0016 36.6562 18.19 36.6562C16.405 36.6562 14.9919 38.2044 14.9664 40.0178C14.9239 42.9525 14.5244 46.8381 12.75 47.4375C6.37499 49.5938 4.24999 59.2969 9.56249 63.6094C13.5787 66.8718 17.5971 66.8567 20.7187 66.8438H27.1235C27.608 66.8438 28.0606 66.7101 28.4516 66.4772ZM17.3102 13.2523C18.1539 12.3984 20.4637 10.7812 23.375 10.7812C26.2862 10.7812 28.5961 12.3984 29.4397 13.2523C29.6392 13.4548 29.7513 13.7293 29.7513 14.0156C29.7513 14.3019 29.6392 14.5765 29.4397 14.7789C29.2402 14.9814 28.9696 15.0951 28.6875 15.0951C28.4053 15.0951 28.1347 14.9814 27.9352 14.7789C27.3615 14.1968 25.5637 12.9375 23.375 12.9375C21.1862 12.9375 19.3864 14.1968 18.8147 14.7789C18.716 14.8792 18.5987 14.9587 18.4696 15.0129C18.3405 15.0672 18.2022 15.0951 18.0625 15.0951C17.9228 15.0951 17.7844 15.0672 17.6554 15.0129C17.5263 14.9587 17.409 14.8792 17.3102 14.7789C17.2115 14.6787 17.1331 14.5597 17.0796 14.4287C17.0262 14.2978 16.9986 14.1574 16.9986 14.0156C16.9986 13.8739 17.0262 13.7335 17.0796 13.6025C17.1331 13.4716 17.2115 13.3526 17.3102 13.2523ZM38.6325 17.5001C39.6312 16.6549 42.33 15.0938 45.6875 15.0938C49.045 15.0938 51.7437 16.6549 52.7425 17.5001C52.9513 17.6854 53.0803 17.9463 53.1021 18.2268C53.1239 18.5074 53.0367 18.7855 52.8591 19.0018C52.6816 19.218 52.4277 19.3552 52.1518 19.384C51.8759 19.4129 51.5998 19.3311 51.3825 19.1561C50.6812 18.5653 48.45 17.25 45.6875 17.25C42.925 17.25 40.6937 18.5653 39.9925 19.1561C39.7752 19.3311 39.4991 19.4129 39.2232 19.384C38.9473 19.3552 38.6934 19.218 38.5158 19.0018C38.3383 18.7855 38.2511 18.5074 38.2729 18.2268C38.2947 17.9463 38.4237 17.6854 38.6325 17.5001ZM21.25 31.2656C22.9407 31.2656 24.5623 30.5841 25.7578 29.371C26.9533 28.1578 27.625 26.5125 27.625 24.7969C27.625 23.0813 26.9533 21.4359 25.7578 20.2228C24.5623 19.0097 22.9407 18.3281 21.25 18.3281C19.5592 18.3281 17.9377 19.0097 16.7422 20.2228C15.5466 21.4359 14.875 23.0813 14.875 24.7969C14.875 26.5125 15.5466 28.1578 16.7422 29.371C17.9377 30.5841 19.5592 31.2656 21.25 31.2656Z" fill="white"/>
<path d="M51 24.7969C51 26.5125 50.3284 28.1578 49.1328 29.371C47.9373 30.5841 46.3158 31.2656 44.625 31.2656C42.9343 31.2656 41.3127 30.5841 40.1172 29.371C38.9217 28.1578 38.25 26.5125 38.25 24.7969C38.25 23.0813 38.9217 21.4359 40.1172 20.2228C41.3127 19.0097 42.9343 18.3281 44.625 18.3281C46.3158 18.3281 47.9373 19.0097 49.1328 20.2228C50.3284 21.4359 51 23.0813 51 24.7969ZM29.1274 42.4932C29.7878 41.8486 30.5891 41.3717 31.4659 41.1015C32.3427 40.8313 33.27 40.7755 34.1721 40.9386C36.7668 41.3871 37.8505 42.7282 38.4476 44.0328C38.6886 44.5454 39.1192 44.9409 39.6458 45.1333C40.1724 45.3256 40.7526 45.2994 41.2603 45.0603C41.768 44.8212 42.1622 44.3885 42.3573 43.8561C42.5525 43.3238 42.5327 42.7349 42.3024 42.2172C41.208 39.8281 39.0596 37.4088 34.8904 36.6864C33.3181 36.407 31.7029 36.5114 30.1783 36.9909C28.6537 37.4705 27.2635 38.3115 26.1226 39.4443C25.7355 39.851 25.5214 40.3956 25.5262 40.961C25.531 41.5263 25.7545 42.0672 26.1485 42.4669C26.5425 42.8667 27.0755 43.0935 27.6327 43.0984C28.1898 43.1033 28.7266 42.886 29.1274 42.4932Z" fill="white"/>
</svg>
