<svg width="181" height="181" viewBox="0 0 181 181" fill="none" xmlns="http://www.w3.org/2000/svg">
<path d="M152.655 16.1777C159.781 14.615 166.128 20.9619 164.565 28.0878L154.742 72.8768C154.208 75.3112 154.603 77.8572 155.848 80.0159L178.694 119.619C182.305 125.879 178.289 133.784 171.104 134.559L125.269 139.5C122.816 139.764 120.548 140.926 118.899 142.762L88.0504 177.129C83.1948 182.539 74.373 181.125 71.4517 174.468L53.139 132.742C52.1311 130.445 50.2972 128.611 48.0008 127.604L6.27425 109.291C-0.381918 106.37 -1.79625 97.5479 3.61312 92.6922L37.9803 61.8432C39.8164 60.1951 40.9783 57.9264 41.2428 55.4733L46.184 9.63833C46.9585 2.45359 54.8638 -1.56283 61.1233 2.04814L100.727 24.8945C102.885 26.1399 105.431 26.5343 107.866 26.0004L152.655 16.1777Z" fill="#2D0138"/>
</svg>
