<svg width="73" height="70" viewBox="0 0 73 70" fill="none" xmlns="http://www.w3.org/2000/svg">
<rect width="73" height="70" fill="#FFD600"/>
<path d="M41.0591 52.9985C41.0591 52.1428 41.0139 51.426 41.0797 50.7338C41.1075 50.4393 41.3369 50.1233 41.5251 49.946C42.4374 49.078 43.4279 48.3843 44.2786 47.3884C47.031 44.1632 48.6623 39.9175 48.7518 34.4014C48.7765 32.8366 48.3918 32.4435 47.5155 33.0555C44.9821 34.8161 42.2574 33.7832 40.8041 30.5118C39.219 26.9413 39.4422 22.1868 41.342 19.0696C43.7674 15.089 47.7603 14.9688 50.5138 18.7736C52.1626 21.0522 52.9463 23.9937 53.1418 27.3406C53.797 38.55 50.0458 47.7907 43.2171 51.8499C42.5413 52.2508 41.8491 52.5807 41.0591 52.9985Z" fill="white"/>
<path d="M19.3085 52.9985C19.3085 52.1428 19.2632 51.426 19.329 50.7338C19.3568 50.4393 19.5862 50.1233 19.7744 49.946C20.6868 49.078 21.6773 48.3843 22.5279 47.3884C25.2804 44.1632 26.9117 39.9175 27.0012 34.4014C27.0258 32.8366 26.6412 32.4435 25.7648 33.0555C23.2314 34.8161 20.5068 33.7832 19.0534 30.5118C17.4684 26.9413 17.6916 22.1868 19.5913 19.0696C22.0167 15.089 26.0096 14.9688 28.7631 18.7736C30.4119 21.0522 31.1957 23.9937 31.3911 27.3406C32.0463 38.55 28.2951 47.7907 21.4664 51.8499C20.7906 52.2508 20.0984 52.5807 19.3085 52.9985Z" fill="white"/>
</svg>
