<svg width="181" height="181" viewBox="0 0 181 181" fill="none" xmlns="http://www.w3.org/2000/svg">
<path d="M152.654 16.1777C159.78 14.615 166.127 20.9619 164.565 28.0878L154.742 72.8768C154.208 75.3112 154.602 77.8572 155.848 80.0159L178.694 119.619C182.305 125.879 178.289 133.784 171.104 134.559L125.269 139.5C122.816 139.764 120.547 140.926 118.899 142.762L88.05 177.129C83.1944 182.539 74.3726 181.125 71.4514 174.468L53.1386 132.742C52.1307 130.445 50.2968 128.611 48.0004 127.604L6.27389 109.291C-0.382284 106.37 -1.79661 97.5479 3.61275 92.6922L37.9799 61.8432C39.816 60.1951 40.978 57.9264 41.2424 55.4733L46.1836 9.63833C46.9581 2.45359 54.8635 -1.56283 61.1229 2.04814L100.726 24.8945C102.885 26.1399 105.431 26.5343 107.865 26.0004L152.654 16.1777Z" fill="url(#paint0_linear_48_892)"/>
<defs>
<linearGradient id="paint0_linear_48_892" x1="167.91" y1="12.832" x2="20.832" y2="159.91" gradientUnits="userSpaceOnUse">
<stop stop-color="#FE2260"/>
<stop offset="1" stop-color="#981439"/>
</linearGradient>
</defs>
</svg>
