<svg width="180" height="180" viewBox="0 0 180 180" fill="none" xmlns="http://www.w3.org/2000/svg">
<path d="M152.55 15.6131C159.676 14.0503 166.023 20.3973 164.46 27.5231L154.638 72.3122C154.104 74.7465 154.498 77.2925 155.743 79.4513L178.59 119.055C182.201 125.314 178.184 133.219 171 133.994L125.165 138.935C122.712 139.2 120.443 140.362 118.795 142.198L87.9457 176.565C83.0901 181.974 74.2683 180.56 71.347 173.904L53.0343 132.177C52.0264 129.881 50.1925 128.047 47.8961 127.039L6.16957 108.726C-0.486606 105.805 -1.90093 96.9832 3.50843 92.1276L37.8756 61.2785C39.7117 59.6304 40.8737 57.3617 41.1381 54.9087L46.0793 9.07368C46.8538 1.88894 54.7591 -2.12748 61.0186 1.4835L100.622 24.3299C102.781 25.5752 105.327 25.9696 107.761 25.4357L152.55 15.6131Z" fill="#FE2260"/>
</svg>
