<svg width="39" height="41" viewBox="0 0 39 41" fill="none" xmlns="http://www.w3.org/2000/svg">
<path d="M34.575 25.2396V10.6562L23.1167 2.64167L11.6583 10.6542V16.2625H9.575V9.65625L23.1167 0L36.6583 9.65417V25.2375L34.575 25.2396ZM24.3583 12.0563H26.0417V10.3729H24.3583V12.0563ZM20.1917 12.0563H21.875V10.3729H20.1917V12.0563ZM24.3583 16.2229H26.0417V14.5396H24.3583V16.2229ZM20.1917 16.2229H21.875V14.5396H20.1917V16.2229ZM8.33333 33.3312L24.0937 37.9292L36.5708 34.075C36.5292 33.4431 36.3403 32.9875 36.0042 32.7083C35.6653 32.4292 35.2826 32.2896 34.8563 32.2896H24.9708C24.0903 32.2896 23.2917 32.2549 22.575 32.1854C21.8583 32.116 21.1257 31.9507 20.3771 31.6896L15.8146 30.1938L16.5187 28.1354L20.7375 29.6604C21.4069 29.9146 22.1681 30.0674 23.0208 30.1187C23.8722 30.1687 25.0389 30.1979 26.5208 30.2062C26.5208 29.5562 26.4014 29.0313 26.1625 28.6313C25.9236 28.2313 25.5812 27.9521 25.1354 27.7938L13.1479 23.3937C13.0687 23.3674 12.9951 23.3479 12.9271 23.3354C12.859 23.3229 12.7861 23.316 12.7083 23.3146H8.33333V33.3312ZM0 38.2187V21.2312H12.6583C12.8528 21.2312 13.0528 21.2535 13.2583 21.2979C13.4639 21.3424 13.6549 21.3937 13.8312 21.4521L25.8708 25.8625C26.6167 26.1458 27.2583 26.6549 27.7958 27.3896C28.3347 28.1243 28.6042 29.0632 28.6042 30.2062H34.8542C36.1097 30.2062 37.0708 30.5986 37.7375 31.3833C38.4056 32.1694 38.7396 33.166 38.7396 34.3729V35.6542L24.1979 40.1417L8.33125 35.5167V38.2187H0ZM2.08333 36.1354H6.25V23.3146H2.08333V36.1354Z" fill="#DEDEDE"/>
</svg>
