<svg width="73" height="33" viewBox="0 0 73 33" fill="none" xmlns="http://www.w3.org/2000/svg">
<path d="M22.4438 33C21.0987 33 19.9517 32.5531 19.0028 31.6594C18.0538 30.767 17.5794 29.6835 17.5794 28.4089C17.5794 27.1343 18.0509 26.0466 18.9941 25.146C19.9372 24.2454 21.0806 23.7964 22.4242 23.7992C23.7678 23.8019 24.9148 24.2481 25.8652 25.1377C26.8156 26.0301 27.2908 27.1143 27.2908 28.3903C27.2908 29.6663 26.8192 30.7533 25.8761 31.6511C24.9329 32.5504 23.7888 33 22.4438 33ZM27.2059 18.5625C24.4548 18.5625 22.1347 17.6674 20.2455 15.8771C18.3564 14.0869 17.4118 11.8883 17.4118 9.28125C17.4118 6.67425 18.3564 4.47563 20.2455 2.68538C22.1347 0.895125 24.4548 0 27.2059 0C29.9569 0 32.2771 0.895125 34.1662 2.68538C36.0554 4.47563 37 6.67425 37 9.28125C37 11.8883 36.0554 14.0869 34.1662 15.8771C32.2771 17.6674 29.9569 18.5625 27.2059 18.5625ZM7.03 27.2869C5.09729 27.2869 3.44245 26.6351 2.06547 25.3316C0.68849 24.0281 0 22.4592 0 20.625C0 18.7908 0.68849 17.2219 2.06547 15.9184C3.44245 14.6149 5.09802 13.9624 7.03218 13.9611C8.96633 13.9597 10.6219 14.6128 11.9989 15.9204C13.3759 17.2281 14.0644 18.7963 14.0644 20.625C14.0644 22.4537 13.3751 24.0226 11.9967 25.3316C10.6183 26.6406 8.96343 27.2931 7.03218 27.2889" fill="#FE2260"/>
<path d="M58.4438 33C57.0987 33 55.9517 32.5531 55.0028 31.6594C54.0538 30.767 53.5794 29.6835 53.5794 28.4089C53.5794 27.1343 54.0509 26.0466 54.9941 25.146C55.9372 24.2454 57.0806 23.7964 58.4242 23.7992C59.7678 23.8019 60.9148 24.2481 61.8652 25.1377C62.8156 26.0301 63.2908 27.1143 63.2908 28.3903C63.2908 29.6663 62.8192 30.7532 61.8761 31.6511C60.9329 32.5504 59.7888 33 58.4438 33ZM58.4351 30.9375C59.1635 30.9375 59.7917 30.6866 60.3199 30.1847C60.8495 29.6842 61.1143 29.0888 61.1143 28.3986C61.1143 27.7083 60.8495 27.1129 60.3199 26.6124C59.7903 26.1119 59.162 25.861 58.4351 25.8596C57.7067 25.8596 57.0777 26.1106 56.5481 26.6124C56.0199 27.1129 55.7558 27.7083 55.7558 28.3986C55.7558 29.0888 56.0199 29.6849 56.5481 30.1867C57.0762 30.6886 57.7052 30.9389 58.4351 30.9375ZM63.2059 18.5625C60.4548 18.5625 58.1347 17.6674 56.2455 15.8771C54.3564 14.0869 53.4118 11.8883 53.4118 9.28125C53.4118 6.67425 54.3564 4.47562 56.2455 2.68538C58.1347 0.895125 60.4548 0 63.2059 0C65.9569 0 68.2771 0.895125 70.1662 2.68538C72.0554 4.47562 73 6.67425 73 9.28125C73 11.8883 72.0554 14.0869 70.1662 15.8771C68.2771 17.6674 65.9569 18.5625 63.2059 18.5625ZM63.2059 16.5C65.3461 16.5 67.1511 15.8042 68.6209 14.4127C70.0908 13.0212 70.825 11.3108 70.8235 9.28125C70.8221 7.25175 70.0879 5.54125 68.6209 4.14975C67.154 2.75825 65.349 2.0625 63.2059 2.0625C61.0628 2.0625 59.2578 2.75894 57.7908 4.15181C56.3239 5.54469 55.5897 7.2545 55.5882 9.28125C55.5868 11.308 56.3217 13.0185 57.793 14.4127C59.2643 15.807 61.0686 16.5027 63.2059 16.5ZM43.03 27.2869C41.0973 27.2869 39.4425 26.6351 38.0655 25.3316C36.6885 24.0281 36 22.4592 36 20.625C36 18.7907 36.6885 17.2219 38.0655 15.9184C39.4425 14.6149 41.098 13.9624 43.0322 13.9611C44.9663 13.9597 46.6219 14.6128 47.9989 15.9204C49.3759 17.2281 50.0644 18.7962 50.0644 20.625C50.0644 22.4537 49.3751 24.0226 47.9967 25.3316C46.6183 26.6406 44.9634 27.2931 43.0322 27.2889M43.0322 25.2264C44.3685 25.2264 45.5119 24.7754 46.4623 23.8734C47.4127 22.9714 47.8879 21.8886 47.8879 20.625C47.8879 19.3614 47.412 18.2786 46.4601 17.3766C45.5083 16.4746 44.3649 16.0243 43.03 16.0256C41.6951 16.027 40.5525 16.478 39.6021 17.3786C38.6517 18.2792 38.1765 19.3614 38.1765 20.625C38.1765 21.8886 38.6524 22.9714 39.6042 23.8734C40.5561 24.7754 41.6995 25.2257 43.0344 25.2244" fill="#FE2260"/>
</svg>
