<svg width="181" height="181" viewBox="0 0 181 181" fill="none" xmlns="http://www.w3.org/2000/svg">
<path d="M152.654 16.1777C159.78 14.615 166.127 20.9619 164.564 28.0878L154.742 72.8768C154.208 75.3112 154.602 77.8572 155.848 80.0159L178.694 119.619C182.305 125.879 178.289 133.784 171.104 134.559L125.269 139.5C122.816 139.764 120.547 140.926 118.899 142.762L88.0499 177.129C83.1943 182.539 74.3725 181.125 71.4512 174.468L53.1385 132.742C52.1306 130.445 50.2967 128.611 48.0003 127.604L6.27377 109.291C-0.382406 106.37 -1.79673 97.5479 3.61263 92.6922L37.9798 61.8432C39.8159 60.1951 40.9779 57.9264 41.2423 55.4733L46.1835 9.63833C46.958 2.45359 54.8633 -1.56283 61.1228 2.04814L100.726 24.8945C102.885 26.1399 105.431 26.5343 107.865 26.0004L152.654 16.1777Z" fill="#FFD600"/>
</svg>
